<?xml version="1.0" encoding="utf-8"?>
<!-- Generator: Adobe Illustrator 19.0.0, SVG Export Plug-In . SVG Version: 6.00 Build 0)  -->
<svg version="1.1" id="Layer_1" xmlns="http://www.w3.org/2000/svg" xmlns:xlink="http://www.w3.org/1999/xlink" x="0px" y="0px"
	 viewBox="-449 451 124 124" style="enable-background:new -449 451 124 124;" xml:space="preserve">
<style type="text/css">
	.st0{fill:#57EBE4;}
	.st1{fill:none;stroke:#FFFFFF;stroke-width:3;stroke-miterlimit:10;}
	.st2{fill:none;stroke:#FFFFFF;stroke-width:4;stroke-miterlimit:10;}
</style>
<circle id="XMLID_1_" class="st0" cx="-387" cy="513" r="61"/>
<path class="st1" d="M-500,483.3"/>
<path class="st1" d="M-540,483.3"/>
<g>
	<path class="st2" d="M-347.4,491.3c-2.2-0.9-4.7-0.4-6.4,1.3l-10.6,10.7c-0.2,0.2-0.5,0.1-0.5-0.2v-11.1c0-2.1-1.7-3.7-3.7-3.7
		h-57.9c-2.1,0-3.7,1.7-3.7,3.7v42.2c0,2.1,1.7,3.7,3.7,3.7h57.9c2.1,0,3.7-1.7,3.7-3.7V523c0-0.2,0.3-0.4,0.5-0.2l10.6,10.7
		c1.1,1.1,2.6,1.7,4.1,1.7l5.8-5.8v-32.6L-347.4,491.3z M-389.2,515.3"/>
</g>
</svg>
