<?xml version="1.0" encoding="utf-8"?>
<!-- Generator: Adobe Illustrator 19.0.0, SVG Export Plug-In . SVG Version: 6.00 Build 0)  -->
<svg version="1.1" id="Layer_1" xmlns="http://www.w3.org/2000/svg" xmlns:xlink="http://www.w3.org/1999/xlink" x="0px" y="0px"
	 viewBox="-449 451 124 124" style="enable-background:new -449 451 124 124;" xml:space="preserve">
<style type="text/css">
	.st0{fill:#57EBE4;}
	.st1{fill:none;stroke:#FFFFFF;stroke-width:3;stroke-miterlimit:10;}
	.st2{fill:none;stroke:#FFFFFF;stroke-width:1.25;stroke-linecap:round;stroke-linejoin:round;stroke-miterlimit:10;}
</style>
<circle id="XMLID_1_" class="st0" cx="-387" cy="513" r="61"/>
<path class="st1" d="M-500,483.3"/>
<path class="st1" d="M-540,483.3"/>
<g>
	<g>
		<polyline class="st2" points="-378.1,490.7 -401,530.3 -423.9,490.7 		"/>
		<polyline class="st2" points="-378.1,487.4 -401,527 -423.9,487.4 		"/>
		<polyline class="st2" points="-378.1,484.1 -401,523.7 -423.9,484.1 		"/>
		<polyline class="st2" points="-378.1,480.8 -401,520.4 -423.9,480.8 		"/>
		<polyline class="st2" points="-378.1,477.5 -401,517.2 -423.9,477.5 		"/>
		<polyline class="st2" points="-378.1,474.2 -401,513.9 -423.9,474.2 		"/>
		<polyline class="st2" points="-378.1,471 -401,510.6 -423.9,471 		"/>
		<polyline class="st2" points="-378.1,467.7 -401,507.3 -423.9,467.7 		"/>
	</g>
	<g>
		<polyline class="st2" points="-399.9,534.4 -377,494.7 -354.1,534.4 		"/>
		<polyline class="st2" points="-399.9,537.8 -377,498.2 -354.1,537.8 		"/>
		<polyline class="st2" points="-399.9,541.2 -377,501.6 -354.1,541.2 		"/>
		<polyline class="st2" points="-399.9,544.6 -377,505 -354.1,544.6 		"/>
		<polyline class="st2" points="-399.9,548.1 -377,508.4 -354.1,548.1 		"/>
		<polyline class="st2" points="-399.9,551.5 -377,511.9 -354.1,551.5 		"/>
		<polyline class="st2" points="-399.9,554.9 -377,515.3 -354.1,554.9 		"/>
		<polyline class="st2" points="-399.9,558.3 -377,518.7 -354.1,558.3 		"/>
	</g>
</g>
</svg>
