<?xml version="1.0" encoding="utf-8"?>
<!-- Generator: Adobe Illustrator 19.0.0, SVG Export Plug-In . SVG Version: 6.00 Build 0)  -->
<svg version="1.1" id="Layer_1" xmlns="http://www.w3.org/2000/svg" xmlns:xlink="http://www.w3.org/1999/xlink" x="0px" y="0px"
	 viewBox="-449 451 124 124" style="enable-background:new -449 451 124 124;" xml:space="preserve">
<style type="text/css">
	.st0{fill:#57EBE4;}
	.st1{fill:none;stroke:#FFFFFF;stroke-width:3;stroke-miterlimit:10;}
	.st2{fill:#FFFFFF;}
	.st3{fill:none;stroke:#FFFFFF;stroke-width:4;stroke-miterlimit:10;}
	.st4{fill:none;stroke:#FFFFFF;stroke-width:2;stroke-linecap:round;stroke-miterlimit:10;}
	.st5{fill:none;stroke:#FFFFFF;stroke-linecap:round;stroke-miterlimit:10;}
</style>
<circle id="XMLID_1_" class="st0" cx="-387" cy="513" r="61"/>
<path class="st1" d="M-500,483.3"/>
<path class="st1" d="M-540,483.3"/>
<g>
	<polygon class="st2" points="-380.1,496.7 -361.5,478.1 -346.9,492.8 -368.5,514.4 -366.3,517.8 -341.3,492.8 -361.5,472.5 
		-382.4,493.3 	"/>
	<polygon class="st2" points="-391.1,536.9 -408.3,554.2 -422.9,539.6 -402.7,519.3 -404.9,515.9 -428.6,539.6 -408.3,559.8 
		-388.9,540.4 	"/>
</g>
<path class="st3" d="M-401.5,479.3l-11.9-5.3l-0.1,12.8C-405.3,486.5-401.5,479.3-401.5,479.3z"/>
<path class="st2" d="M-356.1,545.6c1.6-2.8,2-5.5,0.9-7.4c-0.1-0.1-0.1-0.3-0.2-0.4l-34.4-52.2c-0.5-0.7-1.1-1.2-1.7-1.6l-1.3,5.8
	L-356.1,545.6L-356.1,545.6z"/>
<path class="st2" d="M-364.3,550.3c-2.5,1.7-5.2,2.7-7.5,2.9c-1.7,0.1-3.1-0.2-3.6-0.9c0-0.1-0.1-0.1-0.1-0.2
	c-0.1-0.1-0.2-0.3-0.3-0.4c-0.1-0.1-0.2-0.2-0.2-0.3l-31.7-48.1l2.8,0.6c0.7,0.1,1.4,0,2-0.4c0,0,0,0,0,0c0.6-0.4,1-1,1.1-1.7l1.4-7
	l2,0.5l35.6,54c-0.3,0.2-0.6,0.4-0.9,0.7C-363.9,550-364.1,550.2-364.3,550.3 M-362.9,552.5c0.3-0.2,0.5-0.3,0.8-0.5
	c1-0.7,2-1.5,2.8-2.4l-37.4-56.8l-5.7-1.3l-2,9.7l-8.9-1.9c0.1,0.4,0.3,0.9,0.6,1.3l34.4,52.2c0.2,0.2,0.3,0.4,0.5,0.6
	c0.1,0.1,0.1,0.2,0.2,0.3C-375.3,557-368.8,556.4-362.9,552.5L-362.9,552.5z"/>
<line class="st4" x1="-365.7" y1="482.3" x2="-362.4" y2="485.6"/>
<line class="st5" x1="-370.9" y1="485.5" x2="-367.6" y2="488.8"/>
<line class="st4" x1="-373.5" y1="490.1" x2="-370.2" y2="493.4"/>
<line class="st5" x1="-378.1" y1="492.8" x2="-374.8" y2="496.1"/>
<line class="st4" x1="-405.2" y1="521.9" x2="-401.9" y2="525.2"/>
<line class="st5" x1="-410.5" y1="525.1" x2="-407.1" y2="528.4"/>
<line class="st4" x1="-413" y1="529.6" x2="-409.7" y2="533"/>
<line class="st5" x1="-417.7" y1="532.3" x2="-414.4" y2="535.6"/>
<line class="st4" x1="-420" y1="536.6" x2="-416.7" y2="539.9"/>
</svg>
