<?xml version="1.0" encoding="utf-8"?>
<!-- Generator: Adobe Illustrator 19.0.0, SVG Export Plug-In . SVG Version: 6.00 Build 0)  -->
<svg version="1.1" id="Layer_1" xmlns="http://www.w3.org/2000/svg" xmlns:xlink="http://www.w3.org/1999/xlink" x="0px" y="0px"
	 viewBox="-449 451 124 124" style="enable-background:new -449 451 124 124;" xml:space="preserve">
<style type="text/css">
	.st0{fill:#57EBE4;}
	.st1{fill:none;stroke:#FFFFFF;stroke-width:4;stroke-miterlimit:10;}
	.st2{fill:#FFFFFF;}
</style>
<circle id="XMLID_1_" class="st0" cx="-387" cy="513" r="61"/>
<g>
	<g>
		<path class="st1" d="M-387.2,531.6c-9.4,0-17,8.2-17,18.4h34.1C-370.1,539.8-377.8,531.6-387.2,531.6z"/>
		<g>
			<path class="st2" d="M-373.1,490.3c0.2,0,0.5,0.1,0.6,0.4l0.2,0.5c0.1,0.3,0,0.7-0.3,0.8l-7.2,2.9c-0.2,0.1-0.4,0.3-0.4,0.6v22.3
				c0,0,0,0.1,0,0.1c0,0.2,0,0.3,0,0.5c0,4.2-3.4,7.6-7.6,7.6c-4.2,0-7.6-3.4-7.6-7.6c0-4.2,3.4-7.6,7.6-7.6c2.4,0,4.5,1.1,5.9,2.7
				v-19.6h0l0-0.1l8.7-3.5C-373.2,490.3-373.2,490.3-373.1,490.3 M-373.1,487.7c-0.4,0-0.8,0.1-1.2,0.2l-8.7,3.5
				c-1,0.4-1.6,1.4-1.6,2.4c0,0,0,0,0,0v14.8c-1.1-0.4-2.2-0.6-3.3-0.6c-5.6,0-10.2,4.6-10.2,10.2s4.6,10.2,10.2,10.2
				s10.2-4.6,10.2-10.2c0-0.1,0-0.2,0-0.4c0-0.1,0-0.2,0-0.2v-21l6-2.4c1.6-0.6,2.4-2.5,1.8-4.1l-0.2-0.5
				C-370.6,488.5-371.8,487.7-373.1,487.7L-373.1,487.7z"/>
		</g>
	</g>
	<g>
		<path class="st1" d="M-419.1,519.9c-9.4,0-17,8.2-17,18.4h34.1C-402,528.1-409.7,519.9-419.1,519.9z"/>
		<g>
			<path class="st2" d="M-405,478.6c0.2,0,0.5,0.1,0.6,0.4l0.2,0.5c0.1,0.3,0,0.7-0.3,0.8l-7.2,2.9c-0.2,0.1-0.4,0.3-0.4,0.6V506
				c0,0,0,0.1,0,0.1c0,0.2,0,0.3,0,0.5c0,4.2-3.4,7.6-7.6,7.6c-4.2,0-7.6-3.4-7.6-7.6c0-4.2,3.4-7.6,7.6-7.6c2.4,0,4.5,1.1,5.9,2.7
				v-19.6h0l0-0.1l8.7-3.5C-405.1,478.6-405.1,478.6-405,478.6 M-405,476c-0.4,0-0.8,0.1-1.2,0.2l-8.7,3.5c-1,0.4-1.6,1.4-1.6,2.4
				c0,0,0,0,0,0V497c-1.1-0.4-2.2-0.6-3.3-0.6c-5.6,0-10.2,4.6-10.2,10.2c0,5.6,4.6,10.2,10.2,10.2s10.2-4.6,10.2-10.2
				c0-0.1,0-0.2,0-0.4c0-0.1,0-0.2,0-0.2v-21l6-2.4c1.6-0.6,2.4-2.5,1.8-4.1l-0.2-0.5C-402.5,476.8-403.7,476-405,476L-405,476z"/>
		</g>
	</g>
	<g>
		<path class="st1" d="M-355.3,519.9c-9.4,0-17,8.2-17,18.4h34.1C-338.3,528.1-345.9,519.9-355.3,519.9z"/>
		<g>
			<path class="st2" d="M-341.2,478.6c0.2,0,0.5,0.1,0.6,0.4l0.2,0.5c0.1,0.3,0,0.7-0.3,0.8l-7.2,2.9c-0.2,0.1-0.4,0.3-0.4,0.6V506
				c0,0,0,0.1,0,0.1c0,0.2,0,0.3,0,0.5c0,4.2-3.4,7.6-7.6,7.6c-4.2,0-7.6-3.4-7.6-7.6c0-4.2,3.4-7.6,7.6-7.6c2.4,0,4.5,1.1,5.9,2.7
				v-19.6h0l0-0.1l8.7-3.5C-341.4,478.6-341.3,478.6-341.2,478.6 M-341.2,476c-0.4,0-0.8,0.1-1.2,0.2l-8.7,3.5
				c-1,0.4-1.6,1.4-1.6,2.4c0,0,0,0,0,0V497c-1.1-0.4-2.2-0.6-3.3-0.6c-5.6,0-10.2,4.6-10.2,10.2c0,5.6,4.6,10.2,10.2,10.2
				s10.2-4.6,10.2-10.2c0-0.1,0-0.2,0-0.4c0-0.1,0-0.2,0-0.2v-21l6-2.4c1.6-0.6,2.4-2.5,1.8-4.1l-0.2-0.5
				C-338.8,476.8-339.9,476-341.2,476L-341.2,476z"/>
		</g>
	</g>
</g>
</svg>
