<?xml version="1.0" encoding="utf-8"?>
<!-- Generator: Adobe Illustrator 19.0.0, SVG Export Plug-In . SVG Version: 6.00 Build 0)  -->
<svg version="1.1" id="Layer_1" xmlns="http://www.w3.org/2000/svg" xmlns:xlink="http://www.w3.org/1999/xlink" x="0px" y="0px"
	 viewBox="-449 451 124 124" style="enable-background:new -449 451 124 124;" xml:space="preserve">
<style type="text/css">
	.st0{fill:#57EBE4;}
	.st1{fill:none;stroke:#FFFFFF;stroke-width:3;stroke-miterlimit:10;}
	.st2{fill:none;stroke:#FFFFFF;stroke-width:4;stroke-linecap:round;stroke-linejoin:round;stroke-miterlimit:10;}
	.st3{fill:none;stroke:#FFFFFF;stroke-width:2;stroke-linecap:round;stroke-linejoin:round;stroke-miterlimit:10;}
</style>
<circle id="XMLID_1_" class="st0" cx="-387" cy="513" r="61"/>
<path class="st1" d="M-500,483.3"/>
<path class="st1" d="M-540,483.3"/>
<g>
	<path class="st2" d="M-434.3,491.4c0,0,31.3-7.3,47.1,0v46.5c0,0-17.6-4.7-47.1-0.6V491.4z"/>
	<path class="st2" d="M-339.7,491.4c0,0-31.3-7.3-47.1,0v46.5c0,0,17.6-4.7,47.1-0.6V491.4z"/>
	<line class="st3" x1="-428.7" y1="499" x2="-397" y2="499"/>
	<line class="st3" x1="-428.7" y1="506.4" x2="-397" y2="506.4"/>
	<line class="st3" x1="-428.7" y1="513.5" x2="-397" y2="513.5"/>
	<line class="st3" x1="-428.7" y1="519.9" x2="-397" y2="519.9"/>
	<line class="st3" x1="-428.7" y1="525.7" x2="-397" y2="525.7"/>
	<line class="st3" x1="-379.1" y1="499" x2="-347.4" y2="499"/>
	<line class="st3" x1="-379.1" y1="506.4" x2="-347.4" y2="506.4"/>
	<line class="st3" x1="-379.1" y1="513.5" x2="-347.4" y2="513.5"/>
	<line class="st3" x1="-379.1" y1="519.9" x2="-347.4" y2="519.9"/>
	<line class="st3" x1="-379.1" y1="525.7" x2="-347.4" y2="525.7"/>
</g>
</svg>
