<?xml version="1.0" encoding="iso-8859-1"?>
<!-- Generator: Adobe Illustrator 19.0.0, SVG Export Plug-In . SVG Version: 6.00 Build 0)  -->
<svg version="1.1" id="Layer_1" xmlns="http://www.w3.org/2000/svg" xmlns:xlink="http://www.w3.org/1999/xlink" x="0px" y="0px"
	 viewBox="-449 189 124 124" style="enable-background:new -449 189 124 124;" xml:space="preserve">
<circle id="XMLID_1_" style="fill:#57EBE4;" cx="-387" cy="251" r="61"/>
<path style="fill:none;stroke:#FFFFFF;stroke-width:4;stroke-miterlimit:10;" d="M-347.977,242.725
	c0-23.063-17.471-41.758-39.023-41.758s-39.023,18.696-39.023,41.758c0,12.505,9.143,23.718,17.282,31.371v14.529
	c0,7.821,2.399,14.219,10.219,14.219h23.045c7.82,0,10.219-6.399,10.219-14.219v-14.529
	C-357.12,266.443-347.977,255.23-347.977,242.725z"/>
<ellipse style="fill:none;stroke:#FFFFFF;stroke-width:3;stroke-miterlimit:10;" cx="-401.063" cy="240.537" rx="6.929" ry="17.323"/>
<ellipse style="fill:none;stroke:#FFFFFF;stroke-width:3;stroke-miterlimit:10;" cx="-374.804" cy="240.537" rx="6.929" ry="17.323"/>
<path style="fill:#FFFFFF;" d="M-398.533,302.844h-0.683c-1.016,0-1.847-0.831-1.847-1.847v-15.396c0-1.016,0.831-1.847,1.847-1.847
	h0.683c1.016,0,1.847,0.831,1.847,1.847v15.396C-396.686,302.013-397.517,302.844-398.533,302.844z"/>
<path style="fill:#FFFFFF;" d="M-389.847,302.844h-0.683c-1.016,0-1.847-0.831-1.847-1.847v-15.396c0-1.016,0.831-1.847,1.847-1.847
	h0.683c1.016,0,1.847,0.831,1.847,1.847v15.396C-388,302.013-388.831,302.844-389.847,302.844z"/>
<path style="fill:#FFFFFF;" d="M-382.392,302.844h-0.683c-1.016,0-1.847-0.831-1.847-1.847v-15.396c0-1.016,0.831-1.847,1.847-1.847
	h0.683c1.016,0,1.847,0.831,1.847,1.847v15.396C-380.545,302.013-381.376,302.844-382.392,302.844z"/>
<path style="fill:#FFFFFF;" d="M-374.462,302.844h-0.683c-1.016,0-1.847-0.831-1.847-1.847v-15.396c0-1.016,0.831-1.847,1.847-1.847
	h0.683c1.016,0,1.847,0.831,1.847,1.847v15.396C-372.616,302.013-373.447,302.844-374.462,302.844z"/>
</svg>
