<?xml version="1.0" encoding="utf-8"?>
<!-- Generator: Adobe Illustrator 19.0.0, SVG Export Plug-In . SVG Version: 6.00 Build 0)  -->
<svg version="1.1" id="Layer_1" xmlns="http://www.w3.org/2000/svg" xmlns:xlink="http://www.w3.org/1999/xlink" x="0px" y="0px"
	 viewBox="-449 451 124 124" style="enable-background:new -449 451 124 124;" xml:space="preserve">
<style type="text/css">
	.st0{fill:#57EBE4;}
	.st1{fill:none;stroke:#FFFFFF;stroke-width:3;stroke-miterlimit:10;}
	.st2{fill:none;stroke:#FFFFFF;stroke-width:4;stroke-miterlimit:10;}
</style>
<circle id="XMLID_1_" class="st0" cx="-387" cy="513" r="61"/>
<path class="st1" d="M-500,483.3"/>
<path class="st1" d="M-540,483.3"/>
<path class="st2" d="M-353.2,491.9h-1.2h-11.4c0,0,0,0,0,0l-3.7-11.2c-0.7-0.5-1.3-0.9-2-1.5h-30.9c-0.6,0.5-1.1,0.8-1.7,1.2
	l-3.8,11.4c0,0,0,0,0,0h-17.3c-2.1,0-3.8,1.7-3.8,3.8V543c0,2.1,1.7,3.8,3.8,3.8h76.9c2.1,0,3.8-1.7,3.8-3.8v-42.7
	C-344.8,492.1-346.6,491.7-353.2,491.9z M-387,538.3c-15.5,0-27-16.6-17.9-33c1.4-2.5,3.5-4.6,5.9-6c16.4-9.3,33,2.3,33,17.8
	C-365.9,528.9-375.3,538.3-387,538.3z"/>
</svg>
