<?xml version="1.0" encoding="iso-8859-1"?>
<!-- Generator: Adobe Illustrator 19.0.0, SVG Export Plug-In . SVG Version: 6.00 Build 0)  -->
<svg version="1.1" id="Layer_1" xmlns="http://www.w3.org/2000/svg" xmlns:xlink="http://www.w3.org/1999/xlink" x="0px" y="0px"
	 viewBox="-449 189 124 124" style="enable-background:new -449 189 124 124;" xml:space="preserve">
<circle id="XMLID_1_" style="fill:#57EBE4;" cx="-387" cy="251" r="61"/>
<g>
	<path style="fill:none;stroke:#FFFFFF;stroke-width:4;stroke-miterlimit:10;" d="M-387,268.524
		c-14.817,0-26.829,12.973-26.829,28.976h53.659C-360.171,281.497-372.183,268.524-387,268.524z"/>
	<g>
		<path style="fill:#FFFFFF;" d="M-364.797,203.5c0.38,0,0.738,0.228,0.887,0.603l0.324,0.819c0.194,0.49-0.046,1.044-0.535,1.237
			l-11.363,4.5c-0.364,0.144-0.602,0.495-0.602,0.886v35.159c0,0.068-0.025,0.127-0.038,0.191c0.016,0.253,0.038,0.505,0.038,0.763
			c0,6.639-5.382,12.021-12.021,12.021c-6.639,0-12.021-5.382-12.021-12.021c0-6.639,5.382-12.021,12.021-12.021
			c3.712,0,7.028,1.684,9.233,4.328v-30.811h0.059l-0.059-0.15l13.727-5.435C-365.033,203.522-364.914,203.5-364.797,203.5
			 M-364.797,199.5c-0.627,0-1.24,0.117-1.824,0.348l-13.727,5.435c-1.604,0.635-2.569,2.193-2.527,3.823c0,0.015,0,0.031,0,0.046
			v23.36c-1.663-0.574-3.428-0.876-5.233-0.876c-8.834,0-16.021,7.187-16.021,16.021s7.187,16.021,16.021,16.021
			c8.834,0,16.021-7.187,16.021-16.021c0-0.19-0.007-0.378-0.017-0.565c0.011-0.121,0.017-0.25,0.017-0.388v-33.088l9.438-3.737
			c2.54-1.006,3.787-3.89,2.782-6.429l-0.324-0.819C-360.945,200.729-362.752,199.5-364.797,199.5L-364.797,199.5z"/>
	</g>
</g>
</svg>
