<?xml version="1.0" encoding="iso-8859-1"?>
<!-- Generator: Adobe Illustrator 19.0.0, SVG Export Plug-In . SVG Version: 6.00 Build 0)  -->
<svg version="1.1" id="Layer_1" xmlns="http://www.w3.org/2000/svg" xmlns:xlink="http://www.w3.org/1999/xlink" x="0px" y="0px"
	 viewBox="0 0 192 192" style="enable-background:new 0 0 192 192;" xml:space="preserve">
<path style="fill:#24163F;" d="M96,1.03C43.633,1.03,1.03,43.633,1.03,96c0,52.366,42.604,94.97,94.97,94.97
	c52.366,0,94.97-42.604,94.97-94.97C190.97,43.633,148.366,1.03,96,1.03z"/>
<g>
	<path style="fill:#FFFFFF;" d="M94.042,17.014c-5.378,1.44-9.247,4.31-10.243,8.095c-0.08,0.28-0.172,0.542-0.233,0.836
		L61.546,132.863c-0.297,1.429-0.219,2.818,0.132,4.011l8.833-5.589L94.042,17.014L94.042,17.014z"/>
	<path style="fill:#FFFFFF;" d="M109.936,21.344c5.137,1.058,9.666,3.084,12.754,5.706c2.312,1.963,3.509,4.023,3.307,5.641
		c-0.04,0.138-0.078,0.278-0.113,0.422c-0.065,0.275-0.105,0.555-0.119,0.837c-0.01,0.208-0.04,0.442-0.087,0.696l-20.296,98.552
		l-2.756-4.278c-0.668-1.037-1.724-1.764-2.931-2.019c-0.007-0.001-0.014-0.003-0.021-0.004c-1.201-0.247-2.452-0.007-3.476,0.669
		l-10.461,6.9l-1.896-3.049l22.777-110.599c0.637,0.071,1.268,0.159,1.889,0.262C108.991,21.159,109.466,21.247,109.936,21.344
		 M110.868,16.818c-0.527-0.109-1.06-0.208-1.599-0.298c-2.182-0.363-4.314-0.531-6.368-0.555L78.945,132.29l5.375,8.646
		l14.423-9.513l8.613,13.369c0.368-0.703,0.663-1.485,0.837-2.33l22.019-106.918c0.088-0.46,0.147-0.917,0.169-1.366
		c0.048-0.201,0.118-0.384,0.153-0.588C131.688,26.621,122.993,19.315,110.868,16.818L110.868,16.818z"/>
	<path style="fill:none;stroke:#FFFFFF;stroke-width:4;stroke-miterlimit:10;" d="M68.237,154.872l8.16,21.162l15.844-15.642
		C81.778,150.692,68.237,154.872,68.237,154.872z"/>
</g>
</svg>
