<?xml version="1.0" encoding="iso-8859-1"?>
<!-- Generator: Adobe Illustrator 19.0.0, SVG Export Plug-In . SVG Version: 6.00 Build 0)  -->
<svg version="1.1" id="Layer_1" xmlns="http://www.w3.org/2000/svg" xmlns:xlink="http://www.w3.org/1999/xlink" x="0px" y="0px"
	 viewBox="0 0 192 192" style="enable-background:new 0 0 192 192;" xml:space="preserve">
<path style="fill:#24163F;" d="M96,1.03C43.633,1.03,1.03,43.633,1.03,96c0,52.366,42.604,94.97,94.97,94.97
	c52.366,0,94.97-42.604,94.97-94.97C190.97,43.633,148.366,1.03,96,1.03z"/>
<g id="_x31__12_">
	<g>
		<path style="fill:#FFFFFF;" d="M124,567h-16c-2.209,0-4,1.791-4,4v24c0,2.209,1.791,4,4,4h16c2.209,0,4-1.791,4-4v-24
			C128,568.791,126.209,567,124,567z M126,595c0,1.104-0.896,2-2,2h-8h-8c-1.104,0-2-0.896-2-2v-24c0-1.104,0.896-2,2-2h16
			c1.104,0,2,0.896,2,2V595z M116,571c-2.761,0-5,2.238-5,5s2.239,5,5,5s5-2.238,5-5S118.761,571,116,571z M116,579.008
			c-1.661,0-3.007-1.347-3.007-3.008c0-1.661,1.346-3.008,3.007-3.008s3.007,1.347,3.007,3.008
			C119.007,577.661,117.661,579.008,116,579.008z M123,590c0-3.866-3.134-7-7-7s-7,3.134-7,7s3.134,7,7,7S123,593.866,123,590z
			 M116,595c-2.761,0-5-2.238-5-5s2.239-5,5-5s5,2.238,5,5S118.761,595,116,595z"/>
	</g>
</g>
<path style="fill:none;stroke:#FFFFFF;stroke-width:4;stroke-miterlimit:10;" d="M144.238,104.8c-7.517,0-14.294,3.149-19.099,8.194
	c-3.755-4.121-7.195-8.252-9.618-11.888c-4.358-6.537-8.852-17.267-12.395-26.815c11.24-3.021,19.517-13.278,19.517-25.473
	c0-14.569-11.811-26.38-26.38-26.38c-14.569,0-26.38,11.811-26.38,26.38c0,12.394,8.549,22.786,20.07,25.615
	c-2.556,7.409-5.716,15.823-9.175,23.373c-2.564,5.596-6.851,11.357-11.499,16.612c-4.78-6.731-12.632-11.127-21.516-11.127
	c-14.569,0-26.38,11.811-26.38,26.38s11.811,26.38,26.38,26.38s26.38-11.811,26.38-26.38c0-0.395-0.013-0.787-0.03-1.178
	c7.78-1.352,16.387-2.431,24.51-2.561c6.605-0.106,13.265,0.582,19.487,1.643c-0.161,1.179-0.251,2.38-0.251,3.604
	c0,14.569,11.811,26.38,26.38,26.38s26.38-11.811,26.38-26.38C170.618,116.611,158.807,104.8,144.238,104.8z"/>
</svg>
