<?xml version="1.0" encoding="utf-8"?>
<!-- Generator: Adobe Illustrator 19.2.1, SVG Export Plug-In . SVG Version: 6.00 Build 0)  -->
<svg version="1.1" id="Layer_1" xmlns="http://www.w3.org/2000/svg" xmlns:xlink="http://www.w3.org/1999/xlink" x="0px" y="0px"
	 viewBox="0 0 1000 1000" style="enable-background:new 0 0 1000 1000;" xml:space="preserve">
<style type="text/css">
	.st0{fill:none;stroke:#FFFFFF;stroke-width:15;stroke-miterlimit:10;}
	.st1{fill:#FFFFFF;}
</style>
<path class="st0" d="M496.2,26.9c-262.3,0-475,212.7-475,475s212.7,475,475,475s475-212.7,475-475S758.5,26.9,496.2,26.9z"/>
<path class="st1" d="M744,254.3h-78.1v52.5c0,3.4-2.8,6.2-6.2,6.2s-6.2-2.8-6.2-6.2v-52.5H337.3v52.5c0,3.4-2.8,6.2-6.2,6.2
	c-3.4,0-6.2-2.8-6.2-6.2v-52.5h-76.4c-30.4,0-55,24.6-55,55v385.3c0,30.4,24.6,55,55,55h495.4c30.4,0,55-24.6,55-55h0.1V309.3
	C799,278.9,774.3,254.3,744,254.3z M331.1,667.1c-15.3,0-27.6-12.4-27.6-27.6s12.4-27.5,27.6-27.5c15.2,0,27.5,12.4,27.5,27.5
	C358.6,654.8,346.4,667.1,331.1,667.1z M331.1,557c-15.3,0-27.6-12.4-27.6-27.5c0-15.3,12.4-27.6,27.6-27.6
	c15.2,0,27.5,12.3,27.5,27.6C358.6,544.7,346.4,557,331.1,557z M441.2,667.1c-15.2,0-27.5-12.4-27.5-27.6s12.4-27.5,27.5-27.5
	c15.2,0,27.5,12.4,27.6,27.5C468.8,654.8,456.4,667.1,441.2,667.1z M441.2,557c-15.2,0-27.5-12.4-27.5-27.5
	c0-15.3,12.4-27.6,27.5-27.6c15.2,0,27.5,12.3,27.6,27.6C468.8,544.7,456.4,557,441.2,557z M551.2,667.1
	c-15.3,0-27.6-12.4-27.6-27.6S536,612,551.2,612s27.5,12.4,27.5,27.5C578.7,654.8,566.5,667.1,551.2,667.1z M551.2,557
	c-15.3,0-27.6-12.4-27.6-27.5c0-15.3,12.4-27.6,27.6-27.6s27.5,12.3,27.5,27.6C578.7,544.7,566.5,557,551.2,557z M661.3,667.1
	c-15.2,0-27.5-12.4-27.5-27.6s12.4-27.5,27.5-27.5c15.2,0,27.6,12.4,27.6,27.5C688.9,654.8,676.5,667.1,661.3,667.1z M661.3,557
	c-15.2,0-27.5-12.4-27.5-27.5c0-15.3,12.4-27.6,27.5-27.6c15.2,0,27.6,12.3,27.6,27.6C688.9,544.7,676.5,557,661.3,557z
	 M796.4,420.8H196c-0.7,0-1.3-0.6-1.3-1.3s0.6-1.3,1.3-1.3h600.4c0.7,0,1.3,0.6,1.3,1.3C797.7,420.2,797.1,420.8,796.4,420.8z"/>
</svg>
