<?xml version="1.0" encoding="utf-8"?>
<!-- Generator: Adobe Illustrator 19.0.0, SVG Export Plug-In . SVG Version: 6.00 Build 0)  -->
<svg version="1.1" id="Layer_1" xmlns="http://www.w3.org/2000/svg" xmlns:xlink="http://www.w3.org/1999/xlink" x="0px" y="0px"
	 viewBox="0 0 1024 1024" style="enable-background:new 0 0 1024 1024;" xml:space="preserve">
<style type="text/css">
	.st0{fill:#FFFFFF;}
	.st1{fill:none;stroke:#000000;stroke-width:2;stroke-linecap:round;stroke-linejoin:round;stroke-miterlimit:10;}
</style>
<g>
	<g id="XMLID_11_">
		<path class="st0" d="M1543.3,3366.9c-8.9-1.3-15.4-5.2-16.6-14.4c-1.4-10.2,5.8-17.7,17.2-17.8c25.4-0.2,50.8-0.1,76.3-0.1
			c27.3,0,54.5-0.1,81.8,0c14,0.1,22.7,12.2,16,23c-2.7,4.4-8.3,7.1-14.2,11.8c0,15.8,0,34,0,52.2c0,29.4-0.1,58.7,0.1,88.1
			c0,3.5,1.1,7.3,2.8,10.3c34,59.3,68.3,118.4,102.4,177.6c10.6,18.4,17.1,38,13.6,59.6c-4.2,26.1-24.3,45.7-54.3,51.1
			c-14.6,2.6-29.9,2.7-44.8,2.8c-73.3,0.3-146.5,0.1-219.8,0.1c-16.8,0-33.2-2.5-48.2-10.8c-28.7-15.9-39.6-46.6-28.2-80
			c2.9-8.4,6.9-16.6,11.4-24.4c33.4-58.3,67.2-116.4,100.6-174.7c2.3-4,3.6-9,3.6-13.6c0.3-44.4,0.2-88.8,0.2-133.1
			C1543.3,3372.2,1543.3,3369.7,1543.3,3366.9z M1575.1,3366.7c-0.1,2.3-0.3,3.9-0.3,5.5c0,47.6,0.2,95.2-0.1,142.8
			c0,5.2-1.6,11-4.2,15.5c-35.1,61.3-70.5,122.5-105.7,183.8c-3.6,6.3-6.7,13.3-8.6,20.3c-3.6,13.3-2.4,26.3,9.6,35.1
			c13.7,10,29.8,10.3,46.9,9.7c-3.2-4.1-5.8-7-7.9-10.3c-9.5-14.6-12.1-29.6-2.9-45.6c21.7-37.3,43.2-74.8,64.7-112.2
			c2.1-3.6,4.3-5.1,8.6-5.1c44.8,0.2,89.7,0.1,134.5,0c2.9,0,5.8,0,9.5,0c-1-2.3-1.5-3.5-2.2-4.7c-13.5-23.4-27.2-46.7-40.3-70.3
			c-2.6-4.8-4.3-10.7-4.4-16.1c-0.3-46.7-0.2-93.4-0.2-140.1c0-2.7-0.2-5.4-0.4-8.4C1639.4,3366.7,1607.6,3366.7,1575.1,3366.7z"/>
	</g>
</g>
<g>
	<path class="st1" d="M977.8,403.8"/>
	<path class="st1" d="M46.2,403.8"/>
	<path class="st0" d="M893.2,149.7H773v80.8c0,5.2-4.3,9.5-9.5,9.5s-9.5-4.3-9.5-9.5v-80.8H267.4v80.8c0,5.2-4.3,9.5-9.5,9.5h0
		c-5.2,0-9.5-4.3-9.5-9.5v-80.8H130.8c-46.8,0-84.7,37.9-84.7,84.7v592.9c0,46.8,37.9,84.7,84.7,84.7h762.3
		c46.8,0,84.7-37.9,84.7-84.7V234.4C977.8,187.6,939.9,149.7,893.2,149.7z M257.9,785c-23.4,0-42.4-19-42.4-42.4
		c0-23.4,19-42.3,42.4-42.3c23.4,0,42.3,19,42.3,42.3C300.2,766,281.3,785,257.9,785z M257.9,615.5c-23.4,0-42.4-19-42.4-42.3
		c0-23.4,19-42.4,42.4-42.4c23.4,0,42.3,19,42.3,42.4C300.2,596.6,281.3,615.5,257.9,615.5z M427.3,785c-23.4,0-42.3-19-42.3-42.4
		c0-23.4,19-42.3,42.3-42.3c23.4,0,42.4,19,42.4,42.3C469.7,766,450.7,785,427.3,785z M427.3,615.5c-23.4,0-42.3-19-42.3-42.3
		c0-23.4,19-42.4,42.3-42.4c23.4,0,42.4,19,42.4,42.4C469.7,596.6,450.7,615.5,427.3,615.5z M596.7,785c-23.4,0-42.4-19-42.4-42.4
		c0-23.4,19-42.3,42.4-42.3c23.4,0,42.3,19,42.3,42.3C639,766,620.1,785,596.7,785z M596.7,615.5c-23.4,0-42.4-19-42.4-42.3
		c0-23.4,19-42.4,42.4-42.4c23.4,0,42.3,19,42.3,42.4C639,596.6,620.1,615.5,596.7,615.5z M766.1,785c-23.4,0-42.3-19-42.3-42.4
		c0-23.4,19-42.3,42.3-42.3c23.4,0,42.4,19,42.4,42.3C808.5,766,789.5,785,766.1,785z M766.1,615.5c-23.4,0-42.3-19-42.3-42.3
		c0-23.4,19-42.4,42.3-42.4c23.4,0,42.4,19,42.4,42.4C808.5,596.6,789.5,615.5,766.1,615.5z M974,406H50c-1.1,0-2-0.9-2-2s0.9-2,2-2
		h924c1.1,0,2,0.9,2,2S975.1,406,974,406z"/>
</g>
</svg>
