<?xml version="1.0" encoding="utf-8"?>
<!-- Generator: Adobe Illustrator 19.1.0, SVG Export Plug-In . SVG Version: 6.00 Build 0)  -->
<svg version="1.1" id="Layer_1" xmlns="http://www.w3.org/2000/svg" xmlns:xlink="http://www.w3.org/1999/xlink" x="0px" y="0px"
	 viewBox="0 0 1000 1000" style="enable-background:new 0 0 1000 1000;" xml:space="preserve">
<style type="text/css">
	.st0{fill:#FFFFFF;}
	.st1{fill:none;stroke:#FFFFFF;stroke-width:6;stroke-miterlimit:10;}
	.st2{fill:#FFFFFF;stroke:#FFFFFF;stroke-width:6;stroke-miterlimit:10;}
</style>
<g>
	<path class="st0" d="M551.2,612c-15.2,0-27.6,12.3-27.6,27.5c0,15.2,12.3,27.6,27.6,27.6s27.5-12.3,27.5-27.6
		C578.7,624.4,566.4,612,551.2,612z"/>
	<path class="st0" d="M551.2,501.9c-15.2,0-27.6,12.3-27.6,27.6c0,15.1,12.3,27.5,27.6,27.5s27.5-12.3,27.5-27.5
		C578.7,514.2,566.4,501.9,551.2,501.9z"/>
	<path class="st0" d="M441.2,612c-15.1,0-27.5,12.3-27.5,27.5c0,15.2,12.3,27.6,27.5,27.6s27.6-12.3,27.6-27.6
		C468.7,624.4,456.4,612,441.2,612z"/>
	<path class="st0" d="M331.1,501.9c-15.2,0-27.6,12.3-27.6,27.6c0,15.1,12.3,27.5,27.6,27.5s27.5-12.3,27.5-27.5
		C358.6,514.2,346.3,501.9,331.1,501.9z"/>
	<path class="st0" d="M331.1,612c-15.2,0-27.6,12.3-27.6,27.5c0,15.2,12.3,27.6,27.6,27.6s27.5-12.3,27.5-27.6
		C358.6,624.4,346.3,612,331.1,612z"/>
	<path class="st0" d="M441.2,501.9c-15.1,0-27.5,12.3-27.5,27.6c0,15.1,12.3,27.5,27.5,27.5s27.6-12.3,27.6-27.5
		C468.7,514.2,456.4,501.9,441.2,501.9z"/>
	<path class="st0" d="M194.7,419.5c0,0.7,0.6,1.3,1.3,1.3h600.4c0.7,0,1.3-0.6,1.3-1.3c0-0.7-0.6-1.3-1.3-1.3H196
		C195.3,418.2,194.7,418.8,194.7,419.5z"/>
	<path class="st0" d="M496.2,26.9c-262.3,0-475,212.7-475,475s212.7,475,475,475s475-212.7,475-475S758.5,26.9,496.2,26.9z
		 M798.9,694.6c0,30.4-24.6,55-55,55H248.5c-30.4,0-55-24.6-55-55V309.3c0-30.4,24.6-55,55-55h76.4v52.5c0,3.4,2.8,6.2,6.2,6.2
		c3.4,0,6.2-2.8,6.2-6.2v-52.5h316.2v52.5c0,3.4,2.8,6.2,6.2,6.2c3.4,0,6.2-2.8,6.2-6.2v-52.5h78.1c30.3,0,55,24.6,55,55V694.6z"/>
	<path class="st0" d="M661.3,501.9c-15.1,0-27.5,12.3-27.5,27.6c0,15.1,12.3,27.5,27.5,27.5s27.6-12.3,27.6-27.5
		C688.9,514.2,676.5,501.9,661.3,501.9z"/>
	<path class="st0" d="M661.3,612c-15.1,0-27.5,12.3-27.5,27.5c0,15.2,12.3,27.6,27.5,27.6s27.6-12.3,27.6-27.6
		C688.9,624.4,676.5,612,661.3,612z"/>
</g>
</svg>
