<?xml version="1.0" encoding="iso-8859-1"?>
<!-- Generator: Adobe Illustrator 19.0.0, SVG Export Plug-In . SVG Version: 6.00 Build 0)  -->
<svg version="1.1" id="Layer_1" xmlns="http://www.w3.org/2000/svg" xmlns:xlink="http://www.w3.org/1999/xlink" x="0px" y="0px"
	 viewBox="0 0 192 192" style="enable-background:new 0 0 192 192;" xml:space="preserve">
<path style="fill:#24163F;" d="M96,1.03C43.634,1.03,1.03,43.634,1.03,96c0,52.366,42.604,94.97,94.97,94.97
	c52.366,0,94.97-42.604,94.97-94.97C190.97,43.634,148.366,1.03,96,1.03z"/>
<g id="_x31__12_">
	<g>
		<path style="fill:#FFFFFF;" d="M124,567h-16c-2.209,0-4,1.791-4,4v24c0,2.209,1.791,4,4,4h16c2.209,0,4-1.791,4-4v-24
			C128,568.791,126.209,567,124,567z M126,595c0,1.104-0.896,2-2,2h-8h-8c-1.104,0-2-0.896-2-2v-24c0-1.104,0.896-2,2-2h16
			c1.104,0,2,0.896,2,2V595z M116,571c-2.761,0-5,2.238-5,5s2.239,5,5,5s5-2.238,5-5S118.761,571,116,571z M116,579.008
			c-1.661,0-3.007-1.347-3.007-3.008c0-1.661,1.346-3.008,3.007-3.008s3.007,1.347,3.007,3.008
			C119.007,577.661,117.661,579.008,116,579.008z M123,590c0-3.866-3.134-7-7-7s-7,3.134-7,7s3.134,7,7,7S123,593.866,123,590z
			 M116,595c-2.761,0-5-2.238-5-5s2.239-5,5-5s5,2.238,5,5S118.761,595,116,595z"/>
	</g>
</g>
<g>
	<g>
		<path style="fill:#FFFFFF;" d="M113.833,91.229c0-7.676-1.745-14.95-4.854-21.453c-1.655,0.835-3.253,1.767-4.776,2.802
			c2.638,5.675,4.121,11.992,4.121,18.651c0,14.689-7.174,27.73-18.197,35.818c0.839,1.648,1.776,3.237,2.814,4.753
			C105.578,122.735,113.833,107.932,113.833,91.229z"/>
		<path style="fill:#FFFFFF;" d="M82.194,131.685c-5.579,2.531-11.763,3.952-18.277,3.952c-24.487,0-44.408-19.922-44.408-44.408
			S39.43,46.82,63.916,46.82c14.545,0,27.478,7.029,35.584,17.868c1.531-1.018,3.121-1.951,4.76-2.805
			c-9.085-12.456-23.781-20.571-40.344-20.571C36.392,41.312,14,63.705,14,91.229s22.392,49.916,49.916,49.916
			c7.536,0,14.683-1.688,21.095-4.692C83.989,134.921,83.052,133.327,82.194,131.685z"/>
	</g>
	<g>
		<path style="fill:#FFFFFF;" d="M128.084,157.72c-27.524,0-49.916-22.392-49.916-49.916s22.392-49.916,49.916-49.916
			S178,80.279,178,107.803S155.608,157.72,128.084,157.72z M128.084,63.395c-24.487,0-44.408,19.922-44.408,44.408
			s19.922,44.408,44.408,44.408s44.408-19.922,44.408-44.408S152.57,63.395,128.084,63.395z"/>
	</g>
	<g>
		<path style="fill:#FFFFFF;" d="M46.332,45.773l-14.545-2.748l1.993-12.361l15.195-4.356l8.238,9.429L46.332,45.773z M35.213,40.62
			l10.193,1.926l7.625-7.034l-5.062-5.794l-11.532,3.305L35.213,40.62z"/>
	</g>
</g>
</svg>
