<?xml version="1.0" encoding="iso-8859-1"?>
<!-- Generator: Adobe Illustrator 19.0.0, SVG Export Plug-In . SVG Version: 6.00 Build 0)  -->
<svg version="1.1" id="Layer_1" xmlns="http://www.w3.org/2000/svg" xmlns:xlink="http://www.w3.org/1999/xlink" x="0px" y="0px"
	 viewBox="0 0 192 192" style="enable-background:new 0 0 192 192;" xml:space="preserve">
<path style="fill:#24163F;" d="M95.229,1.03C42.863,1.03,0.259,43.633,0.259,96c0,52.366,42.604,94.97,94.97,94.97
	c52.366,0,94.97-42.604,94.97-94.97C190.199,43.633,147.595,1.03,95.229,1.03z"/>
<g id="_x31__12_">
	<g>
		<path style="fill:#FFFFFF;" d="M124,567h-16c-2.209,0-4,1.791-4,4v24c0,2.209,1.791,4,4,4h16c2.209,0,4-1.791,4-4v-24
			C128,568.791,126.209,567,124,567z M126,595c0,1.104-0.896,2-2,2h-8h-8c-1.104,0-2-0.896-2-2v-24c0-1.104,0.896-2,2-2h16
			c1.104,0,2,0.896,2,2V595z M116,571c-2.761,0-5,2.238-5,5s2.239,5,5,5s5-2.238,5-5S118.761,571,116,571z M116,579.008
			c-1.661,0-3.007-1.347-3.007-3.008c0-1.661,1.346-3.008,3.007-3.008s3.007,1.347,3.007,3.008
			C119.007,577.661,117.661,579.008,116,579.008z M123,590c0-3.866-3.134-7-7-7s-7,3.134-7,7s3.134,7,7,7S123,593.866,123,590z
			 M116,595c-2.761,0-5-2.238-5-5s2.239-5,5-5s5,2.238,5,5S118.761,595,116,595z"/>
	</g>
</g>
<g>
	
		<polygon style="fill:none;stroke:#FFFFFF;stroke-width:4;stroke-linecap:round;stroke-linejoin:round;stroke-miterlimit:10;" points="
		149.918,44.753 94,99.506 38.082,44.753 	"/>
	
		<line style="fill:none;stroke:#FFFFFF;stroke-width:2;stroke-linecap:round;stroke-linejoin:round;stroke-miterlimit:10;" x1="54.711" y1="61.035" x2="133.289" y2="61.035"/>
	
		<circle style="fill:none;stroke:#FFFFFF;stroke-width:2;stroke-linecap:round;stroke-linejoin:round;stroke-miterlimit:10;" cx="102.501" cy="74.75" r="5.999"/>
	
		<line style="fill:none;stroke:#FFFFFF;stroke-width:2;stroke-linecap:round;stroke-linejoin:round;stroke-miterlimit:10;" x1="138.5" y1="25.75" x2="96.503" y2="82.25"/>
	
		<polyline style="fill:none;stroke:#FFFFFF;stroke-width:4;stroke-linecap:round;stroke-linejoin:round;stroke-miterlimit:10;" points="
		94,99.506 94,154.75 74,166.25 113.5,166.25 94,154.75 	"/>
</g>
</svg>
