<?xml version="1.0" encoding="iso-8859-1"?>
<!-- Generator: Adobe Illustrator 19.0.0, SVG Export Plug-In . SVG Version: 6.00 Build 0)  -->
<svg version="1.1" id="Layer_1" xmlns="http://www.w3.org/2000/svg" xmlns:xlink="http://www.w3.org/1999/xlink" x="0px" y="0px"
	 viewBox="0 0 192 192" style="enable-background:new 0 0 192 192;" xml:space="preserve">
<path style="fill:#24163F;" d="M96,1.03C43.633,1.03,1.03,43.633,1.03,96c0,52.366,42.604,94.97,94.97,94.97
	c52.366,0,94.97-42.604,94.97-94.97C190.97,43.633,148.366,1.03,96,1.03z"/>
<g id="_x39__13_">
	<g>
		<path style="fill:none;stroke:#FFFFFF;stroke-width:4;stroke-miterlimit:10;" d="M142.503,54.03C138.026,34.602,118.91,20,96,20
			c-22.91,0-42.027,14.602-46.503,34.03c-3.382,1.456-5.747,4.81-5.747,8.72v9.5c0,5.246,4.254,9.5,9.5,9.5h0.246
			c3.344,6.021,8.201,11.24,14.143,15.238L77,162.5c0,5.246,4.254,9.5,9.5,9.5h19c5.246,0,9.5-4.254,9.5-9.5l9.361-65.512
			c5.942-3.998,10.799-9.217,14.143-15.238h0.246c5.246,0,9.5-4.254,9.5-9.5v-9.5C148.25,58.84,145.885,55.486,142.503,54.03z
			 M105.5,153c-1.039,4.926-1.253,9.5-4.75,9.5h-9.5c-3.497,0-3.414-4.722-4.75-9.5l-9.059-50.891
			C83.142,104.294,89.413,105.5,96,105.5c6.587,0,12.858-1.206,18.559-3.391L105.5,153z M96,96c-12.905,0-24.293-5.641-31.162-14.25
			h62.325C120.293,90.359,108.905,96,96,96z M59.595,53.25C64.267,39.52,78.791,29.5,96,29.5s31.733,10.02,36.404,23.75H59.595z"/>
	</g>
</g>
</svg>
