<?xml version="1.0" encoding="utf-8"?>
<!-- Generator: Adobe Illustrator 19.0.0, SVG Export Plug-In . SVG Version: 6.00 Build 0)  -->
<svg version="1.0" id="Layer_1" xmlns="http://www.w3.org/2000/svg" xmlns:xlink="http://www.w3.org/1999/xlink" x="0px" y="0px"
	 viewBox="0 0 124 124" enable-background="new 0 0 124 124" xml:space="preserve">
<g>
	<path fill="#F97508" d="M62,123.5C28.089,123.5,0.5,95.911,0.5,62S28.089,0.5,62,0.5s61.5,27.589,61.5,61.5S95.911,123.5,62,123.5z
		 M62,4.5C30.294,4.5,4.5,30.294,4.5,62c0,31.706,25.794,57.5,57.5,57.5c31.706,0,57.5-25.794,57.5-57.5
		C119.5,30.294,93.706,4.5,62,4.5z"/>
</g>
<circle fill="#F97508" cx="62" cy="62" r="9.224"/>
<rect x="58.641" y="75.813" fill="#F97508" width="6.718" height="37.606"/>
<rect x="58.641" y="9.826" fill="#F97508" width="6.718" height="37.606"/>
<rect x="10.204" y="58.264" fill="#F97508" width="37.606" height="6.718"/>
<rect x="76.191" y="58.264" fill="#F97508" width="37.606" height="6.718"/>
</svg>
