<?xml version="1.0" encoding="iso-8859-1"?>
<!-- Generator: Adobe Illustrator 19.0.0, SVG Export Plug-In . SVG Version: 6.00 Build 0)  -->
<svg version="1.1" id="Layer_1" xmlns="http://www.w3.org/2000/svg" xmlns:xlink="http://www.w3.org/1999/xlink" x="0px" y="0px"
	 viewBox="0 0 1024 1024" style="enable-background:new 0 0 1024 1024;" xml:space="preserve">
<g id="XMLID_4_">
	<path id="XMLID_10_" style="fill:#FFFFFF;stroke:#FFFFFF;stroke-miterlimit:10;" d="M491.072,448c-35.29,0-64,28.71-64,64
		c0,35.29,28.71,64,64,64c35.29,0,64-28.71,64-64C555.072,476.71,526.362,448,491.072,448z"/>
	<path id="XMLID_13_" style="fill:#FFFFFF;stroke:#FFFFFF;stroke-miterlimit:10;" d="M645.536,510.998h-0.619L491.074,10.994
		L337.225,510.998h-0.617l0.308,1.002l-0.306,0.996h0.613l153.849,500.011l153.849-500.011h0.61l-0.305-0.991L645.536,510.998z
		 M491.072,590c-43.009,0-78-34.99-78-78c0-43.009,34.991-78,78-78c43.01,0,78,34.991,78,78C569.072,555.01,534.082,590,491.072,590
		z"/>
</g>
</svg>
