<?xml version="1.0" encoding="utf-8"?>
<!-- Generator: Adobe Illustrator 19.2.1, SVG Export Plug-In . SVG Version: 6.00 Build 0)  -->
<svg version="1.1" id="Layer_1" xmlns="http://www.w3.org/2000/svg" xmlns:xlink="http://www.w3.org/1999/xlink" x="0px" y="0px"
	 viewBox="104 -194 1000 1000" style="enable-background:new 104 -194 1000 1000;" xml:space="preserve">
<style type="text/css">
	.st0{fill:none;stroke:#FFFFFF;stroke-width:15;stroke-miterlimit:10;}
	.st1{fill:#FFFFFF;}
</style>
<path class="st0" d="M604-169c-262.3,0-475,212.7-475,475s212.7,475,475,475s475-212.7,475-475S866.3-169,604-169z"/>
<g>
	<path class="st1" d="M944,306l-219.4-67.5l59.7-112.8l-112.8,59.7L604-34l-67.5,219.4l-112.8-59.7l59.7,112.8L264,306l219.4,67.5
		l-59.7,112.8l112.8-59.7L604,646l67.5-219.4l112.8,59.7l-59.7-112.8L944,306z M604,387c-44.7,0-81-36.3-81-81c0-44.7,36.3-81,81-81
		c44.7,0,81,36.3,81,81C685,350.7,648.7,387,604,387z"/>
	<path class="st1" d="M604,231c-41.4,0-75,33.6-75,75c0,41.4,33.6,75,75,75c41.4,0,75-33.6,75-75C679,264.6,645.4,231,604,231z
		 M604,356.7c-28,0-50.7-22.7-50.7-50.7s22.7-50.7,50.7-50.7c28,0,50.7,22.7,50.7,50.7S632,356.7,604,356.7z"/>
</g>
</svg>
