<?xml version="1.0" encoding="utf-8"?>
<!-- Generator: Adobe Illustrator 19.1.0, SVG Export Plug-In . SVG Version: 6.00 Build 0)  -->
<svg version="1.1" id="Layer_1" xmlns="http://www.w3.org/2000/svg" xmlns:xlink="http://www.w3.org/1999/xlink" x="0px" y="0px"
	 viewBox="0 0 1000 1000" style="enable-background:new 0 0 1000 1000;" xml:space="preserve">
<style type="text/css">
	.st0{fill:#FFFFFF;}
	.st1{fill:none;stroke:#FFFFFF;stroke-width:6;stroke-miterlimit:10;}
	.st2{fill:#FFFFFF;stroke:#FFFFFF;stroke-width:6;stroke-miterlimit:10;}
</style>
<path class="st0" d="M500,25C237.7,25,25,237.7,25,500s212.7,475,475,475s475-212.7,475-475S762.3,25,500,25z M680.3,680.3
	l-112.8-59.7L500,840l-67.5-219.4l-112.8,59.7l59.7-112.8L160,500l219.4-67.5l-59.7-112.8l112.8,59.7L500,160l67.5,219.4l112.8-59.7
	l-59.7,112.8L840,500l-219.4,67.5L680.3,680.3z"/>
<circle class="st1" cx="500" cy="500" r="78"/>
<circle class="st2" cx="500" cy="500" r="50.7"/>
</svg>
