<?xml version="1.0" encoding="iso-8859-1"?>
<!-- Generator: Adobe Illustrator 19.0.0, SVG Export Plug-In . SVG Version: 6.00 Build 0)  -->
<svg version="1.1" id="Layer_1" xmlns="http://www.w3.org/2000/svg" xmlns:xlink="http://www.w3.org/1999/xlink" x="0px" y="0px"
	 viewBox="0 0 192 192" style="enable-background:new 0 0 192 192;" xml:space="preserve">
<path style="fill:#24163F;" d="M96,1.03C43.633,1.03,1.03,43.633,1.03,96c0,52.366,42.604,94.97,94.97,94.97
	c52.366,0,94.97-42.604,94.97-94.97C190.97,43.633,148.366,1.03,96,1.03z"/>
<g id="_x31__12_">
	<g>
		<path style="fill:#FFFFFF;" d="M124,567h-16c-2.209,0-4,1.791-4,4v24c0,2.209,1.791,4,4,4h16c2.209,0,4-1.791,4-4v-24
			C128,568.791,126.209,567,124,567z M126,595c0,1.104-0.896,2-2,2h-8h-8c-1.104,0-2-0.896-2-2v-24c0-1.104,0.896-2,2-2h16
			c1.104,0,2,0.896,2,2V595z M116,571c-2.761,0-5,2.238-5,5s2.239,5,5,5s5-2.238,5-5S118.761,571,116,571z M116,579.008
			c-1.661,0-3.007-1.347-3.007-3.008c0-1.661,1.346-3.008,3.007-3.008s3.007,1.347,3.007,3.008
			C119.007,577.661,117.661,579.008,116,579.008z M123,590c0-3.866-3.134-7-7-7s-7,3.134-7,7s3.134,7,7,7S123,593.866,123,590z
			 M116,595c-2.761,0-5-2.238-5-5s2.239-5,5-5s5,2.238,5,5S118.761,595,116,595z"/>
	</g>
</g>
<path style="fill:none;stroke:#FFFFFF;stroke-width:4;stroke-miterlimit:10;" d="M144.673,140.002l-30.984-63.352
	c-0.544-1.113-0.737-2.365-0.553-3.591l4.836-32.16c0.401-2.669-1-5.259-3.431-6.432c-4.325-2.086-11.902-4.937-21.7-5.467
	c-0.036-0.101-0.048-0.203-0.092-0.303l-2.622-5.956c-0.603-1.37-1.862-2.338-3.346-2.533c-2.162-0.285-5.545-0.503-9.199,0.122
	c-3.402,0.582-5.844,1.863-7.355,2.901c-1.159,0.796-1.866,2.088-1.891,3.494l-0.103,5.72c-0.004,0.213,0.031,0.415,0.057,0.62
	c-9.958,4.275-16.473,10.987-19.716,15.013c-1.555,1.93-1.76,4.605-0.556,6.771l15.462,27.809c0.58,1.043,0.841,2.233,0.752,3.423
	l-5.128,68.528c-0.197,2.631,1.31,5.078,3.744,6.096c7.431,3.106,24.22,8.668,43.265,5.41c18.818-3.219,31.74-13.663,37.32-19.037
	C145.346,145.236,145.839,142.386,144.673,140.002z"/>
</svg>
