<?xml version="1.0" encoding="iso-8859-1"?>
<!-- Generator: Adobe Illustrator 19.0.0, SVG Export Plug-In . SVG Version: 6.00 Build 0)  -->
<svg version="1.1" id="Layer_1" xmlns="http://www.w3.org/2000/svg" xmlns:xlink="http://www.w3.org/1999/xlink" x="0px" y="0px"
	 viewBox="0 0 192 192" style="enable-background:new 0 0 192 192;" xml:space="preserve">
<path style="fill:#24163F;" d="M95.229,1.03C42.863,1.03,0.259,43.633,0.259,96c0,52.366,42.604,94.97,94.97,94.97
	c52.366,0,94.97-42.604,94.97-94.97C190.199,43.633,147.595,1.03,95.229,1.03z"/>
<g id="_x31__12_">
	<g>
		<path style="fill:#FFFFFF;" d="M124,567h-16c-2.209,0-4,1.791-4,4v24c0,2.209,1.791,4,4,4h16c2.209,0,4-1.791,4-4v-24
			C128,568.791,126.209,567,124,567z M126,595c0,1.104-0.896,2-2,2h-8h-8c-1.104,0-2-0.896-2-2v-24c0-1.104,0.896-2,2-2h16
			c1.104,0,2,0.896,2,2V595z M116,571c-2.761,0-5,2.238-5,5s2.239,5,5,5s5-2.238,5-5S118.761,571,116,571z M116,579.008
			c-1.661,0-3.007-1.347-3.007-3.008c0-1.661,1.346-3.008,3.007-3.008s3.007,1.347,3.007,3.008
			C119.007,577.661,117.661,579.008,116,579.008z M123,590c0-3.866-3.134-7-7-7s-7,3.134-7,7s3.134,7,7,7S123,593.866,123,590z
			 M116,595c-2.761,0-5-2.238-5-5s2.239-5,5-5s5,2.238,5,5S118.761,595,116,595z"/>
	</g>
</g>
<g>
	<path style="fill:#FFFFFF;" d="M32.153,73.29l6.563,19.577l118.991-39.893l-6.563-19.577L32.153,73.29z M151.251,46.298
		l-9.881-5.405l7.254-2.432L151.251,46.298z M55.722,69.607l5.895-1.976l-0.132,0.242L76.38,76.02l-6.608,2.215l0.397-0.726
		L55.722,69.607z M65.674,79.61l-6.608,2.215l0.397-0.726l-14.447-7.903l5.895-1.976l-0.132,0.242L65.674,79.61z M66.428,66.017
		l5.895-1.976l-0.132,0.242l14.895,8.148l-6.608,2.215l0.397-0.726L66.428,66.017z M77.134,62.428l5.895-1.976l-0.132,0.242
		l14.896,8.148l-6.608,2.215l0.397-0.726L77.134,62.428z M87.84,58.839l5.895-1.976l-0.132,0.242l14.895,8.148l-6.607,2.215
		l0.397-0.726L87.84,58.839z M98.546,55.25l5.894-1.976l-0.132,0.242l14.896,8.148l-6.608,2.215l0.397-0.726L98.546,55.25z
		 M109.252,51.66l5.895-1.976l-0.132,0.242l14.895,8.148l-6.607,2.215l0.397-0.726L109.252,51.66z M119.958,48.071l5.895-1.976
		l-0.132,0.242l14.895,8.148l-6.608,2.216l0.397-0.726L119.958,48.071z M130.664,44.482l5.894-1.976l-0.132,0.242l14.896,8.148
		l-6.608,2.215l0.397-0.726L130.664,44.482z M40.205,74.809l-0.132,0.242l14.895,8.148l-6.621,2.22l0.396-0.738l-10.395-5.582
		l-0.018,0.033l-1.114-3.321L40.205,74.809z M40.17,84.616l4.063,2.182l-2.995,1.004L40.17,84.616z"/>
	<rect x="34.779" y="75.776" style="fill:#24163F;" width="121.5" height="16.648"/>
	<path style="fill:#FFFFFF;" d="M32.346,73.776v20.647h125.5V73.776H32.346z M153.847,86.041l-7.651-8.266h7.651V86.041z
		 M55.863,77.776h6.217l-0.202,0.187l11.533,12.46h-6.969l0.607-0.562L55.863,77.776z M62.119,90.423H55.15l0.607-0.562
		L44.572,77.776h6.217l-0.202,0.187L62.119,90.423z M67.155,77.776h6.217l-0.202,0.187l11.533,12.46h-6.969l0.607-0.562
		L67.155,77.776z M78.446,77.776h6.217l-0.202,0.187l11.533,12.46h-6.97l0.607-0.562L78.446,77.776z M89.738,77.776h6.218
		l-0.202,0.187l11.532,12.46h-6.969l0.607-0.562L89.738,77.776z M101.03,77.776h6.217l-0.202,0.187l11.533,12.46h-6.97l0.607-0.562
		L101.03,77.776z M112.321,77.776h6.218l-0.202,0.187l11.532,12.46h-6.969l0.607-0.562L112.321,77.776z M123.613,77.776h6.218
		l-0.202,0.187l11.532,12.46h-6.97l0.607-0.562L123.613,77.776z M134.905,77.776h6.217l-0.202,0.187l11.533,12.46h-6.97l0.607-0.562
		L134.905,77.776z M39.497,77.776l-0.202,0.187l11.533,12.46h-6.983l0.61-0.573l-8.081-8.597l-0.027,0.026v-3.503H39.497z
		 M36.346,87.063l3.159,3.36h-3.159V87.063z"/>
	<path style="fill:#FFFFFF;" d="M32.181,73.604v85h125.5v-85H32.181z M153.681,77.604v39.986h-117.5V77.604H153.681z M36.181,121.59
		h56.132v33.014H36.181V121.59z M96.313,154.604V121.59h57.367v33.014H96.313z"/>
</g>
</svg>
