<?xml version="1.0" encoding="iso-8859-1"?>
<!-- Generator: Adobe Illustrator 19.0.0, SVG Export Plug-In . SVG Version: 6.00 Build 0)  -->
<svg version="1.1" id="Layer_1" xmlns="http://www.w3.org/2000/svg" xmlns:xlink="http://www.w3.org/1999/xlink" x="0px" y="0px"
	 viewBox="0 0 192 192" style="enable-background:new 0 0 192 192;" xml:space="preserve">
<path style="fill:#24163F;" d="M96,1.03C43.633,1.03,1.03,43.633,1.03,96c0,52.366,42.604,94.97,94.97,94.97
	c52.366,0,94.97-42.604,94.97-94.97C190.97,43.633,148.366,1.03,96,1.03z"/>
<g>
	<path style="fill:none;stroke:#FFFFFF;stroke-width:4;stroke-miterlimit:10;" d="M45.342,37.5c-1.643,0-2.3,2.061-1.004,3.071
		c3.533,2.751,5.806,7.043,5.806,11.869c0,0.924-0.096,1.824-0.255,2.702c10.919,1.775,19.264,11.222,19.264,22.643
		c0,4.503-1.315,8.691-3.555,12.236c5.558,4.649,9.099,11.631,9.099,19.444c0,10.633-6.555,19.722-15.839,23.484
		c1.009,2.264,1.583,4.765,1.583,7.404c0,5.713-2.634,10.807-6.749,14.147h48.28c2.452,0,4.441-1.988,4.441-4.441V41.975
		c0-2.471-2.003-4.475-4.475-4.475H45.342z"/>
</g>
<path style="fill:none;stroke:#FFFFFF;stroke-width:4;stroke-miterlimit:10;" d="M116.318,64.859v1.743
	c0,2.189,1.774,3.963,3.963,3.963h20.22c2.189,0,3.963,1.774,3.963,3.963v42.944c0,2.189-1.774,3.963-3.963,3.963h-20.22
	c-2.189,0-3.963,1.774-3.963,3.963v1.743c0,2.189,1.774,3.963,3.963,3.963h30.92c2.189,0,3.963-1.774,3.963-3.963V64.859
	c0-2.189-1.774-3.963-3.963-3.963h-30.92C118.092,60.896,116.318,62.67,116.318,64.859z"/>
</svg>
