<?xml version="1.0" encoding="utf-8"?>
<!-- Generator: Adobe Illustrator 19.1.0, SVG Export Plug-In . SVG Version: 6.00 Build 0)  -->
<svg version="1.1" id="Layer_1" xmlns="http://www.w3.org/2000/svg" xmlns:xlink="http://www.w3.org/1999/xlink" x="0px" y="0px"
	 viewBox="0 0 200 200" style="enable-background:new 0 0 200 200;" xml:space="preserve">
<style type="text/css">
	.st0{fill:#CCCCCC;}
</style>
<path class="st0" d="M102.6,200c46,0,84.7-31,96.4-73.3H82c-1.2,0-2.2,1-2.2,2.2v20.1c0,2-2.4,3-3.8,1.6l-49.1-49.1
	c-0.9-0.9-0.9-2.3,0-3.2l49.1-50c1.4-1.4,3.8-0.4,3.8,1.6v18c0,1.2,1,2.2,2.2,2.2h116.1C185.4,29.5,147.5,0,102.6,0
	C47.4,0,2.6,44.8,2.6,100C2.6,155.2,47.4,200,102.6,200z"/>
</svg>
