<?xml version="1.0" encoding="iso-8859-1"?>
<!-- Generator: Adobe Illustrator 19.0.0, SVG Export Plug-In . SVG Version: 6.00 Build 0)  -->
<svg version="1.1" id="Layer_1" xmlns="http://www.w3.org/2000/svg" xmlns:xlink="http://www.w3.org/1999/xlink" x="0px" y="0px"
	 viewBox="0 0 1024 1024" style="enable-background:new 0 0 1024 1024;" xml:space="preserve">
<g id="XMLID_5_">
	<path id="XMLID_1_" style="fill:#FFFFFF;stroke:#000000;stroke-width:6;stroke-miterlimit:10;" d="M464.982,506.132H45.527
		c-22.353,0-40.474-18.121-40.474-40.474V46.202c0-22.353,18.121-40.474,40.474-40.474h419.455
		c22.353,0,40.474,18.121,40.474,40.474v419.455C505.456,488.011,487.335,506.132,464.982,506.132z"/>
	<path id="XMLID_2_" style="fill:#FFFFFF;stroke:#000000;stroke-width:6;stroke-miterlimit:10;" d="M978.473,506.132H559.018
		c-22.353,0-40.474-18.121-40.474-40.474V46.202c0-22.353,18.121-40.474,40.474-40.474h419.455
		c22.353,0,40.474,18.121,40.474,40.474v419.455C1018.947,488.011,1000.826,506.132,978.473,506.132z"/>
	<path id="XMLID_4_" style="fill:#FFFFFF;stroke:#000000;stroke-width:6;stroke-miterlimit:10;" d="M464.982,1018.272H45.527
		c-22.353,0-40.474-18.121-40.474-40.474V558.343c0-22.353,18.121-40.474,40.474-40.474h419.455
		c22.353,0,40.474,18.121,40.474,40.474v419.455C505.456,1000.151,487.335,1018.272,464.982,1018.272z"/>
	<path id="XMLID_3_" style="fill:#FFFFFF;stroke:#000000;stroke-width:6;stroke-miterlimit:10;" d="M978.473,1018.272H559.018
		c-22.353,0-40.474-18.121-40.474-40.474V558.343c0-22.353,18.121-40.474,40.474-40.474h419.455
		c22.353,0,40.474,18.121,40.474,40.474v419.455C1018.947,1000.151,1000.826,1018.272,978.473,1018.272z"/>
</g>
</svg>
