<?xml version="1.0" encoding="utf-8"?>
<!-- Generator: Adobe Illustrator 19.2.1, SVG Export Plug-In . SVG Version: 6.00 Build 0)  -->
<svg version="1.1" id="Layer_1" xmlns="http://www.w3.org/2000/svg" xmlns:xlink="http://www.w3.org/1999/xlink" x="0px" y="0px"
	 viewBox="0 0 75 75" style="enable-background:new 0 0 75 75;" xml:space="preserve">
<style type="text/css">
	.st0{fill:#FFFFFF;}
</style>
<g>
	<path class="st0" d="M21,51.2c-0.1,0-0.2,0-0.3,0c-0.4,0-0.8-0.3-0.9-0.7c-0.1-0.5,0.2-1,0.7-1.2c0.7-0.2,1.6-0.5,2.5-1
		c0.4-0.2,1-0.4,1-0.4V9.3L2,17.3v48.4l22-8.1V50c0,0-0.2,0.1-0.3,0.2C22.8,50.7,21.8,51,21,51.2z M9.3,31.7c-0.5,0.2-1,0.3-1.5,0.5
		c-0.4,0.1-0.8,0.3-1.2,0.4c-0.1,0-0.2,0-0.3,0c-0.4,0-0.8-0.3-0.9-0.7c-0.2-0.5,0.1-1,0.6-1.2c0.4-0.1,0.8-0.3,1.2-0.4
		c0.5-0.2,1-0.3,1.5-0.5c0.5-0.2,1,0.1,1.2,0.6C10.1,31,9.8,31.5,9.3,31.7z M12.7,29.8c0-0.5,0.4-1,0.9-1c1.2-0.1,2.3,0,3.2,0.3
		c0.5,0.2,0.8,0.7,0.6,1.2c-0.1,0.4-0.5,0.7-0.9,0.7c-0.1,0-0.2,0-0.3,0c-0.7-0.2-1.6-0.3-2.5-0.2C13.2,30.7,12.7,30.3,12.7,29.8z
		 M16.9,50.4c-0.2,0.2-0.4,0.3-0.7,0.3c-0.2,0-0.5-0.1-0.7-0.3c-0.7-0.7-1.3-1.7-1.6-3c-0.1-0.5,0.2-1,0.7-1.1
		c0.5-0.1,1,0.2,1.1,0.7c0.2,0.9,0.5,1.6,1,2C17.2,49.5,17.3,50.1,16.9,50.4z M18.4,40.8l-0.2,0.3c-0.5,0.7-0.9,1.4-1.3,2
		c-0.2,0.3-0.5,0.5-0.8,0.5c-0.2,0-0.3,0-0.5-0.1c-0.5-0.3-0.6-0.9-0.3-1.3c0.4-0.7,0.9-1.4,1.4-2.1l0.2-0.3
		c0.3-0.4,0.9-0.6,1.3-0.3C18.5,39.8,18.7,40.4,18.4,40.8z M19.5,37c-0.5-0.1-0.8-0.7-0.7-1.2c0.1-0.4,0.1-0.7,0.1-1.1
		c0-0.4-0.1-0.8-0.2-1.2c-0.2-0.5,0.1-1,0.6-1.2c0.5-0.2,1,0.1,1.2,0.6c0.2,0.6,0.3,1.2,0.3,1.8c0,0.5-0.1,1-0.2,1.6
		c-0.1,0.4-0.5,0.7-0.9,0.7C19.7,37,19.6,37,19.5,37z"/>
	<path class="st0" d="M51.9,17.3v27.8c0,0.1,0.4,0.2,0.5,0.4c0.4,0.3,0.5,0.9,0.2,1.3c-0.2,0.2-0.7,0.3-0.7,0.4v18.5L73,57.7V9.3
		L51.9,17.3z M59,51.2c-0.2,0.3-0.5,0.5-0.8,0.5c-0.2,0-0.3,0-0.5-0.1c-0.7-0.4-1.6-1-2.5-1.6c-0.4-0.3-0.5-0.9-0.2-1.3
		c0.3-0.4,0.9-0.5,1.3-0.2c0.9,0.6,1.6,1.1,2.3,1.5C59.1,50.2,59.2,50.8,59,51.2z M60,33.5c-0.2,0-0.3,0-0.5-0.1
		c-0.5-0.3-0.6-0.9-0.3-1.3l2.4-4l-5-2.1c-0.5-0.2-0.7-0.8-0.5-1.3c0.2-0.5,0.8-0.7,1.3-0.5l5.3,2.2l2.3-3.9
		c0.3-0.5,0.9-0.6,1.3-0.3c0.5,0.3,0.6,0.9,0.3,1.3l-2.2,3.7l3.8,1.6c0.5,0.2,0.7,0.8,0.5,1.3c-0.2,0.4-0.5,0.6-0.9,0.6
		c-0.1,0-0.3,0-0.4-0.1l-4-1.7l-2.5,4.3C60.6,33.4,60.3,33.5,60,33.5z M65.6,53.4c-0.6,0.2-1.2,0.3-1.8,0.2c-0.5,0-1,0-1.5-0.1
		c-0.5-0.1-0.9-0.6-0.8-1.1c0.1-0.5,0.6-0.9,1.1-0.8c0.4,0.1,0.7,0.1,1.1,0.1c0.5,0,0.9-0.1,1.3-0.2c0.5-0.1,1,0.2,1.2,0.7
		C66.4,52.8,66.1,53.3,65.6,53.4z M66.1,36.1c-0.2,0.1-0.3,0.2-0.5,0.2c-0.3,0-0.6-0.2-0.8-0.4c-0.5-0.8-1-1.6-1.6-2.3
		c-0.3-0.4-0.2-1,0.2-1.3c0.4-0.3,1-0.2,1.3,0.2c0.6,0.8,1.1,1.6,1.7,2.4C66.7,35.2,66.6,35.8,66.1,36.1z M67.1,39.9
		c-0.2-0.5,0-1.1,0.5-1.3c0.5-0.2,1,0,1.3,0.5c0.4,1,0.8,1.9,1.1,2.8c0.2,0.5-0.1,1-0.6,1.2c-0.1,0-0.2,0-0.3,0
		c-0.4,0-0.8-0.3-0.9-0.7C67.8,41.6,67.5,40.8,67.1,39.9z M69.9,50.1c-0.2,0.3-0.5,0.5-0.9,0.5c-0.1,0-0.3,0-0.4-0.1
		c-0.5-0.2-0.7-0.8-0.4-1.3c0.3-0.7,0.5-1.5,0.6-2.4c0-0.5,0.5-0.9,1-0.9c0.5,0,0.9,0.5,0.9,1C70.7,48.1,70.4,49.1,69.9,50.1z"/>
	<path class="st0" d="M48.6,44.1c0.1-0.2,0.4-0.3,0.4-0.3V17.3L27,9.3v37.5c0-0.2,0.6-0.4,0.8-0.6c0.6-0.3,1.3-0.6,1.9-1l0.9-0.5
		c0.5-0.3,1.1-0.1,1.4,0.4c0.3,0.5,0.1,1-0.3,1.3L30.8,47c-0.6,0.3-1.1,0.6-1.7,1c-0.1,0.1-0.3,0.1-0.5,0.1c-0.3,0-1.1-0.2-1.2-0.5
		c0-0.1-0.5-0.4-0.5-0.5v10.6l22,8.1V45.6c0-0.1-0.1-0.1-0.2-0.2C48.4,45.1,48.3,44.5,48.6,44.1z M38.4,43.2
		c-0.8,0.3-1.6,0.7-2.5,1.1c-0.1,0.1-0.3,0.1-0.4,0.1c-0.4,0-0.7-0.2-0.9-0.5c-0.2-0.5,0-1,0.4-1.3c1-0.5,1.9-0.9,2.7-1.2
		c0.5-0.2,1,0.1,1.2,0.6C39.1,42.4,38.9,43,38.4,43.2z M46.3,42.6c-0.2,0.4-0.5,0.6-0.9,0.6c-0.1,0-0.3,0-0.4-0.1
		c-0.9-0.4-1.7-0.6-2.5-0.7c-0.5-0.1-0.9-0.5-0.9-1.1c0.1-0.5,0.5-0.9,1.1-0.9c0.9,0.1,1.9,0.4,3,0.9C46.3,41.5,46.5,42.1,46.3,42.6
		z"/>
	<path class="st0" d="M25.1,48.6V50c0.3-0.3,0.4-0.7,0.2-1.1C25.2,48.8,25.1,48.7,25.1,48.6z"/>
	<path class="st0" d="M27,47.1v-0.3C27,47,27,46.9,27,47.1z"/>
	<path class="st0" d="M64.7,32.4c-0.3-0.4-0.9-0.5-1.3-0.2c-0.4,0.3-0.5,0.9-0.2,1.3c0.6,0.7,1.1,1.5,1.6,2.3
		c0.2,0.3,0.5,0.4,0.8,0.4c0.2,0,0.4,0,0.5-0.2c0.4-0.3,0.6-0.9,0.3-1.3C65.9,34,65.3,33.1,64.7,32.4z"/>
</g>
</svg>
