<?xml version="1.0" encoding="iso-8859-1"?>
<!-- Generator: Adobe Illustrator 19.0.0, SVG Export Plug-In . SVG Version: 6.00 Build 0)  -->
<svg version="1.1" id="Layer_1" xmlns="http://www.w3.org/2000/svg" xmlns:xlink="http://www.w3.org/1999/xlink" x="0px" y="0px"
	 viewBox="0 0 124 124" style="enable-background:new 0 0 124 124;" xml:space="preserve">
<g>
	<g id="XMLID_4_">
		<g id="XMLID_7_">
			<path id="XMLID_14_" style="fill:#FFFFFF;" d="M120.986,62c0,10.351-2.67,20.081-7.352,28.53l-3.377-1.719L99.54,72.717
				l-5.352,10.729L83.483,94.175L72.79,88.811l-5.304-10.729l5.486-10.717V57.33h10.473l16.094-21.8l9.169-9.51l0.024-0.012
				C116.414,35.97,120.986,48.442,120.986,62z"/>
			<path id="XMLID_13_" style="fill:#FFFFFF;" d="M110.257,88.811l3.377,1.719C103.588,108.696,84.226,120.986,62,120.986
				c-10.802,0-20.922-2.902-29.627-7.974l2.694-2.755l5.23-16.082l-5.608-10.729L18.108,72.717V56.635l16.581-5.365l11.229-10.717
				L27.203,14.389l-0.012-0.012C36.945,7.233,48.979,3.014,62,3.014c19.02,0,35.943,9.01,46.733,22.995l-0.024,0.012l-9.169,9.51
				l-16.094,21.8H72.973v10.034l-5.486,10.717l5.304,10.729l10.693,5.365l10.705-10.729l5.352-10.729L110.257,88.811z"/>
			<path id="XMLID_12_" style="fill:#FFFFFF;" d="M27.203,14.389l18.715,26.165L34.689,51.271l-16.581,5.365v16.082l16.581,10.729
				l5.608,10.729l-5.23,16.082l-2.694,2.755C14.816,102.795,3.014,83.775,3.014,62c0-19.556,9.522-36.894,24.177-47.623
				L27.203,14.389z"/>
		</g>
		<g id="XMLID_8_">
			
				<path id="XMLID_11_" style="fill:none;stroke:#000000;stroke-width:4;stroke-linecap:round;stroke-linejoin:round;stroke-miterlimit:10;" d="
				M108.733,26.009c7.681,9.961,12.253,22.434,12.253,35.991c0,10.351-2.67,20.081-7.352,28.53
				C103.588,108.696,84.226,120.986,62,120.986c-10.802,0-20.922-2.902-29.627-7.974C14.816,102.795,3.014,83.775,3.014,62
				c0-19.556,9.522-36.894,24.177-47.623C36.945,7.233,48.979,3.014,62,3.014C81.02,3.014,97.943,12.024,108.733,26.009z"/>
			
				<polyline id="XMLID_10_" style="fill:none;stroke:#000000;stroke-width:4;stroke-linecap:round;stroke-linejoin:round;stroke-miterlimit:10;" points="
				27.203,14.389 45.918,40.554 34.689,51.271 18.108,56.635 18.108,72.717 34.689,83.446 40.298,94.175 35.067,110.257 
				32.373,113.012 32.336,113.049 			"/>
			
				<polyline id="XMLID_9_" style="fill:none;stroke:#000000;stroke-width:4;stroke-linecap:round;stroke-linejoin:round;stroke-miterlimit:10;" points="
				108.708,26.021 99.54,35.531 83.446,57.33 72.973,57.33 72.973,67.365 67.487,78.082 72.79,88.811 83.483,94.175 94.187,83.446 
				99.54,72.717 110.257,88.811 113.634,90.53 			"/>
		</g>
	</g>
</g>
</svg>
