<?xml version="1.0" encoding="iso-8859-1"?>
<!-- Generator: Adobe Illustrator 19.0.0, SVG Export Plug-In . SVG Version: 6.00 Build 0)  -->
<svg version="1.1" id="Layer_1" xmlns="http://www.w3.org/2000/svg" xmlns:xlink="http://www.w3.org/1999/xlink" x="0px" y="0px"
	 viewBox="0 0 192 192" style="enable-background:new 0 0 192 192;" xml:space="preserve">
<path style="fill:#24163F;" d="M96,1.03C43.633,1.03,1.03,43.633,1.03,96c0,52.366,42.604,94.97,94.97,94.97
	c52.366,0,94.97-42.604,94.97-94.97C190.97,43.633,148.366,1.03,96,1.03z"/>
<g id="_x31__12_">
	<g>
		<path style="fill:#FFFFFF;" d="M124,567h-16c-2.209,0-4,1.791-4,4v24c0,2.209,1.791,4,4,4h16c2.209,0,4-1.791,4-4v-24
			C128,568.791,126.209,567,124,567z M126,595c0,1.104-0.896,2-2,2h-8h-8c-1.104,0-2-0.896-2-2v-24c0-1.104,0.896-2,2-2h16
			c1.104,0,2,0.896,2,2V595z M116,571c-2.761,0-5,2.238-5,5s2.239,5,5,5s5-2.238,5-5S118.761,571,116,571z M116,579.008
			c-1.661,0-3.007-1.347-3.007-3.008c0-1.661,1.346-3.008,3.007-3.008s3.007,1.347,3.007,3.008
			C119.007,577.661,117.661,579.008,116,579.008z M123,590c0-3.866-3.134-7-7-7s-7,3.134-7,7s3.134,7,7,7S123,593.866,123,590z
			 M116,595c-2.761,0-5-2.238-5-5s2.239-5,5-5s5,2.238,5,5S118.761,595,116,595z"/>
	</g>
</g>
<g id="_x31__2_">
	<g>
		<path style="fill:#FFFFFF;" d="M127.135,127.135C127.135,109.939,113.197,96,96,96s-31.135,13.939-31.135,31.135
			c0,17.197,13.939,31.135,31.135,31.135S127.135,144.332,127.135,127.135z M96,149.375c-12.282,0-22.24-9.956-22.24-22.24
			c0-12.284,9.958-22.24,22.24-22.24s22.24,9.956,22.24,22.24C118.24,139.419,108.282,149.375,96,149.375z M131.583,24.833H60.417
			c-9.825,0-17.792,7.966-17.792,17.792v106.75c0,9.825,7.966,17.792,17.792,17.792h71.167c9.828,0,17.792-7.966,17.792-17.792
			V42.625C149.375,32.8,141.411,24.833,131.583,24.833z M140.479,149.375c0,4.913-3.983,8.896-8.896,8.896H96H60.417
			c-4.913,0-8.896-3.983-8.896-8.896V42.625c0-4.913,3.983-8.896,8.896-8.896h71.167c4.913,0,8.896,3.983,8.896,8.896V149.375z
			 M96,42.625c-12.282,0-22.24,9.956-22.24,22.24c0,12.284,9.958,22.24,22.24,22.24s22.24-9.956,22.24-22.24
			C118.24,52.581,108.282,42.625,96,42.625z M96,78.243c-7.388,0-13.376-5.99-13.376-13.378c0-7.388,5.988-13.378,13.376-13.378
			s13.376,5.99,13.376,13.378C109.376,72.253,103.388,78.243,96,78.243z"/>
	</g>
</g>
</svg>
