<?xml version="1.0" encoding="iso-8859-1"?>
<!-- Generator: Adobe Illustrator 19.0.0, SVG Export Plug-In . SVG Version: 6.00 Build 0)  -->
<svg version="1.1" id="Layer_1" xmlns="http://www.w3.org/2000/svg" xmlns:xlink="http://www.w3.org/1999/xlink" x="0px" y="0px"
	 viewBox="0 0 124 124" style="enable-background:new 0 0 124 124;" xml:space="preserve">
<g>
	<path style="fill:#FFFFFF;" d="M69.145,41.83H6.871c-2.051,0-3.714,1.663-3.714,3.714v62.274c0,2.051,1.663,3.714,3.714,3.714
		h62.274c2.051,0,3.714-1.663,3.714-3.714V45.545C72.86,43.493,71.197,41.83,69.145,41.83z M17.48,63.425
		c-4.016,0-7.272-3.256-7.272-7.272c0-4.016,3.256-7.272,7.272-7.272c4.016,0,7.272,3.256,7.272,7.272
		C24.752,60.169,21.496,63.425,17.48,63.425z M38.008,83.954c-4.016,0-7.272-3.256-7.272-7.272c0-4.016,3.256-7.272,7.272-7.272
		s7.272,3.256,7.272,7.272C45.28,80.698,42.025,83.954,38.008,83.954z M58.537,104.482c-4.016,0-7.272-3.256-7.272-7.272
		s3.256-7.272,7.272-7.272s7.272,3.256,7.272,7.272S62.553,104.482,58.537,104.482z"/>
	<path style="fill:#FFFFFF;" d="M117.91,25.667L57.033,12.551c-2.005-0.432-3.981,0.843-4.413,2.849l-5.402,25.074h21.928
		c2.796,0,5.071,2.275,5.071,5.071v42.01l29.014,6.251c2.005,0.432,3.981-0.843,4.413-2.849l13.115-60.877
		C121.191,28.074,119.915,26.099,117.91,25.667z M71.496,30.318c-0.846,3.926-4.714,6.423-8.641,5.577
		c-3.926-0.846-6.423-4.714-5.577-8.641c0.846-3.926,4.714-6.423,8.641-5.577C69.845,22.524,72.342,26.392,71.496,30.318z
		 M102.985,79.101c-0.846,3.926-4.714,6.423-8.641,5.577c-3.926-0.846-6.423-4.714-5.577-8.641c0.846-3.926,4.714-6.423,8.641-5.577
		C101.334,71.307,103.831,75.175,102.985,79.101z M111.632,38.965c-0.846,3.926-4.714,6.423-8.641,5.577
		c-3.926-0.846-6.423-4.714-5.577-8.641c0.846-3.926,4.714-6.423,8.641-5.577C109.981,31.171,112.478,35.039,111.632,38.965z"/>
</g>
</svg>
