<?xml version="1.0" encoding="utf-8"?>
<!-- Generator: Adobe Illustrator 19.1.0, SVG Export Plug-In . SVG Version: 6.00 Build 0)  -->
<svg version="1.1" id="Layer_1" xmlns="http://www.w3.org/2000/svg" xmlns:xlink="http://www.w3.org/1999/xlink" x="0px" y="0px"
	 viewBox="0 0 1000 1000" style="enable-background:new 0 0 1000 1000;" xml:space="preserve">
<style type="text/css">
	.st0{fill:#FFFFFF;}
	.st1{fill:none;stroke:#FFFFFF;stroke-width:6;stroke-miterlimit:10;}
	.st2{fill:#FFFFFF;stroke:#FFFFFF;stroke-width:6;stroke-miterlimit:10;}
</style>
<g>
	<path class="st0" d="M500,25C237.7,25,25,237.7,25,500s212.7,475,475,475s475-212.7,475-475S762.3,25,500,25z M769,748.7
		c-5.6,35.2-32.8,61.7-73.3,68.9c-19.7,3.5-40.3,3.7-60.5,3.8c-98.8,0.4-197.7,0.2-296.5,0.1c-22.7,0-44.8-3.4-65-14.5
		c-38.8-21.4-53.5-62.9-38-107.9c3.9-11.4,9.3-22.5,15.3-32.9c45.1-78.6,90.6-157,135.7-235.7c3.1-5.3,4.9-12.2,4.9-18.3
		c0.4-59.9,0.2-119.7,0.2-179.6c0-3.4,0-6.8,0-10.5c-12-1.8-20.7-7-22.4-19.4c-1.9-13.8,7.8-23.9,23.2-24
		c34.3-0.2,68.6-0.1,102.9-0.1c36.8,0,73.6-0.1,110.4,0c18.8,0.1,30.6,16.4,21.6,31c-3.7,6-11.2,9.5-19.2,15.9c0,21.3,0,45.9,0,70.5
		c0,39.6-0.1,79.2,0.2,118.8c0,4.7,1.5,9.9,3.8,14c45.9,80,92.1,159.8,138.2,239.6C764.9,693.2,773.7,719.6,769,748.7z"/>
	<path class="st0" d="M572,443.7c-3.6-6.4-5.8-14.5-5.9-21.8c-0.4-63-0.3-126-0.3-189c0-3.6-0.3-7.2-0.5-11.3
		c-43.9,0-86.7,0-130.5,0c-0.2,3.2-0.4,5.3-0.4,7.5c0,64.2,0.2,128.5-0.2,192.7c0,7-2.1,14.8-5.6,20.9
		c-47.3,82.8-95.2,165.2-142.6,247.9c-4.9,8.6-9,17.9-11.6,27.4c-4.8,17.9-3.3,35.4,12.9,47.3c18.5,13.5,40.2,13.9,63.3,13.1
		c-4.3-5.5-7.8-9.5-10.7-13.9c-12.8-19.7-16.3-40-3.9-61.5c29.2-50.4,58.3-100.9,87.2-151.4c2.8-4.9,5.8-6.9,11.6-6.9
		c60.5,0.2,121,0.1,181.5,0.1c3.9,0,7.8,0,12.8,0c-1.4-3.1-2-4.8-2.9-6.3C608.3,507,589.8,475.5,572,443.7z"/>
</g>
</svg>
