<?xml version="1.0" encoding="iso-8859-1"?>
<!-- Generator: Adobe Illustrator 19.0.0, SVG Export Plug-In . SVG Version: 6.00 Build 0)  -->
<svg version="1.1" id="Layer_1" xmlns="http://www.w3.org/2000/svg" xmlns:xlink="http://www.w3.org/1999/xlink" x="0px" y="0px"
	 viewBox="0 0 1024 1024" style="enable-background:new 0 0 1024 1024;" xml:space="preserve">
<g>
	<g id="XMLID_11_">
		<path style="fill-rule:evenodd;clip-rule:evenodd;fill:#FFFFFF;" d="M1543.278,3366.897c-8.916-1.312-15.357-5.155-16.595-14.351
			c-1.376-10.221,5.795-17.729,17.182-17.803c25.424-0.162,50.848-0.098,76.272-0.106c27.273-0.012,54.548-0.071,81.818,0.033
			c13.962,0.056,22.675,12.186,16.018,23.015c-2.716,4.424-8.333,7.064-14.203,11.776c0,15.791,0,34.018,0,52.239
			c0,29.354-0.093,58.709,0.124,88.063c0.025,3.472,1.08,7.326,2.814,10.345c34.042,59.264,68.275,118.421,102.423,177.627
			c10.634,18.44,17.103,38.001,13.646,59.57c-4.186,26.098-24.319,45.723-54.299,51.103c-14.639,2.627-29.854,2.729-44.811,2.78
			c-73.268,0.26-146.536,0.148-219.805,0.093c-16.818-0.011-33.225-2.514-48.152-10.76c-28.743-15.878-39.644-46.595-28.156-80.017
			c2.903-8.45,6.916-16.644,11.37-24.41c33.433-58.29,67.166-116.407,100.565-174.716c2.263-3.952,3.601-9.016,3.628-13.57
			c0.264-44.373,0.16-88.751,0.16-133.126C1543.278,3372.169,1543.278,3369.657,1543.278,3366.897z M1575.137,3366.652
			c-0.128,2.348-0.291,3.945-0.291,5.544c0.004,47.616,0.153,95.233-0.14,142.845c-0.034,5.208-1.578,10.989-4.163,15.506
			c-35.083,61.341-70.542,122.471-105.689,183.775c-3.636,6.34-6.686,13.271-8.578,20.312c-3.565,13.283-2.416,26.265,9.593,35.068
			c13.682,10.024,29.786,10.308,46.906,9.694c-3.17-4.086-5.791-7.016-7.909-10.272c-9.511-14.618-12.116-29.641-2.865-45.585
			c21.669-37.349,43.222-74.77,64.667-112.248c2.079-3.632,4.299-5.119,8.629-5.104c44.84,0.156,89.683,0.064,134.523,0.045
			c2.881-0.005,5.762,0,9.471,0c-1.045-2.285-1.503-3.548-2.163-4.69c-13.492-23.405-27.211-46.688-40.348-70.293
			c-2.643-4.753-4.312-10.723-4.353-16.143c-0.333-46.689-0.187-93.379-0.206-140.07c-0.002-2.686-0.222-5.366-0.356-8.385
			C1639.36,3366.652,1607.568,3366.652,1575.137,3366.652z"/>
	</g>
</g>
<g>
	<g id="XMLID_1_">
		<path style="fill-rule:evenodd;clip-rule:evenodd;fill:#FFFFFF;" d="M345.308,83.162c-18.552-2.729-31.957-10.728-34.533-29.862
			c-2.863-21.268,12.059-36.893,35.754-37.046c52.904-0.337,105.809-0.203,158.714-0.221c56.753-0.024,113.508-0.148,170.254,0.069
			c29.054,0.116,47.184,25.357,33.331,47.891c-5.651,9.206-17.34,14.7-29.555,24.505c0,32.859,0,70.787,0,108.704
			c0,61.083-0.194,122.167,0.258,183.25c0.053,7.224,2.248,15.245,5.857,21.526c70.836,123.321,142.072,246.42,213.131,369.621
			c22.129,38.372,35.589,79.076,28.396,123.959c-8.71,54.306-50.606,95.144-112.989,106.339
			c-30.462,5.466-62.122,5.678-93.246,5.785c-152.461,0.54-304.923,0.309-457.388,0.193c-34.996-0.022-69.137-5.23-100.2-22.39
			c-59.81-33.04-82.493-96.958-58.59-166.505c6.04-17.584,14.39-34.633,23.659-50.795c69.57-121.295,139.765-242.23,209.265-363.563
			c4.709-8.224,7.493-18.76,7.549-28.238c0.55-92.335,0.332-184.68,0.332-277.02C345.308,94.131,345.308,88.904,345.308,83.162z
			 M411.603,82.652c-0.267,4.885-0.605,8.21-0.605,11.536c0.009,99.084,0.319,198.17-0.292,297.243
			c-0.07,10.837-3.284,22.867-8.663,32.266C329.041,551.34,255.253,678.544,182.116,806.112
			c-7.567,13.192-13.913,27.614-17.849,42.268c-7.419,27.641-5.027,54.654,19.962,72.973c28.47,20.86,61.981,21.449,97.605,20.173
			c-6.596-8.503-12.049-14.599-16.458-21.376c-19.792-30.419-25.212-61.679-5.961-94.857
			c45.091-77.718,89.939-155.587,134.564-233.575c4.325-7.557,8.946-10.652,17.956-10.62c93.307,0.325,186.62,0.134,279.927,0.093
			c5.995-0.01,11.989,0,19.708,0c-2.174-4.755-3.127-7.383-4.501-9.76c-28.076-48.704-56.623-97.151-83.959-146.271
			c-5.5-9.89-8.973-22.313-9.057-33.591c-0.693-97.155-0.388-194.311-0.429-291.47c-0.005-5.588-0.462-11.166-0.741-17.448
			C545.244,82.652,479.087,82.652,411.603,82.652z"/>
	</g>
</g>
</svg>
