<?xml version="1.0" encoding="utf-8"?>
<!-- Generator: Adobe Illustrator 19.0.0, SVG Export Plug-In . SVG Version: 6.00 Build 0)  -->
<svg version="1.1" id="Layer_1" xmlns="http://www.w3.org/2000/svg" xmlns:xlink="http://www.w3.org/1999/xlink" x="0px" y="0px"
	 viewBox="-449 451 124 124" style="enable-background:new -449 451 124 124;" xml:space="preserve">
<style type="text/css">
	.st0{fill:#474747;}
	.st1{fill:none;stroke:#FFFFFF;stroke-width:3;stroke-miterlimit:10;}
	.st2{fill:none;stroke:#FFFFFF;stroke-width:4;stroke-miterlimit:10;}
</style>
<circle id="XMLID_1_" class="st0" cx="-387" cy="513" r="61"/>
<path class="st1" d="M-500,483.3"/>
<path class="st1" d="M-540,483.3"/>
<g>
	<path class="st2" d="M-383,483.2h-8c-2.6,0-4.8-1.9-5.3-4.4l-2.3-12.9c-0.6-3.3,1.9-6.3,5.3-6.3h12.5c3.3,0,5.9,3,5.3,6.3
		l-2.3,12.9C-378.2,481.3-380.4,483.2-383,483.2z"/>
	<path class="st2" d="M-390,565.2l-16.1-16.1c-1.1-1.1-1.5-2.8-1-4.4l18.8-55.7c0.4-1.3,2.2-1.3,2.7,0l18.8,55.7
		c0.5,1.5,0.1,3.2-1,4.4l-16.1,16.1C-385.7,566.9-388.3,566.9-390,565.2z"/>
</g>
</svg>
