<?xml version="1.0" encoding="utf-8"?>
<!-- Generator: Adobe Illustrator 19.0.0, SVG Export Plug-In . SVG Version: 6.00 Build 0)  -->
<svg version="1.1" id="Layer_1" xmlns="http://www.w3.org/2000/svg" xmlns:xlink="http://www.w3.org/1999/xlink" x="0px" y="0px"
	 viewBox="-449 451 124 124" style="enable-background:new -449 451 124 124;" xml:space="preserve">
<style type="text/css">
	.st0{fill:#474747;}
	.st1{fill:none;stroke:#FFFFFF;stroke-width:3;stroke-miterlimit:10;}
	.st2{fill:#FFFFFF;}
</style>
<circle id="XMLID_1_" class="st0" cx="-387" cy="513" r="61"/>
<path class="st1" d="M-500,483.3"/>
<path class="st1" d="M-540,483.3"/>
<g>
	<path class="st2" d="M-401.6,466.2l16.2,61l16.5-47.4l-10.5,51l23.4-23.5l-16.1,29.3l25.2-10.2l-37.2,28.1c-0.9,0.7-2,1.1-3.1,1.1
		c-1.2,0-2.3-0.4-3.3-1.2l-38.9-31.7l27.8,8.2l-15.6-30.3l21.6,29.8L-401.6,466.2 M-368.9,479.8L-368.9,479.8 M-356,507.3
		L-356,507.3 M-401.6,462.2c-0.2,0-0.5,0-0.7,0.1c-2,0.4-3.5,2.2-3.3,4.3l4.7,49.6l-13.1-18c-0.8-1.1-2-1.7-3.2-1.7
		c-0.7,0-1.4,0.2-2.1,0.6c-1.8,1.1-2.4,3.4-1.5,5.2l11.3,22l-18.8-5.6c-0.4-0.1-0.8-0.2-1.1-0.2c-1.5,0-2.8,0.8-3.5,2.1
		c-0.9,1.7-0.5,3.8,1,5l38.9,31.7c1.6,1.3,3.7,2.1,5.8,2.1c2,0,3.9-0.6,5.5-1.9l37.2-28.1c1.6-1.2,2.1-3.4,1.1-5.2
		c-0.7-1.3-2.1-2-3.5-2c-0.5,0-1,0.1-1.5,0.3l-14.8,6l10.6-19.3c0.4-0.6,0.6-1.3,0.6-2c0-2.2-1.8-4-4-4c0,0,0,0,0,0c0,0-0.1,0-0.1,0
		c-0.7,0-1.4,0.2-2,0.6c-0.3,0.2-0.5,0.4-0.8,0.6l-13.9,14l7.8-37.8c0.1-0.3,0.1-0.6,0.1-1c0-2.1-1.6-3.8-3.7-4c-0.1,0-0.2,0-0.3,0
		c-0.2,0-0.5,0-0.7,0.1c-0.6,0.1-1.2,0.4-1.7,0.7c-0.4,0.3-0.8,0.7-1.1,1.2c-0.1,0.3-0.3,0.5-0.4,0.8l-12.2,35l-12.9-48.4
		C-398.2,463.3-399.8,462.2-401.6,462.2L-401.6,462.2z"/>
</g>
</svg>
