<?xml version="1.0" encoding="utf-8"?>
<!-- Generator: Adobe Illustrator 19.0.0, SVG Export Plug-In . SVG Version: 6.00 Build 0)  -->
<svg version="1.1" id="Layer_1" xmlns="http://www.w3.org/2000/svg" xmlns:xlink="http://www.w3.org/1999/xlink" x="0px" y="0px"
	 viewBox="-449 451 124 124" style="enable-background:new -449 451 124 124;" xml:space="preserve">
<style type="text/css">
	.st0{fill:#474747;}
	.st1{fill:none;stroke:#FFFFFF;stroke-width:3;stroke-miterlimit:10;}
	.st2{fill:none;stroke:#FFFFFF;stroke-width:3;stroke-linecap:round;stroke-linejoin:round;stroke-miterlimit:10;}
	.st3{fill:none;stroke:#FFFFFF;stroke-width:4;stroke-linecap:round;stroke-linejoin:round;stroke-miterlimit:10;}
</style>
<circle id="XMLID_1_" class="st0" cx="-387" cy="513" r="61"/>
<path class="st1" d="M-500,483.3"/>
<path class="st1" d="M-540,483.3"/>
<path class="st2" d="M-414.2,520.7"/>
<g>
	<circle class="st3" cx="-387" cy="513" r="43.3"/>
	<path class="st3" d="M-414.1,479.3c3.7,2.7,6.2,6.4,8.7,10.7c3.7,6.4,5.4,14.3,5.4,22.8c0,0.1,0,0.2,0,0.3
		c0,14.3-5.5,26.9-14.7,33.7"/>
	<path class="st3" d="M-359.9,479.3c-3.5,2.6-7.5,6.1-9.9,10.1c-3.9,6.5-7.2,14.7-7.2,23.5c0,0,0,0,0,0.1c0,14.3,7,26.9,16.2,33.7"
		/>
	<path class="st3" d="M-429.2,510.1c9,1.2,18.7,2.2,30.4,2.6c5.1,0.2,10.3,0.3,15.7,0.3c2.7,0,5.3,0,7.9-0.1
		c11.4-0.2,22.1-0.8,31.4-1.7"/>
</g>
</svg>
