<?xml version="1.0" encoding="iso-8859-1"?>
<!-- Generator: Adobe Illustrator 19.0.0, SVG Export Plug-In . SVG Version: 6.00 Build 0)  -->
<svg version="1.1" id="Layer_1" xmlns="http://www.w3.org/2000/svg" xmlns:xlink="http://www.w3.org/1999/xlink" x="0px" y="0px"
	 viewBox="0 0 192 192" style="enable-background:new 0 0 192 192;" xml:space="preserve">
<path style="fill:#24163F;" d="M96,1.03C43.633,1.03,1.03,43.633,1.03,96c0,52.366,42.604,94.97,94.97,94.97
	c52.366,0,94.97-42.604,94.97-94.97C190.97,43.633,148.366,1.03,96,1.03z"/>
<g>
	<path style="fill:none;stroke:#FFFFFF;stroke-width:4;stroke-miterlimit:10;" d="M142.178,64.679
		c-0.126,15.674-8.129,30.466-16.332,43.595c-1.215,1.945-2.466,3.867-3.744,5.77c-1.565,2.331-16.668,21.995-23.394,30.957
		c-1.718,2.289-5.082,2.448-7.027,0.349c-12.189-13.148-23.59-27.273-33.563-42.117C47.645,87.645,37.41,68.489,43.799,49.139
		c4.721-14.296,16.693-25.258,30.617-30.457c12.321-4.601,26.377-4.767,38.427,0.783c14.489,6.673,25.54,20.637,28.552,36.457
		C141.956,58.867,142.201,61.788,142.178,64.679z"/>
	<path style="fill:none;stroke:#FFFFFF;stroke-width:4;stroke-miterlimit:10;" d="M92.271,174.843l-8.743-4.759
		c-2.311-1.258-2.763-4.384-0.902-6.245l10.097-10.097c1.673-1.673,4.385-1.673,6.058,0l10.24,10.24
		c1.789,1.789,1.354,4.795-0.867,6.004l-8.922,4.856C97.061,176.023,94.44,176.023,92.271,174.843z"/>
</g>
</svg>
