<?xml version="1.0" encoding="iso-8859-1"?>
<!-- Generator: Adobe Illustrator 19.0.0, SVG Export Plug-In . SVG Version: 6.00 Build 0)  -->
<svg version="1.1" id="Layer_1" xmlns="http://www.w3.org/2000/svg" xmlns:xlink="http://www.w3.org/1999/xlink" x="0px" y="0px"
	 viewBox="0 0 192 192" style="enable-background:new 0 0 192 192;" xml:space="preserve">
<path style="fill:#24163F;" d="M95.229,1.03C42.863,1.03,0.259,43.633,0.259,96c0,52.366,42.604,94.97,94.97,94.97
	c52.366,0,94.97-42.604,94.97-94.97C190.199,43.633,147.595,1.03,95.229,1.03z"/>
<g id="_x31__12_">
	<g>
		<path style="fill:#FFFFFF;" d="M124,567h-16c-2.209,0-4,1.791-4,4v24c0,2.209,1.791,4,4,4h16c2.209,0,4-1.791,4-4v-24
			C128,568.791,126.209,567,124,567z M126,595c0,1.104-0.896,2-2,2h-8h-8c-1.104,0-2-0.896-2-2v-24c0-1.104,0.896-2,2-2h16
			c1.104,0,2,0.896,2,2V595z M116,571c-2.761,0-5,2.238-5,5s2.239,5,5,5s5-2.238,5-5S118.761,571,116,571z M116,579.008
			c-1.661,0-3.007-1.347-3.007-3.008c0-1.661,1.346-3.008,3.007-3.008s3.007,1.347,3.007,3.008
			C119.007,577.661,117.661,579.008,116,579.008z M123,590c0-3.866-3.134-7-7-7s-7,3.134-7,7s3.134,7,7,7S123,593.866,123,590z
			 M116,595c-2.761,0-5-2.238-5-5s2.239-5,5-5s5,2.238,5,5S118.761,595,116,595z"/>
	</g>
</g>
<g>
	<path style="fill:#FFFFFF;stroke:#FFFFFF;stroke-width:2;stroke-miterlimit:10;" d="M128.144,54.093H33.754
		c-0.811,0-1.468,0.657-1.468,1.468v99.971c0,0.811,0.657,1.468,1.468,1.468h99.969c0.811,0,1.468-0.657,1.468-1.468v-66.6
		c0-1.422-1.819-2.013-2.655-0.864l-2.552,3.507c-0.183,0.251-0.281,0.553-0.281,0.864v48.331c0,5.933-4.809,10.742-10.742,10.742
		H47.63c-5.443,0-9.855-4.412-9.855-9.855V67.551c0-4.401,3.568-7.969,7.969-7.969l79.809,0.002c0.386,0,0.756-0.152,1.031-0.423
		l2.591-2.555C130.109,55.685,129.457,54.093,128.144,54.093z"/>
</g>
<g>
	<path style="fill:#FFFFFF;stroke:#FFFFFF;stroke-width:2;stroke-miterlimit:10;" d="M66.172,134.993
		c-1.324,0-2.681-0.779-3.362-2.482c0,0,0-57.753,0-59.607c0-0.03,0.012-0.059,0.032-0.082c2.959-3.325,6.692-1.272,6.692,1.651
		v46.362c0,1.086,1.303,1.641,2.086,0.888l90.003-80.119c1.339-1.287,3.466-1.247,4.754,0.092c1.287,1.339,1.245,3.467-0.092,4.754
		l-97.782,87.602C67.865,134.668,67.025,134.993,66.172,134.993z"/>
</g>
</svg>
