<?xml version="1.0" encoding="utf-8"?>
<!-- Generator: Adobe Illustrator 19.0.0, SVG Export Plug-In . SVG Version: 6.00 Build 0)  -->
<svg version="1.1" id="Layer_1" xmlns="http://www.w3.org/2000/svg" xmlns:xlink="http://www.w3.org/1999/xlink" x="0px" y="0px"
	 viewBox="0 0 1024 1024" style="enable-background:new 0 0 1024 1024;" xml:space="preserve">
<style type="text/css">
	.st0{fill:#FFFFFF;}
</style>
<g>
	<g id="XMLID_11_">
		<path class="st0" d="M1543.3,3366.9c-8.9-1.3-15.4-5.2-16.6-14.4c-1.4-10.2,5.8-17.7,17.2-17.8c25.4-0.2,50.8-0.1,76.3-0.1
			c27.3,0,54.5-0.1,81.8,0c14,0.1,22.7,12.2,16,23c-2.7,4.4-8.3,7.1-14.2,11.8c0,15.8,0,34,0,52.2c0,29.4-0.1,58.7,0.1,88.1
			c0,3.5,1.1,7.3,2.8,10.3c34,59.3,68.3,118.4,102.4,177.6c10.6,18.4,17.1,38,13.6,59.6c-4.2,26.1-24.3,45.7-54.3,51.1
			c-14.6,2.6-29.9,2.7-44.8,2.8c-73.3,0.3-146.5,0.1-219.8,0.1c-16.8,0-33.2-2.5-48.2-10.8c-28.7-15.9-39.6-46.6-28.2-80
			c2.9-8.4,6.9-16.6,11.4-24.4c33.4-58.3,67.2-116.4,100.6-174.7c2.3-4,3.6-9,3.6-13.6c0.3-44.4,0.2-88.8,0.2-133.1
			C1543.3,3372.2,1543.3,3369.7,1543.3,3366.9z M1575.1,3366.7c-0.1,2.3-0.3,3.9-0.3,5.5c0,47.6,0.2,95.2-0.1,142.8
			c0,5.2-1.6,11-4.2,15.5c-35.1,61.3-70.5,122.5-105.7,183.8c-3.6,6.3-6.7,13.3-8.6,20.3c-3.6,13.3-2.4,26.3,9.6,35.1
			c13.7,10,29.8,10.3,46.9,9.7c-3.2-4.1-5.8-7-7.9-10.3c-9.5-14.6-12.1-29.6-2.9-45.6c21.7-37.3,43.2-74.8,64.7-112.2
			c2.1-3.6,4.3-5.1,8.6-5.1c44.8,0.2,89.7,0.1,134.5,0c2.9,0,5.8,0,9.5,0c-1-2.3-1.5-3.5-2.2-4.7c-13.5-23.4-27.2-46.7-40.3-70.3
			c-2.6-4.8-4.3-10.7-4.4-16.1c-0.3-46.7-0.2-93.4-0.2-140.1c0-2.7-0.2-5.4-0.4-8.4C1639.4,3366.7,1607.6,3366.7,1575.1,3366.7z"/>
	</g>
</g>
<g>
	<path class="st0" d="M681.4,252c0,117.5-36.3,193.9-90.4,229.4c-23.2,16.1-50.3,24.1-78.6,24.1c-28.3,0-55.3-8-78.6-24.1
		c-54.1-35.5-90.4-112-90.4-229.4c0-93.4,75.6-169,169-169C605.8,83,681.4,158.6,681.4,252z"/>
	<path class="st0" d="M596.1,478c9.3,48.2,33,94.6,85.3,112c126.8,42.2,211.2,84.5,211.2,211.2S512.4,928,512.4,928
		s-380.3,0-380.3-126.8s84.5-169,211.2-211.2c52.4-17.3,76.1-63.8,85.3-112"/>
</g>
</svg>
