<?xml version="1.0" encoding="utf-8"?>
<!-- Generator: Adobe Illustrator 19.1.0, SVG Export Plug-In . SVG Version: 6.00 Build 0)  -->
<svg version="1.1" id="Layer_1" xmlns="http://www.w3.org/2000/svg" xmlns:xlink="http://www.w3.org/1999/xlink" x="0px" y="0px"
	 viewBox="0 0 1000 1000" style="enable-background:new 0 0 1000 1000;" xml:space="preserve">
<style type="text/css">
	.st0{fill:#FFFFFF;}
	.st1{fill:none;stroke:#FFFFFF;stroke-width:6;stroke-miterlimit:10;}
	.st2{fill:#FFFFFF;stroke:#FFFFFF;stroke-width:6;stroke-miterlimit:10;}
</style>
<path class="st0" d="M500,25C237.7,25,25,237.7,25,500s212.7,475,475,475s475-212.7,475-475S762.3,25,500,25z M500,840.1
	c0,0-306.1,0-306.1-102.1s68-136,170-170c42.2-13.9,61.3-51.4,68.7-90.2h0.2c-41.3-29.7-68.8-90.3-68.8-181.9
	c0-75.2,60.9-136,136-136s136,60.9,136,136c0,91.7-27.4,152.3-68.8,181.9h0.1c7.5,38.8,26.6,76.2,68.7,90.2c102.1,34,170,68,170,170
	S500,840.1,500,840.1z"/>
</svg>
