<?xml version="1.0" encoding="utf-8"?>
<!-- Generator: Adobe Illustrator 19.1.0, SVG Export Plug-In . SVG Version: 6.00 Build 0)  -->
<svg version="1.1" id="Layer_1" xmlns="http://www.w3.org/2000/svg" xmlns:xlink="http://www.w3.org/1999/xlink" x="0px" y="0px"
	 viewBox="0 0 200 200" style="enable-background:new 0 0 200 200;" xml:space="preserve">
<style type="text/css">
	.st0{fill:#CCCCCC;}
</style>
<path class="st0" d="M99,0C53,0,14.3,31,2.6,73.3h117c1.2,0,2.2-1,2.2-2.2V50.9c0-2,2.4-3,3.8-1.6l49.1,49.1c0.9,0.9,0.9,2.3,0,3.2
	l-49.1,50c-1.4,1.4-3.8,0.4-3.8-1.6v-18c0-1.2-1-2.2-2.2-2.2H3.5C16.2,170.5,54.2,200,99,200c55.2,0,100-44.8,100-100
	C199,44.8,154.2,0,99,0z"/>
</svg>
