<?xml version="1.0" encoding="iso-8859-1"?>
<!-- Generator: Adobe Illustrator 19.0.0, SVG Export Plug-In . SVG Version: 6.00 Build 0)  -->
<svg version="1.1" id="Layer_1" xmlns="http://www.w3.org/2000/svg" xmlns:xlink="http://www.w3.org/1999/xlink" x="0px" y="0px"
	 viewBox="0 0 192 192" style="enable-background:new 0 0 192 192;" xml:space="preserve">
<path style="fill:#24163F;" d="M95.229,1.03C42.863,1.03,0.259,43.633,0.259,96c0,52.366,42.604,94.97,94.97,94.97
	c52.366,0,94.97-42.604,94.97-94.97C190.199,43.633,147.595,1.03,95.229,1.03z"/>
<g id="_x31__12_">
	<g>
		<path style="fill:#FFFFFF;" d="M124,567h-16c-2.209,0-4,1.791-4,4v24c0,2.209,1.791,4,4,4h16c2.209,0,4-1.791,4-4v-24
			C128,568.791,126.209,567,124,567z M126,595c0,1.104-0.896,2-2,2h-8h-8c-1.104,0-2-0.896-2-2v-24c0-1.104,0.896-2,2-2h16
			c1.104,0,2,0.896,2,2V595z M116,571c-2.761,0-5,2.238-5,5s2.239,5,5,5s5-2.238,5-5S118.761,571,116,571z M116,579.008
			c-1.661,0-3.007-1.347-3.007-3.008c0-1.661,1.346-3.008,3.007-3.008s3.007,1.347,3.007,3.008
			C119.007,577.661,117.661,579.008,116,579.008z M123,590c0-3.866-3.134-7-7-7s-7,3.134-7,7s3.134,7,7,7S123,593.866,123,590z
			 M116,595c-2.761,0-5-2.238-5-5s2.239-5,5-5s5,2.238,5,5S118.761,595,116,595z"/>
	</g>
</g>
<path style="fill:#FFFFFF;" d="M165.575,54.952c-13.664-10.252-28.894-17.302-45.264-20.952c-8.384-1.869-16.846-2.782-25.311-2.738
	c-8.465-0.044-16.927,0.868-25.311,2.738c-16.37,3.65-31.6,10.699-45.264,20.952l-1.716,1.287l0.107,2.272
	c0.309,6.607,1.078,13.249,2.288,19.741c7.581,40.679,32.685,75.45,67.151,93.011l2.371,1.209l0.304,0.266l0.21-0.17l0.013,0.017
	l2.593-1.322c34.466-17.561,59.569-52.332,67.151-93.011c1.21-6.492,1.979-13.134,2.288-19.741l0.107-2.272L165.575,54.952z
	 M115.643,58.065c6.655,35.707-0.866,72.229-20.642,101.306C75.223,130.293,67.703,93.771,74.358,58.065
	c1.085-5.823,2.57-11.642,4.42-17.331c0.746-0.12,1.494-0.202,2.241-0.305c4.383-0.547,8.803-0.849,13.255-0.849
	c5.74,0,11.416,0.453,17.008,1.346C113.103,46.554,114.569,52.307,115.643,58.065z M54.807,47.121
	c5.133-2.027,10.366-3.628,15.671-4.841c-1.366,4.678-2.519,9.415-3.403,14.16c-5.316,28.526-2.123,57.535,8.7,83.316
	c-14.282-21.472-22.133-47.437-22.133-74.688C53.641,59.126,54.033,53.1,54.807,47.121z M122.926,56.441
	c-0.864-4.637-1.987-9.264-3.312-13.838c6.129,1.489,12.142,3.522,18.009,6.102c0.653,5.412,0.985,10.906,0.985,16.363
	c0,29.094-9.563,57.157-26.35,79.173C124.654,117.368,128.552,86.633,122.926,56.441z M32.387,76.629
	c-0.997-5.347-1.675-10.803-2.023-16.249c5.297-3.824,10.838-7.14,16.593-9.944c-0.485,4.887-0.75,9.785-0.75,14.633
	c0,30.478,9.234,59.438,25.938,82.925C51.95,130.115,37.655,104.896,32.387,76.629z M157.613,76.629
	c-4.956,26.592-17.897,50.491-36.226,68.115c15.758-22.693,24.654-50.703,24.654-79.675c0-4.481-0.228-8.982-0.643-13.452
	c4.915,2.542,9.667,5.464,14.238,8.763C159.287,65.825,158.609,71.281,157.613,76.629z"/>
</svg>
