<?xml version="1.0" encoding="iso-8859-1"?>
<!-- Generator: Adobe Illustrator 19.0.0, SVG Export Plug-In . SVG Version: 6.00 Build 0)  -->
<svg version="1.1" id="Layer_1" xmlns="http://www.w3.org/2000/svg" xmlns:xlink="http://www.w3.org/1999/xlink" x="0px" y="0px"
	 viewBox="0 0 1000 1200" style="enable-background:new 0 0 1000 1200;" xml:space="preserve">
<g id="XMLID_2_">
	<path id="XMLID_3_" style="fill:#23163F;" d="M797.53,271.678v136.967H572.041V219.799l187.782-22.779
		C703.06,114.323,607.883,60.054,500,60.054S296.94,114.323,240.177,197.02l187.783,22.779v188.846H202.471V271.678
		c-11.247,32.382-17.436,67.13-17.436,103.342c0,173.95,141.015,314.966,314.965,314.966S814.965,548.97,814.965,375.02
		C814.965,338.808,808.776,304.061,797.53,271.678z"/>
</g>
<g>
	<g>
		<path style="fill:#23163F;" d="M754.29,1988.179v-491.594h120.788c101.957,0,187.027,26.624,187.027,129.878
			c0,42.211-40.911,81.826-70.786,94.163c44.808,10.39,111.047,51.302,111.047,119.491c0,92.213-66.239,148.062-203.261,148.062
			H754.29z M885.468,1695.302c50.005,0,79.226-20.781,79.226-59.745c0-44.158-31.171-55.199-71.433-55.199h-46.758v114.944H885.468z
			 M916.639,1904.406c60.395,0,87.02-24.027,87.02-66.886c0-30.524-32.471-58.449-90.917-58.449h-66.239v125.334H916.639z"/>
		<path style="fill:#23163F;" d="M1141.305,1988.179v-331.842h84.423v52.602c7.794-16.884,33.768-61.695,72.733-61.695
			c29.871,0,46.108,8.444,59.745,16.237l-29.224,79.876c-10.39-7.144-24.677-16.884-45.458-16.884
			c-37.665,0-57.796,45.455-57.796,78.576v183.13H1141.305z"/>
		<path style="fill:#23163F;" d="M1607.549,1656.337h85.07v295.474c-38.962,33.771-87.667,46.108-148.712,46.108
			c-88.317,0-150.659-42.858-150.659-128.581v-213.001h85.07v193.52c0,64.939,36.368,79.876,74.683,79.876
			c28.571,0,46.755-9.74,54.549-15.587V1656.337z"/>
		<path style="fill:#23163F;" d="M1974.427,1988.179v-177.286c0-54.549-7.144-89.616-58.445-89.616
			c-29.221,0-61.692,23.377-70.783,37.015v229.888h-85.073v-532.506h85.073v234.432c16.234-15.584,54.549-43.508,105.2-43.508
			c70.786,0,109.1,35.715,109.1,119.488v222.094H1974.427z"/>
		<path style="fill:#23163F;" d="M2401.71,1957.008c-25.327,20.131-74.032,40.911-150.662,40.911
			c-101.954,0-148.712-56.495-148.712-120.788c0-75.979,72.732-104.554,135.075-104.554c22.731,0,64.292,7.794,83.123,22.081
			v-33.768c0-27.274-20.131-46.108-65.589-46.108c-42.861,0-79.226,13.637-92.213,19.481l-24.677-59.742
			c29.871-14.287,70.783-27.924,124.034-27.924c110.397,0,139.622,52.599,139.622,134.425V1957.008z M2320.534,1857.001
			c-13.637-11.69-41.562-24.027-68.836-24.027c-32.471,0-61.692,16.234-61.692,45.458c0,34.418,25.974,56.495,67.536,56.495
			c25.978,0,48.055-5.193,62.992-13.637V1857.001z"/>
	</g>
	<g>
		<polygon style="fill:#F37521;" points="1506.708,1607.458 1413.648,1607.458 1413.648,1518.232 1506.708,1529.52 		"/>
		<polygon style="fill:#F37521;" points="1672.219,1607.458 1579.159,1607.458 1579.159,1529.52 1672.219,1518.232 		"/>
	</g>
</g>
<g id="XMLID_14_">
	<g id="XMLID_18_">
		<path id="XMLID_28_" style="fill:#23163F;" d="M17.629,1133.87V845.989h70.734c59.707,0,109.524,15.591,109.524,76.057
			c0,24.719-23.958,47.918-41.453,55.143c26.24,6.085,65.03,30.043,65.03,69.975c0,54.001-38.79,86.706-119.031,86.706H17.629z
			 M94.448,962.359c29.283,0,46.395-12.169,46.395-34.987c0-25.859-18.254-32.325-41.831-32.325H71.63v67.312H94.448z
			 M112.702,1084.812c35.368,0,50.959-14.071,50.959-39.169c0-17.875-19.015-34.228-53.241-34.228H71.63v73.397H112.702z"/>
		<path id="XMLID_26_" style="fill:#23163F;" d="M244.268,1133.87V939.541h49.439v30.804c4.564-9.887,19.775-36.129,42.593-36.129
			c17.493,0,27.001,4.945,34.987,9.509L354.173,990.5c-6.085-4.183-14.451-9.887-26.621-9.887
			c-22.057,0-33.845,26.619-33.845,46.015v107.242H244.268z"/>
		<path id="XMLID_24_" style="fill:#23163F;" d="M517.304,939.541h49.818v173.032c-22.816,19.777-51.338,27.001-87.087,27.001
			c-51.719,0-88.227-25.098-88.227-75.298V939.541h49.817v113.327c0,38.029,21.297,46.776,43.735,46.776
			c16.731,0,27.38-5.704,31.944-9.128V939.541z"/>
		<path id="XMLID_22_" style="fill:#23163F;" d="M732.151,1133.87v-103.82c0-31.944-4.183-52.48-34.226-52.48
			c-17.112,0-36.127,13.69-41.451,21.676v134.624h-49.819V822.031h49.819v137.285c9.507-9.126,31.944-25.479,61.606-25.479
			c41.453,0,63.89,20.915,63.89,69.973v130.06H732.151z"/>
		<path id="XMLID_19_" style="fill:#23163F;" d="M982.371,1115.616c-14.832,11.789-43.354,23.958-88.229,23.958
			c-59.705,0-87.087-33.084-87.087-70.734c0-44.494,42.593-61.227,79.101-61.227c13.311,0,37.65,4.564,48.677,12.931v-19.775
			c0-15.972-11.789-27.001-38.409-27.001c-25.1,0-46.395,7.986-54.001,11.408l-14.451-34.985
			c17.493-8.367,41.451-16.353,72.635-16.353c64.649,0,81.763,30.802,81.763,78.72V1115.616z M934.833,1057.051
			c-7.986-6.846-24.339-14.071-40.311-14.071c-19.015,0-36.127,9.507-36.127,26.621c0,20.155,15.211,33.084,39.549,33.084
			c15.213,0,28.141-3.042,36.889-7.986V1057.051z"/>
	</g>
	<g id="XMLID_15_">
		<polygon id="XMLID_4_" style="fill:#F37521;" points="458.251,910.917 403.754,910.917 403.754,858.666 458.251,865.276 		"/>
		<polygon id="XMLID_1_" style="fill:#F37521;" points="555.176,910.917 500.679,910.917 500.679,865.276 555.176,858.666 		"/>
	</g>
</g>
</svg>
