<?xml version="1.0" encoding="iso-8859-1"?>
<!-- Generator: Adobe Illustrator 19.0.0, SVG Export Plug-In . SVG Version: 6.00 Build 0)  -->
<svg version="1.1" id="Layer_1" xmlns="http://www.w3.org/2000/svg" xmlns:xlink="http://www.w3.org/1999/xlink" x="0px" y="0px"
	 viewBox="0 0 192 192" style="enable-background:new 0 0 192 192;" xml:space="preserve">
<path style="fill:#24163F;" d="M96,1.03C43.633,1.03,1.03,43.633,1.03,96c0,52.366,42.604,94.97,94.97,94.97
	c52.366,0,94.97-42.604,94.97-94.97C190.97,43.633,148.366,1.03,96,1.03z"/>
<g id="_x31__12_">
	<g>
		<path style="fill:#FFFFFF;" d="M124,567h-16c-2.209,0-4,1.791-4,4v24c0,2.209,1.791,4,4,4h16c2.209,0,4-1.791,4-4v-24
			C128,568.791,126.209,567,124,567z M126,595c0,1.104-0.896,2-2,2h-8h-8c-1.104,0-2-0.896-2-2v-24c0-1.104,0.896-2,2-2h16
			c1.104,0,2,0.896,2,2V595z M116,571c-2.761,0-5,2.238-5,5s2.239,5,5,5s5-2.238,5-5S118.761,571,116,571z M116,579.008
			c-1.661,0-3.007-1.347-3.007-3.008c0-1.661,1.346-3.008,3.007-3.008s3.007,1.347,3.007,3.008
			C119.007,577.661,117.661,579.008,116,579.008z M123,590c0-3.866-3.134-7-7-7s-7,3.134-7,7s3.134,7,7,7S123,593.866,123,590z
			 M116,595c-2.761,0-5-2.238-5-5s2.239-5,5-5s5,2.238,5,5S118.761,595,116,595z"/>
	</g>
</g>
<path style="fill:none;stroke:#FFFFFF;stroke-width:4;stroke-miterlimit:10;" d="M130.943,117.679v45.447
	c0,5.255-4.275,9.53-9.53,9.53H70.587c-5.255,0-9.53-4.275-9.53-9.53v-45.447c0-4.402,1.964-8.674,5.531-12.028
	c2.578-2.425,3.999-5.703,3.999-9.235c0-3.512-1.405-6.778-3.958-9.196c-3.518-3.335-5.119-8.412-4.287-13.58l4.25-26.389
	c0.745-4.642,4.7-8.014,9.409-8.014h40c4.703,0,8.662,3.37,9.409,8.014l4.25,26.388c0.831,5.17-0.769,10.247-4.284,13.58
	c-2.556,2.42-3.962,5.686-3.962,9.198c0,3.532,1.421,6.81,3.999,9.233C128.979,109.005,130.943,113.277,130.943,117.679z"/>
<line style="fill:none;stroke:#FFFFFF;stroke-width:4;stroke-linecap:round;stroke-miterlimit:10;" x1="75.377" y1="89.229" x2="115.547" y2="89.229"/>
<line style="fill:none;stroke:#FFFFFF;stroke-width:4;stroke-linecap:round;stroke-miterlimit:10;" x1="75.377" y1="102.3" x2="115.547" y2="102.3"/>
<line style="fill:none;stroke:#FFFFFF;stroke-width:4;stroke-linecap:round;stroke-miterlimit:10;" x1="82.148" y1="96" x2="109.852" y2="96"/>
<path style="fill:none;stroke:#FFFFFF;stroke-width:3;stroke-miterlimit:10;" d="M88,22.333h2.667v8
	c0,1.472,1.193,2.667,2.667,2.667h5.333c1.474,0,2.667-1.194,2.667-2.667v-8H104c1.474,0,2.667-1.194,2.667-2.667
	c0-1.472-1.193-2.667-2.667-2.667H88c-1.474,0-2.667,1.194-2.667,2.667C85.333,21.139,86.526,22.333,88,22.333z"/>
</svg>
