<?xml version="1.0" encoding="utf-8"?>
<!-- Generator: Adobe Illustrator 19.1.0, SVG Export Plug-In . SVG Version: 6.00 Build 0)  -->
<svg version="1.1" id="Layer_1" xmlns="http://www.w3.org/2000/svg" xmlns:xlink="http://www.w3.org/1999/xlink" x="0px" y="0px"
	 viewBox="0 0 200 95.8" style="enable-background:new 0 0 200 95.8;" xml:space="preserve">
<style type="text/css">
	.st0{fill:#CCCCCC;}
</style>
<path class="st0" d="M195.9,51.6H4.1c-1.4,0-2.5-1.1-2.5-2.5v-4.3c0-1.4,1.1-2.5,2.5-2.5h191.8c1.4,0,2.5,1.1,2.5,2.5v4.3
	C198.4,50.5,197.3,51.6,195.9,51.6z"/>
<path class="st0" d="M173.6,30.6H26.4c-1.4,0-2.5-1.1-2.5-2.5v-4.3c0-1.4,1.1-2.5,2.5-2.5h147.1c1.4,0,2.5,1.1,2.5,2.5v4.3
	C176,29.5,174.9,30.6,173.6,30.6z"/>
<path class="st0" d="M173.6,73.6H26.4c-1.4,0-2.5-1.1-2.5-2.5v-4.3c0-1.4,1.1-2.5,2.5-2.5h147.1c1.4,0,2.5,1.1,2.5,2.5v4.3
	C176,72.5,174.9,73.6,173.6,73.6z"/>
</svg>
