<?xml version="1.0" encoding="iso-8859-1"?>
<!-- Generator: Adobe Illustrator 19.0.0, SVG Export Plug-In . SVG Version: 6.00 Build 0)  -->
<svg version="1.1" id="Layer_1" xmlns="http://www.w3.org/2000/svg" xmlns:xlink="http://www.w3.org/1999/xlink" x="0px" y="0px"
	 viewBox="0 0 192 192" style="enable-background:new 0 0 192 192;" xml:space="preserve">
<path style="fill:#24163F;" d="M96,1.03C43.633,1.03,1.03,43.633,1.03,96c0,52.366,42.604,94.97,94.97,94.97
	c52.366,0,94.97-42.604,94.97-94.97C190.97,43.633,148.366,1.03,96,1.03z"/>
<g>
	<path style="fill:#FFFFFF;" d="M122.846,30.633l-12.979,48.93c-0.479,1.806-0.1,3.691,1.039,5.172
		c1.139,1.481,2.864,2.33,4.733,2.33h12.624l-59.274,74.454l12.804-47.723c0.485-1.808,0.11-3.697-1.029-5.182
		c-1.139-1.485-2.866-2.337-4.738-2.337H63.69L122.846,30.633 M127.313,19.608c-0.547,0-1.104,0.231-1.523,0.767l-67.814,86.716
		c-1.012,1.294-0.09,3.186,1.553,3.186h16.496c1.297,0,2.24,1.23,1.904,2.482l-15.33,57.14c-0.38,1.415,0.754,2.493,1.934,2.493
		c0.542,0,1.094-0.227,1.513-0.754l67.967-85.374c1.028-1.292,0.109-3.2-1.542-3.2h-16.832c-1.294,0-2.238-1.226-1.906-2.477
		l15.515-58.493C129.624,20.68,128.491,19.608,127.313,19.608L127.313,19.608z"/>
</g>
</svg>
