<?xml version="1.0" encoding="iso-8859-1"?>
<!-- Generator: Adobe Illustrator 19.0.0, SVG Export Plug-In . SVG Version: 6.00 Build 0)  -->
<svg version="1.1" id="Layer_1" xmlns="http://www.w3.org/2000/svg" xmlns:xlink="http://www.w3.org/1999/xlink" x="0px" y="0px"
	 viewBox="0 0 124 124" style="enable-background:new 0 0 124 124;" xml:space="preserve">
<g>
	<path style="fill:#FFFFFF;" d="M91.249,14.223c0.351-0.351,0.728-0.66,1.115-0.948l-7.169-7.169c-2.055-2.055-5.388-2.055-7.443,0
		L6.106,77.752c-2.055,2.055-2.055,5.388,0,7.443l7.12,7.12c0.205-0.248,0.421-0.49,0.653-0.722c3.934-3.934,10.312-3.934,14.246,0
		c3.934,3.934,3.934,10.312,0,14.246c-0.232,0.232-0.474,0.448-0.722,0.653l7.12,7.12c2.055,2.055,5.388,2.055,7.443,0
		l71.646-71.646c2.055-2.055,2.055-5.388,0-7.443l-7.169-7.169c-0.289,0.387-0.597,0.763-0.948,1.115
		c-3.934,3.934-10.312,3.934-14.246,0C87.315,24.535,87.315,18.157,91.249,14.223z M79.956,54.146L40.57,93.532L26.385,79.347
		l39.386-39.386L79.956,54.146z M76.09,54.224L40.522,89.793L30.385,79.656l35.569-35.569L76.09,54.224z M98.517,52.743
		l-1.719,1.719l-3.416-3.416l1.719-1.719L98.517,52.743z M91.686,45.912l-1.719,1.719l-3.415-3.415l1.719-1.719L91.686,45.912z
		 M84.856,39.081l-1.719,1.719l-3.416-3.415l1.719-1.719L84.856,39.081z M78.025,32.251l-1.719,1.719l-3.415-3.416l1.719-1.719
		L78.025,32.251z M71.194,25.42l-1.719,1.719l-3.416-3.415l1.719-1.719L71.194,25.42z"/>
</g>
</svg>
