<?xml version="1.0" encoding="utf-8"?>
<!-- Generator: Adobe Illustrator 19.1.0, SVG Export Plug-In . SVG Version: 6.00 Build 0)  -->
<svg version="1.1" id="Layer_1" xmlns="http://www.w3.org/2000/svg" xmlns:xlink="http://www.w3.org/1999/xlink" x="0px" y="0px"
	 viewBox="350 -350 1000 1000" style="enable-background:new 350 -350 1000 1000;" xml:space="preserve">
<style type="text/css">
	.st0{fill:#FFFFFF;}
</style>
<g>
	<rect x="727.8" y="-36.9" class="st0" width="27.9" height="14"/>
	<rect x="783.5" y="-36.9" class="st0" width="27.9" height="14"/>
	<rect x="839.3" y="-36.9" class="st0" width="27.9" height="14"/>
	<path class="st0" d="M792.9,366.3h115.8V44.6H792.9V366.3z M810.5,60.7h82.8v290.5h-82.8V60.7z"/>
	<rect x="895.1" y="-36.9" class="st0" width="27.9" height="14"/>
	<rect x="950.9" y="-36.9" class="st0" width="27.9" height="14"/>
	<path class="st0" d="M850-325c-262.3,0-475,212.7-475,475s212.7,475,475,475s475-212.7,475-475S1112.3-325,850-325z M996.4,442.6
		c0,16.8-13.6,30.4-30.4,30.4h-58.1c0.2-1.8,0.3-3.7,0.3-5.6c0-32.1-26-58.2-58.2-58.2c-32.1,0-58.2,26-58.2,58.2
		c0,1.9,0.1,3.8,0.3,5.6H734c-16.8,0-30.4-13.6-30.4-30.4v-585.2c0-16.8,13.6-30.4,30.4-30.4h58.5c-0.4,2.8-0.7,5.6-0.7,8.4
		c0,32.1,26,58.2,58.2,58.2c32.1,0,58.2-26,58.2-58.2c0-2.9-0.3-5.7-0.7-8.4H966c16.8,0,30.4,13.6,30.4,30.4V442.6z"/>
</g>
</svg>
