<?xml version="1.0" encoding="utf-8"?>
<!-- Generator: Adobe Illustrator 19.2.1, SVG Export Plug-In . SVG Version: 6.00 Build 0)  -->
<svg version="1.1" id="Layer_1" xmlns="http://www.w3.org/2000/svg" xmlns:xlink="http://www.w3.org/1999/xlink" x="0px" y="0px"
	 viewBox="104 -194 1000 1000" style="enable-background:new 104 -194 1000 1000;" xml:space="preserve">
<style type="text/css">
	.st0{fill:#FFFFFF;}
	.st1{fill:none;stroke:#FFFFFF;stroke-width:15;stroke-miterlimit:10;}
</style>
<g>
	<rect x="564.5" y="216.7" class="st0" width="82.8" height="290.5"/>
	<path class="st0" d="M720-17h-58.5c0.4,2.7,0.7,5.5,0.7,8.4c0,32.2-26.1,58.2-58.2,58.2c-32.2,0-58.2-26.1-58.2-58.2
		c0-2.8,0.3-5.6,0.7-8.4H488c-16.8,0-30.4,13.6-30.4,30.4v585.2c0,16.8,13.6,30.4,30.4,30.4h58.1c-0.2-1.8-0.3-3.7-0.3-5.6
		c0-32.2,26.1-58.2,58.2-58.2c32.2,0,58.2,26.1,58.2,58.2c0,1.9-0.1,3.8-0.3,5.6H720c16.8,0,30.4-13.6,30.4-30.4V13.4
		C750.4-3.4,736.8-17,720-17z M593.3,119.1h27.9v14h-27.9V119.1z M509.7,133.1h-27.9v-14h27.9V133.1z M537.5,133.1v-14h27.9v14
		H537.5z M662.7,522.3H546.9V200.6h115.8V522.3z M677,133.1h-27.9v-14H677V133.1z M732.8,133.1h-27.9v-14h27.9V133.1z"/>
</g>
<path class="st1" d="M604-169c-262.3,0-475,212.7-475,475s212.7,475,475,475s475-212.7,475-475S866.3-169,604-169z"/>
</svg>
