<?xml version="1.0" encoding="iso-8859-1"?>
<!-- Generator: Adobe Illustrator 19.0.0, SVG Export Plug-In . SVG Version: 6.00 Build 0)  -->
<svg version="1.1" id="Layer_1" xmlns="http://www.w3.org/2000/svg" xmlns:xlink="http://www.w3.org/1999/xlink" x="0px" y="0px"
	 viewBox="0 0 192 192" style="enable-background:new 0 0 192 192;" xml:space="preserve">
<path style="fill:#24163F;" d="M95.229,1.03C42.863,1.03,0.259,43.633,0.259,96c0,52.366,42.604,94.97,94.97,94.97
	c52.366,0,94.97-42.604,94.97-94.97C190.199,43.633,147.595,1.03,95.229,1.03z"/>
<g id="_x31__12_">
	<g>
		<path style="fill:#FFFFFF;" d="M124,567h-16c-2.209,0-4,1.791-4,4v24c0,2.209,1.791,4,4,4h16c2.209,0,4-1.791,4-4v-24
			C128,568.791,126.209,567,124,567z M126,595c0,1.104-0.896,2-2,2h-8h-8c-1.104,0-2-0.896-2-2v-24c0-1.104,0.896-2,2-2h16
			c1.104,0,2,0.896,2,2V595z M116,571c-2.761,0-5,2.238-5,5s2.239,5,5,5s5-2.238,5-5S118.761,571,116,571z M116,579.008
			c-1.661,0-3.007-1.347-3.007-3.008c0-1.661,1.346-3.008,3.007-3.008s3.007,1.347,3.007,3.008
			C119.007,577.661,117.661,579.008,116,579.008z M123,590c0-3.866-3.134-7-7-7s-7,3.134-7,7s3.134,7,7,7S123,593.866,123,590z
			 M116,595c-2.761,0-5-2.238-5-5s2.239-5,5-5s5,2.238,5,5S118.761,595,116,595z"/>
	</g>
</g>
<g>
	<polygon style="fill:#FFFFFF;" points="101.394,87.956 101.394,172.7 80.594,172.7 80.594,91.406 75.794,92.202 75.794,177.5 
		106.194,177.5 106.194,87.16 	"/>
	<polygon style="fill:#FFFFFF;" points="80.594,59.895 80.594,26.3 101.394,26.3 101.394,56.445 106.194,55.649 106.194,21.5 
		75.794,21.5 75.794,60.691 	"/>
</g>
<polygon style="fill:#24163F;stroke:#FFFFFF;stroke-width:3;stroke-miterlimit:10;" points="168.949,60.884 133.11,47.426 
	134.503,55.819 40.934,71.339 44.45,92.535 138.018,77.016 139.374,85.192 "/>
</svg>
