<?xml version="1.0" encoding="utf-8"?>
<!-- Generator: Adobe Illustrator 19.2.1, SVG Export Plug-In . SVG Version: 6.00 Build 0)  -->
<svg version="1.1" id="Layer_1" xmlns="http://www.w3.org/2000/svg" xmlns:xlink="http://www.w3.org/1999/xlink" x="0px" y="0px"
	 viewBox="0 0 1000 1000" style="enable-background:new 0 0 1000 1000;" xml:space="preserve">
<style type="text/css">
	.st0{fill:none;stroke:#FFFFFF;stroke-width:15;stroke-miterlimit:10;}
	.st1{fill:#FFFFFF;}
</style>
<path class="st0" d="M500,25C237.7,25,25,237.7,25,500s212.7,475,475,475s475-212.7,475-475S762.3,25,500,25z"/>
<path class="st1" d="M750.5,668.4c-46.1-79.8-92.3-159.6-138.2-239.6c-2.3-4.1-3.8-9.3-3.8-14c-0.3-39.6-0.2-79.2-0.2-118.8
	c0-24.6,0-49.2,0-70.5c8-6.4,15.5-9.9,19.2-15.9c9-14.6-2.8-30.9-21.6-31c-36.8-0.1-73.6,0-110.4,0c-34.3,0-68.6-0.1-102.9,0.1
	c-15.4,0.1-25.1,10.2-23.2,24c1.7,12.4,10.4,17.6,22.4,19.4c0,3.7,0,7.1,0,10.5c0,59.9,0.2,119.7-0.2,179.6c0,6.1-1.8,13-4.9,18.3
	c-45.1,78.7-90.6,157.1-135.7,235.7c-6,10.4-11.4,21.5-15.3,32.9c-15.5,45-0.8,86.5,38,107.9c20.2,11.1,42.3,14.5,65,14.5
	c98.8,0.1,197.7,0.3,296.5-0.1c20.2-0.1,40.8-0.3,60.5-3.8c40.5-7.2,67.7-33.7,73.3-68.9C773.7,719.6,764.9,693.2,750.5,668.4z
	 M616.3,544.8c-60.5,0-121,0.1-181.5-0.1c-5.8,0-8.8,2-11.6,6.9c-28.9,50.5-58,101-87.2,151.4c-12.4,21.5-8.9,41.8,3.9,61.5
	c2.9,4.4,6.4,8.4,10.7,13.9c-23.1,0.8-44.8,0.4-63.3-13.1c-16.2-11.9-17.7-29.4-12.9-47.3c2.6-9.5,6.7-18.8,11.6-27.4
	c47.4-82.7,95.3-165.1,142.6-247.9c3.5-6.1,5.6-13.9,5.6-20.9c0.4-64.2,0.2-128.5,0.2-192.7c0-2.2,0.2-4.3,0.4-7.5
	c43.8,0,86.6,0,130.5,0c0.2,4.1,0.5,7.7,0.5,11.3c0,63-0.1,126,0.3,189c0.1,7.3,2.3,15.4,5.9,21.8c17.8,31.8,36.3,63.3,54.2,94.8
	c0.9,1.5,1.5,3.2,2.9,6.3C624.1,544.8,620.2,544.8,616.3,544.8z"/>
</svg>
