<?xml version="1.0" encoding="iso-8859-1"?>
<!-- Generator: Adobe Illustrator 19.0.0, SVG Export Plug-In . SVG Version: 6.00 Build 0)  -->
<svg version="1.1" id="Layer_1" xmlns="http://www.w3.org/2000/svg" xmlns:xlink="http://www.w3.org/1999/xlink" x="0px" y="0px"
	 viewBox="0 0 124 124" style="enable-background:new 0 0 124 124;" xml:space="preserve">
<circle id="XMLID_1_" style="fill:#FA7508;" cx="62" cy="62" r="61"/>
<g id="XMLID_7_">
	<g id="XMLID_6_">
		<path id="XMLID_13_" style="fill:#FFFFFF;" d="M62,103.849c-30.74,0-55.748-17.237-55.748-38.425C6.252,44.237,31.26,27,62,27
			c30.739,0,55.748,17.237,55.748,38.424C117.748,86.611,92.739,103.849,62,103.849z M62,31c-28.534,0-51.748,15.442-51.748,34.424
			S33.466,99.849,62,99.849s51.748-15.443,51.748-34.425S90.534,31,62,31z"/>
	</g>
	<g id="XMLID_5_">
		<path id="XMLID_10_" style="fill:#FFFFFF;" d="M61.603,104.667c-26.331,0-47.752-14.807-47.752-33.006
			c0-18.2,21.422-33.006,47.752-33.006s47.752,14.806,47.752,33.006C109.355,89.86,87.934,104.667,61.603,104.667z M61.603,42.655
			c-24.125,0-43.752,13.012-43.752,29.006c0,15.994,19.627,29.006,43.752,29.006c24.125,0,43.752-13.012,43.752-29.006
			C105.355,55.667,85.729,42.655,61.603,42.655z"/>
	</g>
	<g id="XMLID_4_">
		<path id="XMLID_3_" style="fill:#FFFFFF;" d="M61.927,101.423c-20.187,0-36.609-11.419-36.609-25.454
			c0-14.036,16.423-25.455,36.609-25.455s36.609,11.419,36.609,25.455C98.536,90.004,82.113,101.423,61.927,101.423z M61.927,54.514
			c-17.981,0-32.609,9.625-32.609,21.455s14.628,21.454,32.609,21.454c17.98,0,32.609-9.624,32.609-21.454
			S79.907,54.514,61.927,54.514z"/>
	</g>
</g>
</svg>
