<?xml version="1.0" encoding="iso-8859-1"?>
<!-- Generator: Adobe Illustrator 19.0.0, SVG Export Plug-In . SVG Version: 6.00 Build 0)  -->
<svg version="1.1" id="Layer_1" xmlns="http://www.w3.org/2000/svg" xmlns:xlink="http://www.w3.org/1999/xlink" x="0px" y="0px"
	 viewBox="0 0 124 124" style="enable-background:new 0 0 124 124;" xml:space="preserve">
<circle id="XMLID_1_" style="fill:#FA7508;" cx="62" cy="62" r="61"/>
<g id="XMLID_45_">
	<path id="XMLID_3_" style="fill:#FFFFFF;" d="M102.09,85.385h-9.628V72.817c0-1.221-0.994-2.215-2.214-2.215
		c-1.221,0-2.215,0.994-2.215,2.215v12.568H78.02V74.79c0-1.221-0.994-2.214-2.214-2.214c-1.221,0-2.215,0.994-2.215,2.214v10.595
		h-8.772V74.79c0-1.221-0.994-2.214-2.215-2.214c-1.221,0-2.215,0.994-2.215,2.214v10.595h-8.915V74.79
		c0-1.221-0.994-2.214-2.215-2.214c-1.221,0-2.215,0.994-2.215,2.214v10.595H35.964V72.798c0-1.221-0.994-2.215-2.215-2.215
		c-1.221,0-2.215,0.994-2.215,2.215v12.587h-8.984c-2.484,0-4.635-1.598-5.354-3.976L6.237,45.138
		c-0.427-1.412-0.043-2.936,1.003-3.978c1.041-1.038,2.561-1.416,3.964-0.986c15.574,4.763,40.089,6.454,56.351,6.454
		c5.655,0,25.528-0.254,43.803-3.523h0.001c1.952-0.348,3.897,0.337,5.2,1.836c1.304,1.501,1.711,3.526,1.091,5.415l-10.245,31.181
		C106.648,83.839,104.513,85.385,102.09,85.385z M95.522,82.325h6.569c1.097,0,2.064-0.7,2.406-1.743l10.245-31.182
		c0.282-0.856,0.097-1.773-0.494-2.453c-0.598-0.688-1.454-0.991-2.351-0.83l0,0c-18.524,3.313-38.623,3.571-44.342,3.571
		c-17.263,0-41.367-1.73-57.246-6.587c-0.471-0.143-0.793,0.111-0.909,0.227c-0.119,0.118-0.379,0.445-0.233,0.925l10.96,36.272
		c0.325,1.076,1.3,1.8,2.425,1.8h5.925v-9.527c0-2.908,2.366-5.275,5.274-5.275s5.274,2.367,5.274,5.275v9.527h4.961V74.79
		c0-2.908,2.366-5.274,5.274-5.274c2.908,0,5.274,2.366,5.274,5.274v7.535h2.796V74.79c0-2.908,2.366-5.274,5.274-5.274
		c2.908,0,5.275,2.366,5.275,5.274v7.535h2.653V74.79c0-2.908,2.366-5.274,5.274-5.274c2.908,0,5.275,2.366,5.275,5.274v7.535h3.893
		v-9.508c0-2.908,2.367-5.275,5.275-5.275s5.274,2.367,5.274,5.275V82.325z"/>
</g>
</svg>
