<?xml version="1.0" encoding="iso-8859-1"?>
<!-- Generator: Adobe Illustrator 19.0.0, SVG Export Plug-In . SVG Version: 6.00 Build 0)  -->
<svg version="1.1" id="Layer_1" xmlns="http://www.w3.org/2000/svg" xmlns:xlink="http://www.w3.org/1999/xlink" x="0px" y="0px"
	 viewBox="0 0 124 124" style="enable-background:new 0 0 124 124;" xml:space="preserve">
<circle id="XMLID_1_" style="fill:#FA7508;" cx="62" cy="62" r="61"/>
<g id="XMLID_2_">
	<g id="XMLID_13_">
		<path id="XMLID_36_" style="fill:#FFFFFF;" d="M57.26,42.383c-0.094,0-0.189-0.013-0.282-0.039
			c-0.408-0.115-0.706-0.466-0.753-0.888c-0.011-0.096-0.742-5.966-5.54-8.552c-0.428-0.231-0.639-0.727-0.509-1.196
			c0.147-0.525,3.667-12.918,10.632-17.579c0.335-0.224,0.769-0.235,1.114-0.028c0.328,0.197,8.068,4.955,11.309,16.992
			c0.102,0.378-0.018,0.782-0.309,1.044c-0.05,0.045-4.996,4.551-5.269,9.264c-0.025,0.424-0.305,0.791-0.708,0.926
			c-0.402,0.136-0.848,0.012-1.123-0.311c-0.018-0.021-1.958-2.261-4.256-2.193c-1.234,0.034-2.406,0.758-3.483,2.153
			C57.883,42.238,57.577,42.383,57.26,42.383z M61.659,37.742c1.713,0,3.203,0.796,4.237,1.558c1.004-3.843,3.986-7.093,5.16-8.257
			c-1.593-5.519-4.209-9.296-6.156-11.518c-1.474-1.682-2.791-2.744-3.5-3.261c-5.06,3.858-8.149,12.612-8.987,15.243
			c3.354,2.144,4.825,5.534,5.448,7.694c1.122-0.937,2.348-1.426,3.663-1.458C61.57,37.743,61.615,37.742,61.659,37.742z"/>
	</g>
	<g id="XMLID_15_">
		<path id="XMLID_33_" style="fill:#FFFFFF;" d="M47.075,60.312c-0.269,0-0.533-0.105-0.731-0.3
			c-2.101-2.071-8.382-7.541-12.17-7.97c-0.537-0.061-0.939-0.523-0.923-1.063c0.015-0.524,0.46-12.942,9.175-22.049
			c0.365-0.381,0.959-0.429,1.38-0.11c0.366,0.277,8.999,6.889,11.595,15.657c0.095,0.321,0.03,0.667-0.175,0.932
			c-0.057,0.075-5.786,7.541-7.132,14.072c-0.077,0.374-0.352,0.675-0.717,0.786C47.278,60.298,47.176,60.312,47.075,60.312z
			 M35.393,50.158c3.925,0.989,8.808,5.068,11.108,7.15c1.669-5.594,5.579-11.148,6.75-12.734
			c-2.124-6.473-7.919-11.776-9.97-13.501C36.96,38.177,35.652,47.317,35.393,50.158z"/>
	</g>
	<g id="XMLID_16_">
		<path id="XMLID_30_" style="fill:#FFFFFF;" d="M46.764,80.58c-0.169,0-0.337-0.041-0.49-0.123
			c-0.094-0.05-9.439-4.961-18.501-3.324c-0.519,0.097-1.033-0.22-1.183-0.729c-0.118-0.4-2.85-9.946,0.776-22.717
			c0.149-0.528,0.688-0.849,1.219-0.733c0.46,0.099,11.409,2.581,22.737,16.898c0.295,0.373,0.299,0.9,0.01,1.278
			c-0.034,0.044-3.386,4.473-3.527,8.447c-0.013,0.359-0.21,0.685-0.521,0.864C47.123,80.533,46.943,80.58,46.764,80.58z
			 M31.699,74.712c6.166,0,11.716,2.136,14.197,3.253c0.579-3.157,2.42-6.139,3.305-7.433C40.39,59.66,31.877,56.166,29.094,55.261
			c-2.481,9.534-1.263,17.157-0.722,19.671C29.491,74.779,30.605,74.712,31.699,74.712z"/>
	</g>
	<g id="XMLID_17_">
		<path id="XMLID_27_" style="fill:#FFFFFF;" d="M60.639,110.046h-7.795c-0.027,0-0.054-0.001-0.082-0.003
			c-9.283-0.73-21.752-3.939-28.444-15.078c-3.855-6.417-4.003-12.482-4.007-13.191c-0.008-0.135,0.011-0.273,0.057-0.405
			c0.311-0.884,0.405-1.151,18.183-0.686c7.947,0.207,14.474,5.191,18.876,14.413c3.259,6.828,4.205,13.487,4.243,13.767
			c0.041,0.298-0.049,0.599-0.246,0.826C61.226,109.915,60.94,110.046,60.639,110.046z M52.885,107.964h6.517
			c-0.978-5.084-5.75-24.807-20.905-25.202c-10.739-0.28-14.646-0.217-16.06-0.143c0.152,1.899,0.816,6.572,3.716,11.358
			C31.166,102.249,40.159,106.955,52.885,107.964z"/>
	</g>
	<g id="XMLID_21_">
		<path id="XMLID_24_" style="fill:#FFFFFF;" d="M76.894,60.312c-0.101,0-0.203-0.015-0.303-0.045
			c-0.382-0.116-0.663-0.441-0.725-0.835c-1.245-7.973-6.983-13.871-7.04-13.929c-0.275-0.279-0.37-0.688-0.246-1.059
			c2.922-8.788,11.22-15.34,11.572-15.615c0.433-0.338,1.055-0.281,1.42,0.131c8.407,9.517,9.12,21.489,9.146,21.994
			c0.027,0.526-0.342,0.989-0.861,1.079c-5.713,0.99-12.134,7.874-12.198,7.944C77.458,60.194,77.18,60.312,76.894,60.312z
			 M70.756,44.524c1.332,1.488,5.22,6.243,6.776,12.638c2.184-2.073,6.595-5.817,11.024-6.973c-0.32-2.784-1.787-11.688-7.887-19.08
			C78.641,32.872,73.111,38.098,70.756,44.524z"/>
	</g>
	<g id="XMLID_20_">
		<path id="XMLID_14_" style="fill:#FFFFFF;" d="M76.166,80.579c-0.165,0-0.33-0.039-0.482-0.118
			c-0.331-0.173-0.545-0.511-0.558-0.885c-0.142-3.987-3.494-8.402-3.527-8.446c-0.29-0.378-0.286-0.905,0.01-1.279
			c11.327-14.316,22.276-16.799,22.737-16.898c0.532-0.116,1.069,0.205,1.219,0.733c3.627,12.771,0.895,22.317,0.776,22.717
			c-0.152,0.517-0.678,0.831-1.202,0.726c-10.033-2.01-18.325,3.231-18.407,3.284C76.559,80.523,76.363,80.579,76.166,80.579z
			 M73.728,70.532c0.876,1.281,2.688,4.213,3.287,7.333c2.816-1.453,9.519-4.242,17.546-2.954
			c0.543-2.533,1.748-10.138-0.725-19.647C91.046,56.18,82.508,59.701,73.728,70.532z"/>
	</g>
	<g id="XMLID_19_">
		<path id="XMLID_10_" style="fill:#FFFFFF;" d="M71.126,110.046h-7.795c-0.302,0-0.589-0.131-0.787-0.359
			c-0.198-0.228-0.287-0.531-0.243-0.83c0.039-0.271,0.996-6.725,4.261-13.447c4.4-9.059,10.904-14.151,18.809-14.725
			c17.482-1.269,17.88-0.315,18.232,0.528c0.098,0.234,0.113,0.487,0.053,0.721c-0.036,1.17-0.401,6.805-4.073,12.814
			c-3.712,6.072-11.643,13.655-28.354,15.293C71.194,110.044,71.16,110.046,71.126,110.046z M64.576,107.964h6.499
			c12.657-1.252,21.632-6.034,26.677-14.215c3.078-4.991,3.68-9.807,3.798-11.441c-1.154-0.173-4.787-0.364-16.029,0.452
			C70.385,83.859,65.577,102.962,64.576,107.964z"/>
	</g>
	<g id="XMLID_18_">
		<path id="XMLID_6_" style="fill:#FFFFFF;" d="M61.388,96.102c-0.036,0-0.072-0.002-0.108-0.006
			c-0.425-0.044-0.779-0.343-0.894-0.754c-1.936-6.909-10.783-12.832-10.872-12.891c-0.38-0.252-0.551-0.721-0.425-1.158
			c2.966-10.23,11.734-15.238,12.106-15.447c0.333-0.185,0.741-0.175,1.063,0.027c10.252,6.446,12.16,15.131,12.236,15.498
			c0.086,0.416-0.089,0.843-0.443,1.079c-7.427,4.937-11.698,13.011-11.74,13.092C62.13,95.888,61.772,96.102,61.388,96.102z
			 M51.307,81.164c1.952,1.4,7.741,5.883,10.294,11.479c1.72-2.728,5.351-7.768,10.674-11.5c-0.255-0.819-0.813-2.342-1.886-4.177
			c-1.431-2.446-4.087-5.948-8.696-8.98C59.874,69.166,53.791,73.58,51.307,81.164z"/>
	</g>
	<g id="XMLID_7_">
		<path id="XMLID_3_" style="fill:#FFFFFF;" d="M70.512,67.796c-0.304,0-0.593-0.133-0.791-0.364
			c-3.577-4.186-5.953-5.956-7.981-5.872c-1.198,0.041-4.893,3.106-7.63,5.921c-0.203,0.209-0.483,0.329-0.774,0.315
			c-0.29-0.008-0.565-0.136-0.756-0.355l-3.274-3.741c-0.229-0.262-0.312-0.62-0.222-0.955c3.278-12.21,11.31-18.817,11.65-19.092
			c0.378-0.306,0.919-0.309,1.3-0.007c9.738,7.699,12.349,18.673,12.455,19.137c0.071,0.308-0.002,0.631-0.198,0.879l-2.962,3.741
			c-0.193,0.244-0.485,0.389-0.797,0.395C70.525,67.796,70.518,67.796,70.512,67.796z M51.241,62.75l2.17,2.479
			c2.01-1.986,6.034-5.674,8.257-5.751c2.595-0.089,5.124,1.509,8.807,5.648l1.861-2.351c-0.589-2.083-3.381-10.632-10.917-16.95
			C59.534,47.586,53.888,53.455,51.241,62.75z"/>
	</g>
</g>
</svg>
