<?xml version="1.0" encoding="iso-8859-1"?>
<!-- Generator: Adobe Illustrator 19.0.0, SVG Export Plug-In . SVG Version: 6.00 Build 0)  -->
<svg version="1.1" id="Layer_1" xmlns="http://www.w3.org/2000/svg" xmlns:xlink="http://www.w3.org/1999/xlink" x="0px" y="0px"
	 viewBox="0 0 124 124" style="enable-background:new 0 0 124 124;" xml:space="preserve">
<circle id="XMLID_1_" style="fill:#FA7508;" cx="62" cy="62" r="61"/>
<g id="XMLID_3_">
	<g id="XMLID_34_">
		<path id="XMLID_16_" style="fill:#FFFFFF;" d="M54.079,52.276h-31.48c-4.619,0-8.377-3.758-8.377-8.377v-7.69
			c0-4.619,3.758-8.377,8.377-8.377h31.48c4.619,0,8.377,3.758,8.377,8.377v7.69C62.456,48.518,58.698,52.276,54.079,52.276z
			 M22.599,30.225c-3.299,0-5.984,2.684-5.984,5.984v7.69c0,3.299,2.684,5.984,5.984,5.984h31.48c3.299,0,5.984-2.684,5.984-5.984
			v-7.69c0-3.299-2.684-5.984-5.984-5.984H22.599z"/>
	</g>
	<g id="XMLID_36_">
		<path id="XMLID_13_" style="fill:#FFFFFF;" d="M54.079,96.378h-31.48c-4.619,0-8.377-3.758-8.377-8.377v-7.69
			c0-4.619,3.758-8.377,8.377-8.377h31.48c4.619,0,8.377,3.758,8.377,8.377v7.69C62.456,92.62,58.698,96.378,54.079,96.378z
			 M22.599,74.327c-3.299,0-5.984,2.684-5.984,5.984v7.69c0,3.299,2.684,5.984,5.984,5.984h31.48c3.299,0,5.984-2.684,5.984-5.984
			v-7.69c0-3.299-2.684-5.984-5.984-5.984H22.599z"/>
	</g>
	<g id="XMLID_37_">
		<path id="XMLID_10_" style="fill:#FFFFFF;" d="M77.771,74.327h-31.48c-4.619,0-8.377-3.758-8.377-8.377v-7.691
			c0-4.619,3.758-8.377,8.377-8.377h31.48c4.619,0,8.377,3.758,8.377,8.377v7.691C86.148,70.569,82.391,74.327,77.771,74.327z
			 M46.291,52.276c-3.299,0-5.984,2.684-5.984,5.984v7.691c0,3.299,2.684,5.984,5.984,5.984h31.48c3.299,0,5.984-2.684,5.984-5.984
			v-7.691c0-3.299-2.684-5.984-5.984-5.984H46.291z"/>
	</g>
	<g id="XMLID_38_">
		<path id="XMLID_7_" style="fill:#FFFFFF;" d="M99.92,96.378H68.44c-4.619,0-8.377-3.758-8.377-8.377v-7.69
			c0-4.619,3.758-8.377,8.377-8.377h31.48c4.619,0,8.377,3.758,8.377,8.377v7.69C108.297,92.62,104.539,96.378,99.92,96.378z
			 M68.44,74.327c-3.299,0-5.983,2.684-5.983,5.984v7.69c0,3.299,2.684,5.984,5.983,5.984h31.48c3.299,0,5.984-2.684,5.984-5.984
			v-7.69c0-3.299-2.684-5.984-5.984-5.984H68.44z"/>
	</g>
	<g id="XMLID_2_">
		<path id="XMLID_19_" style="fill:#FFFFFF;" d="M114.269,74.222H90.504c-3.487,0-6.324-3.758-6.324-8.377v-7.69
			c0-4.619,2.837-8.377,6.324-8.377h23.765c3.487,0,6.324,3.758,6.324,8.377v7.69C120.593,70.464,117.756,74.222,114.269,74.222z
			 M90.504,52.171c-2.491,0-4.517,2.684-4.517,5.984v7.69c0,3.299,2.026,5.984,4.517,5.984h23.765c2.491,0,4.517-2.684,4.517-5.984
			v-7.69c0-3.299-2.027-5.984-4.517-5.984H90.504z"/>
	</g>
	<g id="XMLID_22_">
		<path id="XMLID_23_" style="fill:#FFFFFF;" d="M33.496,74.222H9.731c-3.487,0-6.324-3.758-6.324-8.377v-7.69
			c0-4.619,2.837-8.377,6.324-8.377h23.765c3.487,0,6.324,3.758,6.324,8.377v7.69C39.82,70.464,36.983,74.222,33.496,74.222z
			 M9.731,52.171c-2.491,0-4.517,2.684-4.517,5.984v7.69c0,3.299,2.026,5.984,4.517,5.984h23.765c2.491,0,4.517-2.684,4.517-5.984
			v-7.69c0-3.299-2.027-5.984-4.517-5.984H9.731z"/>
	</g>
	<g id="XMLID_43_">
		<path id="XMLID_4_" style="fill:#FFFFFF;" d="M99.92,52.067H68.44c-4.619,0-8.377-3.758-8.377-8.377v-7.691
			c0-4.619,3.758-8.377,8.377-8.377h31.48c4.619,0,8.377,3.758,8.377,8.377v7.691C108.297,48.309,104.539,52.067,99.92,52.067z
			 M68.44,30.016c-3.299,0-5.983,2.684-5.983,5.984v7.691c0,3.299,2.684,5.984,5.983,5.984h31.48c3.299,0,5.984-2.684,5.984-5.984
			v-7.691c0-3.299-2.684-5.984-5.984-5.984H68.44z"/>
	</g>
</g>
</svg>
