<?xml version="1.0" encoding="iso-8859-1"?>
<!-- Generator: Adobe Illustrator 19.0.0, SVG Export Plug-In . SVG Version: 6.00 Build 0)  -->
<svg version="1.1" id="Layer_1" xmlns="http://www.w3.org/2000/svg" xmlns:xlink="http://www.w3.org/1999/xlink" x="0px" y="0px"
	 viewBox="0 0 124 124" style="enable-background:new 0 0 124 124;" xml:space="preserve">
<circle id="XMLID_1_" style="fill:#FA7508;" cx="62" cy="62" r="61"/>
<g id="XMLID_73_">
	<path id="XMLID_5_" style="fill:#FFFFFF;" d="M62.2,80.101l-5.928-0.986c-2.039-0.339-3.439-2.172-3.12-4.086l1.235-7.424
		c-1.46-0.285-2.922-0.585-4.369-0.896l-1.198,7.199c-0.339,2.039-2.274,3.422-4.313,3.083l-0.144-0.033l-5.955-1.736
		c-1.995-0.376-3.337-2.287-3.003-4.299l1.446-7.508c-1.354-0.391-2.671-0.79-3.937-1.193l-0.985,6.554
		c-0.342,2.058-2.277,3.44-4.316,3.101l-0.194-0.049l-5.837-1.973c-1.979-0.388-3.307-2.29-2.974-4.293l1.393-8.368
		c-0.859-0.426-1.661-0.853-2.403-1.278l-0.982,5.268c-0.122,0.732-0.549,2.558-1.79,3.166c-0.535,0.262-1.143,0.25-1.67-0.034
		c-0.998-0.539-2.392-2.118-2.759-2.544c-1.081-1.045-1.414-2.133-1.147-3.737l1.517-9.113c0.162-0.976,0.539-1.839,1.063-2.443
		c4.489-6.258,30.089-5.664,53.148-1.826c22.252,3.703,46.399,11.222,49.494,18.427c0.069,0.158,0.133,0.317,0.182,0.474
		c0.041,0.136,0.071,0.274,0.099,0.415c0.011,0.055,0.023,0.126,0.034,0.198c0.021,0.146,0.037,0.3,0.046,0.461
		c0.006,0.234,0.005,0.449-0.03,0.679l-0.001,0.046c-0.004,0.182-0.012,0.363-0.044,0.557l-1.517,9.114
		c-0.267,1.604-0.933,2.526-2.295,3.163c-0.485,0.285-2.316,1.327-3.434,1.513c-0.59,0.098-1.169-0.087-1.591-0.509
		c-0.978-0.978-0.791-2.843-0.665-3.599l0.719-4.907c-0.235,0.044-0.473,0.087-0.716,0.128l-1.292,7.763
		c-0.331,1.988-2.178,3.352-4.16,3.105l-5.83,0.355l-0.139-0.023c-2.039-0.339-3.422-2.274-3.082-4.313l0.807-6.012
		c-1.303-0.01-2.652-0.04-4.031-0.09l-1.207,7.568c-0.33,1.984-2.221,3.325-4.235,3.026l-6.149-0.414
		c-2.039-0.339-3.427-2.24-3.094-4.238l1.156-6.949c-2.08-0.227-4.187-0.486-6.292-0.775l-1.236,7.429
		C66.157,79.159,64.239,80.44,62.2,80.101z M47.994,63.714l1.281,0.284c2.242,0.497,4.533,0.967,6.808,1.399l1.416,0.268
		l-0.472,1.362c-0.015,0.045-0.034,0.089-0.044,0.137l-1.377,8.273c-0.093,0.56,0.389,1.109,1.074,1.223l5.928,0.986
		c0.686,0.114,1.319-0.249,1.412-0.809l1.377-8.276c0.006-0.048,0.003-0.098,0.002-0.147l-0.003-1.437l1.423,0.204
		c2.93,0.419,5.875,0.781,8.754,1.076l1.318,0.136l-1.59,9.558c-0.104,0.627,0.34,1.229,0.997,1.365l6.134,0.413
		c0.685,0.114,1.33-0.317,1.437-0.961l1.314-8.242c0.012-0.073,0.01-0.137,0.009-0.201L85.18,69.01l1.312,0.057
		c2.258,0.098,4.442,0.144,6.491,0.136l1.427-0.005l-1.192,8.872c-0.113,0.683,0.294,1.3,0.916,1.464l5.792-0.353l0.139,0.023
		c0.686,0.114,1.336-0.351,1.45-1.036l1.587-9.539l0.895-0.133c1.153-0.172,2.22-0.378,3.175-0.612l1.797-0.442l-1.252,8.536
		c-0.076,0.454-0.082,0.825-0.061,1.09c0.594-0.239,1.432-0.671,2.08-1.055l0.119-0.062c0.534-0.243,0.776-0.391,0.934-1.336
		l1.517-9.114c0.012-0.07,0.009-0.136,0.011-0.201l0.032-0.404c0.003-0.057,0.001-0.137,0-0.175
		c-0.002-0.041-0.011-0.118-0.022-0.192l-0.013-0.073c-0.014-0.073-0.024-0.128-0.039-0.177c-0.02-0.066-0.055-0.14-0.087-0.215
		c-2.054-4.781-20.427-12.43-47.616-16.955c-27.803-4.626-47.983-3.161-50.736,0.85l-0.109,0.137
		c-0.167,0.182-0.398,0.614-0.502,1.236l-1.517,9.113c-0.158,0.948,0.014,1.153,0.451,1.567l0.092,0.097
		c0.489,0.573,1.142,1.253,1.626,1.671c0.105-0.241,0.218-0.588,0.291-1.028l1.657-8.898l1.562,1.018
		c1.253,0.817,2.783,1.655,4.546,2.492l0.91,0.432l-0.234,0.981c-0.01,0.044-0.023,0.087-0.036,0.13l-1.508,9.064
		c-0.114,0.686,0.351,1.336,1.036,1.45l0.194,0.049l5.811,1.964c0.654,0.065,1.257-0.389,1.367-1.047l1.419-9.444l1.401,0.462
		c1.986,0.656,4.123,1.306,6.352,1.934l1.188,0.334l-0.359,1.309l-1.618,8.381c-0.109,0.654,0.356,1.304,1.042,1.418l0.144,0.033
		l5.936,1.731c0.662,0.078,1.278-0.38,1.389-1.045L47.994,63.714z M61.289,61.688c-9.408-1.565-18.171-3.58-24.676-5.673
		c-9.713-3.125-10.754-5.163-10.491-6.744c0.263-1.581,1.907-3.172,12.109-2.983c6.832,0.127,15.776,1.058,25.183,2.624
		c9.408,1.565,18.171,3.58,24.676,5.673c9.713,3.125,10.754,5.163,10.491,6.744c-0.263,1.581-1.908,3.172-12.11,2.983
		C79.64,64.185,70.696,63.253,61.289,61.688z M28.69,49.698c1.368,1.694,12.042,6.046,33.007,9.535
		c20.965,3.489,32.473,2.828,34.316,1.668c-1.368-1.694-12.042-6.046-33.007-9.535C42.041,47.878,30.534,48.539,28.69,49.698z"/>
</g>
</svg>
