<?xml version="1.0" encoding="iso-8859-1"?>
<!-- Generator: Adobe Illustrator 19.0.0, SVG Export Plug-In . SVG Version: 6.00 Build 0)  -->
<svg version="1.1" id="Layer_1" xmlns="http://www.w3.org/2000/svg" xmlns:xlink="http://www.w3.org/1999/xlink" x="0px" y="0px"
	 viewBox="0 0 124 124" style="enable-background:new 0 0 124 124;" xml:space="preserve">
<circle id="XMLID_1_" style="fill:#FA7508;" cx="62" cy="62" r="61"/>
<g id="XMLID_32_">
	<g id="XMLID_33_">
		<path id="XMLID_10_" style="fill:#FFFFFF;" d="M52.25,108.672l-11.408-5.91l8.222-19.207l9.318,15.149L52.25,108.672z
			 M45.981,100.92l4.809,2.49l2.895-4.706l-3.983-6.476L45.981,100.92z"/>
	</g>
	<g id="XMLID_35_">
		<path id="XMLID_7_" style="fill:#FFFFFF;" d="M69.968,79.867l-9.664-22.571l17.315-40.447c0.598-1.395,1.759-2.488,3.187-3
			c1.427-0.512,3.02-0.405,4.366,0.292l13.572,7.031c1.431,0.741,2.498,2.057,2.929,3.609s0.193,3.229-0.651,4.602L69.968,79.867z
			 M64.655,57.296l5.951,13.899l27.009-43.908c0.268-0.435,0.339-0.945,0.203-1.437c-0.137-0.492-0.461-0.892-0.914-1.126
			l-13.572-7.031c-0.368-0.191-0.785-0.219-1.177-0.079c-0.391,0.14-0.695,0.427-0.858,0.808L64.655,57.296z"/>
	</g>
</g>
<g id="XMLID_3_">
	<path id="XMLID_4_" style="fill:#FFFFFF;" d="M67.77,111.104L18.996,31.814c-0.844-1.372-1.081-3.049-0.65-4.602
		c0.431-1.552,1.498-2.867,2.928-3.608l13.572-7.031c1.347-0.698,2.938-0.804,4.367-0.292c1.428,0.512,2.589,1.605,3.186,3
		l36.779,85.913L67.77,111.104z M37.363,19.959c-0.232,0-0.463,0.056-0.677,0.167l-13.572,7.031
		c-0.453,0.235-0.777,0.635-0.914,1.126c-0.136,0.491-0.064,1.001,0.203,1.436l46.825,76.123l4.809-2.49L38.722,20.855
		c-0.164-0.381-0.468-0.668-0.859-0.808C37.699,19.988,37.531,19.959,37.363,19.959z"/>
</g>
</svg>
