<?xml version="1.0" encoding="iso-8859-1"?>
<!-- Generator: Adobe Illustrator 19.0.0, SVG Export Plug-In . SVG Version: 6.00 Build 0)  -->
<svg version="1.1" id="Layer_1" xmlns="http://www.w3.org/2000/svg" xmlns:xlink="http://www.w3.org/1999/xlink" x="0px" y="0px"
	 viewBox="0 0 124 124" style="enable-background:new 0 0 124 124;" xml:space="preserve">
<circle id="XMLID_1_" style="fill:#FA7508;" cx="62" cy="62" r="61"/>
<g id="XMLID_4_">
	<g id="XMLID_59_">
		<path id="XMLID_12_" style="fill:#FFFFFF;" d="M39.278,86.055H19.323c-1.229,0-2.229-1-2.229-2.229V69.672
			c0-1.229,1-2.229,2.229-2.229h19.956c1.229,0,2.229,1,2.229,2.229v14.154C41.508,85.055,40.508,86.055,39.278,86.055z
			 M19.323,69.56c-0.062,0-0.112,0.05-0.112,0.112v14.154c0,0.062,0.05,0.113,0.112,0.113h19.956c0.062,0,0.112-0.051,0.112-0.113
			V69.672c0-0.062-0.05-0.112-0.112-0.112H19.323z"/>
	</g>
	<g id="XMLID_22_">
		<path id="XMLID_9_" style="fill:#FFFFFF;" d="M76.775,86.055H56.86c-1.24,0-2.249-1.009-2.249-2.249V69.691
			c0-1.24,1.009-2.249,2.249-2.249h19.916c1.24,0,2.249,1.009,2.249,2.249v14.114C79.024,85.046,78.016,86.055,76.775,86.055z
			 M56.86,69.56c-0.073,0-0.132,0.059-0.132,0.132v14.114c0,0.073,0.059,0.132,0.132,0.132h19.916c0.073,0,0.132-0.059,0.132-0.132
			V69.691c0-0.073-0.059-0.132-0.132-0.132H56.86z"/>
	</g>
	<g id="XMLID_62_">
		<path id="XMLID_6_" style="fill:#FFFFFF;" d="M80.915,91.974H57.709c-0.913,0-1.776-0.349-2.432-0.984l-5.07-4.904
			c-1.265-1.223-3.294-1.195-4.525,0.063l-4.674,4.774c-0.655,0.668-1.566,1.051-2.501,1.051H14.868
			c-1.93,0-3.499-1.569-3.499-3.499V66.479c0-1.929,1.57-3.499,3.499-3.499h66.047c1.93,0,3.5,1.57,3.5,3.499v21.996
			C84.415,90.404,82.845,91.974,80.915,91.974z M47.976,83.072c1.335,0,2.672,0.496,3.702,1.492l5.071,4.904
			c0.259,0.251,0.601,0.389,0.961,0.389h23.207c0.763,0,1.383-0.62,1.383-1.382V66.479c0-0.762-0.62-1.382-1.383-1.382H14.868
			c-0.763,0-1.383,0.62-1.383,1.382v21.996c0,0.762,0.62,1.382,1.383,1.382h23.638c0.369,0,0.73-0.151,0.988-0.415l4.674-4.774
			C45.208,83.606,46.591,83.072,47.976,83.072z"/>
	</g>
	<g id="XMLID_60_">
		<path id="XMLID_5_" style="fill:#FFFFFF;" d="M84.146,78.058l-1.578-1.411l24.185-27.047c0.173-0.194,0.374-0.382,0.614-0.575
			c2.022-1.631,3.198-4.156,3.145-6.754l-0.082-3.993c-0.013-0.667-0.385-1.227-0.993-1.5c-0.596-0.267-1.244-0.181-1.747,0.23
			L80.844,64.773l-1.521-1.471l26.957-27.873c1.127-0.966,2.668-1.19,4.023-0.583c1.355,0.606,2.215,1.905,2.245,3.389l0.082,3.993
			c0.066,3.249-1.404,6.406-3.933,8.446c-0.15,0.121-0.27,0.232-0.365,0.338L84.146,78.058z"/>
	</g>
	<g id="XMLID_61_">
		<path id="XMLID_15_" style="fill:#FFFFFF;stroke:#000000;stroke-width:4;stroke-miterlimit:10;" d="M80.083,64.038"/>
	</g>
	<g id="XMLID_63_">
		<path id="XMLID_3_" style="fill:#FFFFFF;" d="M13.132,66.415l-1.408-1.58L47.27,33.161c1.313-1.17,3.131-1.459,4.741-0.757
			c1.611,0.703,2.634,2.231,2.67,3.989l0.105,5.125c0.035,1.705-0.689,3.317-1.988,4.424L29.003,64.866l-1.317-1.657l23.767-18.901
			c0.785-0.67,1.239-1.679,1.217-2.746l-0.105-5.125c-0.019-0.936-0.542-1.718-1.4-2.092c-0.859-0.375-1.787-0.226-2.486,0.397
			L13.132,66.415z"/>
	</g>
	<g id="XMLID_66_">
		<path id="XMLID_2_" style="fill:#FFFFFF;stroke:#000000;stroke-width:4;stroke-miterlimit:10;" d="M12.427,65.625"/>
	</g>
</g>
</svg>
