<?xml version="1.0" encoding="iso-8859-1"?>
<!-- Generator: Adobe Illustrator 19.0.0, SVG Export Plug-In . SVG Version: 6.00 Build 0)  -->
<svg version="1.1" id="Layer_1" xmlns="http://www.w3.org/2000/svg" xmlns:xlink="http://www.w3.org/1999/xlink" x="0px" y="0px"
	 viewBox="0 0 124 124" style="enable-background:new 0 0 124 124;" xml:space="preserve">
<circle id="XMLID_1_" style="fill:#FA7508;" cx="62" cy="62" r="61"/>
<g id="XMLID_97_">
	<g id="XMLID_100_">
		<path id="XMLID_6_" style="fill:#FFFFFF;" d="M54.337,117.507c-0.855,0-1.713-0.208-2.507-0.627
			c-13.684-7.221-22.278-30.491-20.9-56.592c1.447-27.431,13.084-49.895,28.3-54.628c1.573-0.49,3.294-0.277,4.72,0.584
			c1.448,0.875,2.455,2.329,2.761,3.987c0.712,3.853,0.998,7.065,0.9,10.107c-0.192,5.947-1.912,11.629-3.574,17.125
			c-1.083,3.579-2.203,7.28-2.854,10.944c-1.348,7.592-0.81,15.209-0.239,23.275c0.4,5.661,0.814,11.516,0.501,17.312
			c-0.157,2.909-0.486,5.905-0.805,8.802c-0.513,4.664-1.043,9.486-0.849,13.969c0.086,1.993-0.87,3.821-2.559,4.891
			C56.338,117.222,55.338,117.507,54.337,117.507z M60.938,9.399c-0.162,0-0.337,0.023-0.521,0.08
			c-13.433,4.179-24.155,25.636-25.494,51.02c-1.277,24.205,6.617,46.429,18.772,52.843c0.637,0.333,1.188,0.065,1.396-0.065
			c0.463-0.294,0.726-0.794,0.703-1.338c-0.208-4.789,0.34-9.767,0.87-14.58c0.312-2.842,0.636-5.781,0.787-8.579l0,0
			c0.299-5.548-0.105-11.275-0.497-16.814c-0.562-7.953-1.144-16.177,0.291-24.256c0.692-3.896,1.846-7.713,2.963-11.403
			c1.661-5.49,3.23-10.675,3.405-16.096c0.089-2.748-0.177-5.688-0.836-9.252c-0.099-0.535-0.425-1.005-0.896-1.29
			C61.691,9.554,61.357,9.399,60.938,9.399z"/>
	</g>
	<g id="XMLID_101_">
		<path id="XMLID_3_" style="fill:#FFFFFF;" d="M64.389,118.599c-1.012,0-2.006-0.364-2.789-1.047
			c-1.057-0.922-1.598-2.304-1.445-3.696c0.119-1.086,0.231-2.174,0.342-3.262l9.881-96.395c0.062-0.613,0.124-1.235,0.168-1.86
			c0.117-1.638,1.117-3.072,2.611-3.742c1.511-0.677,3.269-0.467,4.588,0.548c11.929,9.188,18.714,30.63,17.285,54.627
			c-1.653,27.8-14.109,50.805-29.617,54.7C65.075,118.557,64.731,118.599,64.389,118.599z M74.997,12.202
			c-0.084,0-0.154,0.023-0.202,0.044c-0.158,0.071-0.245,0.198-0.258,0.377c-0.048,0.665-0.112,1.328-0.18,1.981v0.001l-9.88,96.396
			c-0.112,1.096-0.226,2.193-0.345,3.288c-0.014,0.122,0.045,0.202,0.097,0.247c0.097,0.084,0.179,0.062,0.211,0.056
			c13.635-3.426,25.07-25.377,26.599-51.06c1.33-22.362-4.992-42.946-15.734-51.22C75.194,12.229,75.088,12.202,74.997,12.202z"/>
	</g>
</g>
</svg>
