<?xml version="1.0" encoding="iso-8859-1"?>
<!-- Generator: Adobe Illustrator 19.0.0, SVG Export Plug-In . SVG Version: 6.00 Build 0)  -->
<svg version="1.1" id="Layer_1" xmlns="http://www.w3.org/2000/svg" xmlns:xlink="http://www.w3.org/1999/xlink" x="0px" y="0px"
	 viewBox="0 0 124 124" style="enable-background:new 0 0 124 124;" xml:space="preserve">
<circle id="XMLID_1_" style="fill:#FA7508;" cx="62" cy="62" r="61"/>
<g id="XMLID_25_">
	<g id="XMLID_30_">
		<path id="XMLID_21_" style="fill:#FFFFFF;" d="M59.969,49.724c-4.991,0-9.051-4.06-9.051-9.051s4.06-9.051,9.051-9.051
			s9.052,4.06,9.052,9.051S64.96,49.724,59.969,49.724z M59.969,33.923c-3.721,0-6.749,3.028-6.749,6.749s3.028,6.749,6.749,6.749
			c3.722,0,6.75-3.028,6.75-6.749S63.691,33.923,59.969,33.923z"/>
	</g>
	<g id="XMLID_74_">
		<path id="XMLID_18_" style="fill:#FFFFFF;" d="M92.687,51.031c-4.991,0-9.051-4.06-9.051-9.051s4.06-9.051,9.051-9.051
			c4.991,0,9.051,4.06,9.051,9.051S97.678,51.031,92.687,51.031z M92.687,35.23c-3.721,0-6.749,3.028-6.749,6.749
			c0,3.722,3.028,6.749,6.749,6.749c3.722,0,6.75-3.028,6.75-6.749C99.437,38.258,96.409,35.23,92.687,35.23z"/>
	</g>
	<g id="XMLID_75_">
		<path id="XMLID_15_" style="fill:#FFFFFF;" d="M28.475,51.6c-4.991,0-9.051-4.06-9.051-9.051s4.06-9.051,9.051-9.051
			s9.051,4.06,9.051,9.051S33.466,51.6,28.475,51.6z M28.475,35.799c-3.721,0-6.749,3.028-6.749,6.749
			c0,3.722,3.028,6.749,6.749,6.749s6.749-3.028,6.749-6.749C35.225,38.827,32.197,35.799,28.475,35.799z"/>
	</g>
	<g id="XMLID_76_">
		<path id="XMLID_12_" style="fill:#FFFFFF;" d="M53.596,67.404V57.009c0-3.81,3.099-6.909,6.909-6.909
			c3.81,0,6.909,3.099,6.909,6.909v10.282l-1.177-0.028c-1.597-0.037-2.944-0.054-4.237-0.054c-2.325,0-4.749,0.049-7.207,0.147
			L53.596,67.404z M60.505,52.402c-2.54,0-4.607,2.067-4.607,4.607v8.003c2.078-0.07,4.125-0.105,6.101-0.105
			c0.981,0,1.99,0.01,3.113,0.03v-7.929C65.112,54.469,63.045,52.402,60.505,52.402z"/>
	</g>
	<g id="XMLID_77_">
		<path id="XMLID_9_" style="fill:#FFFFFF;" d="M100.132,70.257l-1.464-0.415c-3.409-0.965-7.24-1.794-11.385-2.463l-0.968-0.156
			v-8.907c0-3.81,3.099-6.909,6.909-6.909s6.909,3.099,6.909,6.909V70.257z M88.616,65.267c3.289,0.556,6.377,1.214,9.214,1.961
			v-8.911c0-2.541-2.067-4.607-4.607-4.607s-4.607,2.067-4.607,4.607V65.267z"/>
	</g>
	<g id="XMLID_78_">
		<path id="XMLID_6_" style="fill:#FFFFFF;" d="M22.102,70.821V58.884c0-3.81,3.099-6.909,6.909-6.909s6.909,3.099,6.909,6.909
			v8.622l-0.951,0.167c-4.171,0.735-7.998,1.639-11.375,2.685L22.102,70.821z M29.011,54.278c-2.54,0-4.607,2.067-4.607,4.607v8.831
			c2.819-0.81,5.908-1.527,9.214-2.137v-6.694C33.618,56.344,31.551,54.278,29.011,54.278z"/>
	</g>
	<g id="XMLID_79_">
		<path id="XMLID_3_" style="fill:#FFFFFF;" d="M61.999,92.378c-14.093,0-27.529-1.137-37.835-3.202
			c-11.143-2.233-16.793-5.148-16.793-8.664c0-3.382,5.263-6.215,15.642-8.422c3.462-0.736,7.37-1.371,11.616-1.888
			c6.236-0.759,12.994-1.246,20.084-1.449c3.96-0.113,7.821-0.13,11.568-0.067c7.484,0.125,14.654,0.565,21.311,1.309
			c4.194,0.468,8.1,1.051,11.607,1.733c11.565,2.246,17.428,5.201,17.428,8.785c0,3.516-5.65,6.431-16.793,8.664
			C89.53,91.241,76.093,92.378,61.999,92.378z M61.999,70.949c-2.35,0-4.778,0.035-7.219,0.105
			c-7.021,0.201-13.707,0.683-19.873,1.433c-4.179,0.509-8.02,1.133-11.415,1.854c-10.2,2.169-13.819,4.679-13.819,6.171
			c0,3.899,20.384,9.564,52.325,9.564c31.942,0,52.327-5.665,52.327-9.564c0-1.301-3.278-4.139-15.565-6.525l0,0
			c-3.448-0.669-7.291-1.243-11.424-1.704c-6.585-0.736-13.682-1.171-21.094-1.295C64.84,70.964,63.427,70.949,61.999,70.949z"/>
	</g>
</g>
</svg>
