<?xml version="1.0" encoding="iso-8859-1"?>
<!-- Generator: Adobe Illustrator 19.0.0, SVG Export Plug-In . SVG Version: 6.00 Build 0)  -->
<svg version="1.1" id="Layer_1" xmlns="http://www.w3.org/2000/svg" xmlns:xlink="http://www.w3.org/1999/xlink" x="0px" y="0px"
	 viewBox="0 0 124 124" style="enable-background:new 0 0 124 124;" xml:space="preserve">
<circle id="XMLID_1_" style="fill:#FA7508;" cx="62" cy="62" r="61"/>
<g id="XMLID_3_">
	
		<circle id="XMLID_105_" style="fill:none;stroke:#231F20;stroke-width:4;stroke-miterlimit:10;" cx="272.299" cy="903.733" r="79.409"/>
	
		<circle id="XMLID_104_" style="fill:none;stroke:#231F20;stroke-width:4;stroke-miterlimit:10;" cx="272.299" cy="904.099" r="55.545"/>
	<g id="XMLID_90_">
		<path id="XMLID_103_" style="fill:#FFFFFF;stroke:#000000;stroke-width:4;stroke-miterlimit:10;" d="M329.591,852.949
			c-0.358-1.165-2.406-2.815-3.448-3.448c-1.801-1.094-4.243-1.619-5.862,0l-98.293,98.293c-1.619,1.619-1.619,4.243,0,5.862
			l3.448,3.448c1.619,1.619,4.243,1.619,5.862,0c2.598-3.556,40.089-48.421,67.516-59.64
			C313.533,891.443,331.727,859.894,329.591,852.949z"/>
		<path id="XMLID_106_" style="fill:#FFFFFF;stroke:#000000;stroke-width:4;stroke-miterlimit:10;" d="M322.562,951.253
			c-2.559-1.65-53.558-50.053-59.269-60.026c2.485-8.045-1.4-19.512-10.458-28.569c-11.4-11.4-26.637-14.645-34.034-7.249
			c-7.396,7.396-4.151,22.634,7.249,34.034c8.405,8.405,18.887,12.358,26.784,10.901c18.409,11.226,60.418,60.219,60.418,60.219
			c1.165,1.165,3.422,0.797,5.04-0.821l3.448-3.448C323.359,954.674,323.727,952.418,322.562,951.253z"/>
	</g>
</g>
<g id="XMLID_2_">
	<g id="XMLID_31_">
		<path id="XMLID_8_" style="fill:#FFFFFF;" d="M84.319,96.73c-4.022,0-7.796-2.006-10.089-5.243
			c-2.299,3.211-5.983,5.138-10.022,5.138c-3.908,0-7.55-1.848-9.867-4.918c-2.333,2.757-5.74,4.359-9.41,4.359
			c-4.022,0-7.795-2.006-10.089-5.243c-2.3,3.211-5.984,5.138-10.022,5.138c-6.816,0-12.361-5.545-12.361-12.361
			c0-2.325,0.65-4.583,1.883-6.551c0.04-0.304,0.112-0.583,0.219-0.845l18.988-46.667c0.561-1.378,1.881-2.266,3.368-2.266
			c0.006,0,0.011,0,0.017,0l70.991,0.321c1.173,0.005,2.278,0.58,2.955,1.539c0.668,0.946,0.845,2.16,0.476,3.256l-15.17,55.647
			c-0.064,0.186-0.148,0.326-0.205,0.421C94.241,93.409,89.571,96.73,84.319,96.73z M74.252,86.538l1.04,2.161
			c1.689,3.512,5.148,5.693,9.028,5.693c4.29,0,8.101-2.733,9.484-6.801l0.071-0.167c0.031-0.058,0.064-0.115,0.098-0.171
			c0.003-0.005,0.005-0.007,0.007-0.01l15.153-55.588c0.14-0.402,0.08-0.831-0.165-1.178c-0.245-0.348-0.63-0.548-1.055-0.55
			l-70.991-0.321c-0.002,0-0.004,0-0.006,0c-0.531,0-1.002,0.317-1.203,0.809L16.725,77.083c-0.045,0.111-0.071,0.245-0.08,0.42
			l-0.017,0.317l-0.175,0.264c-1.084,1.643-1.657,3.549-1.657,5.514c0,5.527,4.496,10.024,10.024,10.024
			c3.835,0,7.277-2.145,8.982-5.598l1.062-2.15l1.039,2.161c1.689,3.511,5.148,5.692,9.028,5.692c3.457,0,6.628-1.756,8.48-4.697
			l1.056-1.678l0.957,1.737c1.766,3.206,5.132,5.198,8.785,5.198c3.835,0,7.277-2.145,8.983-5.599L74.252,86.538z"/>
	</g>
	<g id="XMLID_26_">
		
			<rect id="XMLID_7_" x="43.504" y="26.952" transform="matrix(0.9504 0.311 -0.311 0.9504 20.4199 -10.9913)" style="fill:#FFFFFF;" width="2.338" height="63.157"/>
	</g>
	<g id="XMLID_27_">
		
			<rect id="XMLID_6_" x="62.286" y="27.127" transform="matrix(0.9589 0.2837 -0.2837 0.9589 19.3564 -15.5748)" style="fill:#FFFFFF;" width="2.338" height="63.837"/>
	</g>
	<g id="XMLID_28_">
		
			<rect id="XMLID_5_" x="81.139" y="27.618" transform="matrix(0.9662 0.2578 -0.2578 0.9662 17.9758 -19.2256)" style="fill:#FFFFFF;" width="2.338" height="62.645"/>
	</g>
	<g id="XMLID_29_">
		
			<rect id="XMLID_4_" x="14.58" y="85.515" transform="matrix(0.9997 0.024 -0.024 0.9997 2.0939 -1.2897)" style="fill:#FFFFFF;" width="80.512" height="2.337"/>
	</g>
</g>
</svg>
