<?xml version="1.0" encoding="iso-8859-1"?>
<!-- Generator: Adobe Illustrator 19.0.0, SVG Export Plug-In . SVG Version: 6.00 Build 0)  -->
<svg version="1.1" id="Layer_1" xmlns="http://www.w3.org/2000/svg" xmlns:xlink="http://www.w3.org/1999/xlink" x="0px" y="0px"
	 viewBox="0 0 124 124" style="enable-background:new 0 0 124 124;" xml:space="preserve">
<circle id="XMLID_1_" style="fill:#FA7508;" cx="62" cy="62" r="61"/>
<g id="XMLID_2_">
	<g id="XMLID_98_">
		<path id="XMLID_9_" style="fill:#FFFFFF;" d="M98.055,103.629H25.945c-3.074,0-5.574-2.5-5.574-5.574V25.945
			c0-3.074,2.5-5.574,5.574-5.574h72.111c3.074,0,5.574,2.5,5.574,5.574v72.111C103.629,101.129,101.129,103.629,98.055,103.629z
			 M25.945,24.724c-0.673,0-1.221,0.548-1.221,1.221v72.111c0,0.673,0.548,1.221,1.221,1.221h72.111
			c0.673,0,1.221-0.548,1.221-1.221V25.945c0-0.673-0.548-1.221-1.221-1.221H25.945z"/>
	</g>
	<g id="XMLID_93_">
		<path id="XMLID_12_" style="fill:#FFFFFF;" d="M68.739,91.859"/>
	</g>
	<g id="XMLID_95_">
		<path id="XMLID_6_" style="fill:#FFFFFF;" d="M70.934,93.382c-0.638,0-1.248-0.181-1.773-0.521L36.315,93.08
			c-0.012,0-0.025,0-0.037,0c-1.83,0-3.509-0.918-4.497-2.461c-0.994-1.553-1.12-3.477-0.337-5.147L50.74,44.326
			c0.874-1.863,2.694-3.04,4.751-3.071c0.028,0,0.057-0.001,0.085-0.001c2.024,0,3.842,1.115,4.761,2.925l14.811,29.2l1.911-4.075
			c0.537-1.146,1.657-1.87,2.923-1.889c0.017-0.001,0.035-0.001,0.052-0.001c1.245,0,2.364,0.686,2.928,1.8l9.775,19.272v-0.001
			c0.519,1.022,0.473,2.217-0.124,3.195c-0.596,0.978-1.637,1.567-2.782,1.575l-18.873,0.125
			C70.95,93.382,70.942,93.382,70.934,93.382z M70.246,89.951l0.428,0.422c0.111,0.109,0.23,0.108,0.264,0.107l18.873-0.125
			c0.176-0.001,0.273-0.1,0.325-0.183c0.05-0.083,0.094-0.215,0.014-0.372v-0.001l-9.775-19.272c-0.088-0.172-0.232-0.21-0.341-0.21
			c-0.002,0-0.004,0-0.007,0c-0.109,0.002-0.256,0.041-0.34,0.22l-4.436,9.46L57.749,45.492c-0.432-0.851-1.226-1.359-2.213-1.335
			c-0.953,0.015-1.764,0.539-2.169,1.402L34.071,86.705c-0.363,0.774-0.307,1.63,0.154,2.349c0.458,0.715,1.204,1.124,2.052,1.124
			c0.006,0,0.012,0,0.018,0L70.246,89.951z"/>
	</g>
	<g id="XMLID_91_">
		<path id="XMLID_3_" style="fill:#FFFFFF;" d="M80.204,46.126c-3.258,0-5.908-2.651-5.908-5.908c0-3.258,2.651-5.909,5.908-5.909
			s5.908,2.651,5.908,5.909C86.112,43.475,83.461,46.126,80.204,46.126z M80.204,37.211c-1.658,0-3.006,1.349-3.006,3.007
			c0,1.658,1.348,3.006,3.006,3.006c1.658,0,3.006-1.349,3.006-3.006C83.21,38.559,81.861,37.211,80.204,37.211z"/>
	</g>
</g>
</svg>
