<?xml version="1.0" encoding="iso-8859-1"?>
<!-- Generator: Adobe Illustrator 19.0.0, SVG Export Plug-In . SVG Version: 6.00 Build 0)  -->
<svg version="1.1" id="Layer_1" xmlns="http://www.w3.org/2000/svg" xmlns:xlink="http://www.w3.org/1999/xlink" x="0px" y="0px"
	 viewBox="0 0 124 124" style="enable-background:new 0 0 124 124;" xml:space="preserve">
<circle id="XMLID_1_" style="fill:#FA7508;" cx="62" cy="62" r="61"/>
<g id="XMLID_2_">
	<g id="XMLID_88_">
		<path id="XMLID_11_" style="fill:#FFFFFF;" d="M105.443,57.851h-72.07l2.143-3.13c1.165-1.701,1.781-3.688,1.781-5.745
			c0-2.335-0.777-4.537-2.249-6.37l-2.611-3.252h73.006c4.225,0,7.291,1.875,7.291,4.457v9.583
			C112.734,55.976,109.668,57.851,105.443,57.851z M40.433,53.851h65.01c1.813,0,2.924-0.483,3.291-0.754v-8.989
			c-0.367-0.271-1.478-0.754-3.291-0.754H40.126c0.765,1.768,1.17,3.684,1.17,5.622C41.297,50.655,41.003,52.3,40.433,53.851z"/>
	</g>
	<g id="XMLID_3_">
		<path id="XMLID_8_" style="fill:#FFFFFF;" d="M20.109,61.178c-6.729,0-12.202-5.474-12.202-12.202s5.474-12.203,12.202-12.203
			c3.094,0,6.057,1.186,8.343,3.338l0,0c2.489,2.343,3.859,5.491,3.859,8.864c0,2.957-1.11,5.83-3.125,8.09
			C26.855,59.679,23.546,61.178,20.109,61.178z M20.109,40.773c-4.522,0-8.202,3.68-8.202,8.203c0,4.522,3.68,8.202,8.202,8.202
			c2.333,0,4.496-0.985,6.092-2.775c1.361-1.526,2.111-3.454,2.111-5.427c0-2.259-0.924-4.373-2.602-5.952
			C24.168,41.572,22.179,40.773,20.109,40.773z"/>
	</g>
	<g id="XMLID_83_">
		<path id="XMLID_5_" style="fill:#FFFFFF;" d="M107.188,82.227H16.812c-4.108,0-8.905-1.167-8.905-4.457v-9.582
			c0-3.29,4.797-4.457,8.905-4.457h90.375c4.108,0,8.906,1.167,8.906,4.457v9.582C116.094,81.06,111.296,82.227,107.188,82.227z
			 M11.907,77.315c0.571,0.336,2.218,0.911,4.905,0.911h90.375c2.688,0,4.335-0.575,4.906-0.911v-8.673
			c-0.571-0.337-2.219-0.912-4.906-0.912H16.812c-2.687,0-4.333,0.575-4.905,0.912V77.315z"/>
	</g>
</g>
</svg>
