<?xml version="1.0" encoding="iso-8859-1"?>
<!-- Generator: Adobe Illustrator 19.0.0, SVG Export Plug-In . SVG Version: 6.00 Build 0)  -->
<svg version="1.1" id="Layer_1" xmlns="http://www.w3.org/2000/svg" xmlns:xlink="http://www.w3.org/1999/xlink" x="0px" y="0px"
	 viewBox="0 0 124 124" style="enable-background:new 0 0 124 124;" xml:space="preserve">
<circle id="XMLID_1_" style="fill:#FA7508;" cx="62" cy="62" r="61"/>
<g id="XMLID_3_">
	
		<circle id="XMLID_105_" style="fill:none;stroke:#231F20;stroke-width:4;stroke-miterlimit:10;" cx="272.299" cy="903.733" r="79.409"/>
	
		<circle id="XMLID_104_" style="fill:none;stroke:#231F20;stroke-width:4;stroke-miterlimit:10;" cx="272.299" cy="904.099" r="55.545"/>
	<g id="XMLID_90_">
		<path id="XMLID_103_" style="fill:#FFFFFF;stroke:#000000;stroke-width:4;stroke-miterlimit:10;" d="M329.591,852.949
			c-0.358-1.165-2.406-2.815-3.448-3.448c-1.801-1.094-4.243-1.619-5.862,0l-98.293,98.293c-1.619,1.619-1.619,4.243,0,5.862
			l3.448,3.448c1.619,1.619,4.243,1.619,5.862,0c2.598-3.556,40.089-48.421,67.516-59.64
			C313.533,891.443,331.727,859.894,329.591,852.949z"/>
		<path id="XMLID_106_" style="fill:#FFFFFF;stroke:#000000;stroke-width:4;stroke-miterlimit:10;" d="M322.562,951.253
			c-2.559-1.65-53.558-50.053-59.269-60.026c2.485-8.045-1.4-19.512-10.458-28.569c-11.4-11.4-26.637-14.645-34.034-7.249
			c-7.396,7.396-4.151,22.634,7.249,34.034c8.405,8.405,18.887,12.358,26.784,10.901c18.409,11.226,60.418,60.219,60.418,60.219
			c1.165,1.165,3.422,0.797,5.04-0.821l3.448-3.448C323.359,954.674,323.727,952.418,322.562,951.253z"/>
	</g>
</g>
<path id="XMLID_2_" style="fill:none;stroke:#FFFFFF;stroke-width:4;stroke-miterlimit:10;" d="M82.049,113.333H40.284
	c-2.918,0-5.284-2.366-5.284-5.284V15.951c0-2.918,2.366-5.284,5.284-5.284h41.766c2.918,0,5.284,2.366,5.284,5.284v92.099
	C87.333,110.968,84.968,113.333,82.049,113.333z"/>
<circle id="XMLID_4_" style="fill:none;stroke:#FFFFFF;stroke-width:2;stroke-miterlimit:10;" cx="44.167" cy="60.5" r="4.167"/>
</svg>
