<?xml version="1.0" encoding="iso-8859-1"?>
<!-- Generator: Adobe Illustrator 19.0.0, SVG Export Plug-In . SVG Version: 6.00 Build 0)  -->
<svg version="1.1" id="Layer_1" xmlns="http://www.w3.org/2000/svg" xmlns:xlink="http://www.w3.org/1999/xlink" x="0px" y="0px"
	 viewBox="0 0 124 124" style="enable-background:new 0 0 124 124;" xml:space="preserve">
<circle id="XMLID_1_" style="fill:#FA7508;" cx="62" cy="62" r="61"/>
<g id="XMLID_41_">
	<g id="XMLID_86_">
		<path id="XMLID_12_" style="fill:#FFFFFF;" d="M77.259,43.803H46.741c-1.385,0-2.626-0.716-3.319-1.916
			c-0.692-1.2-0.692-2.632,0-3.832l15.259-26.43c0.692-1.2,1.933-1.916,3.318-1.916s2.626,0.716,3.318,1.916l15.259,26.43
			c0.693,1.2,0.693,2.632,0,3.832C79.885,43.087,78.644,43.803,77.259,43.803z M62,11.658c-0.681,0-1.291,0.352-1.631,0.942
			L45.11,39.03c-0.341,0.59-0.341,1.294,0,1.884s0.95,0.942,1.631,0.942h30.518c0.681,0,1.291-0.352,1.631-0.942
			c0.341-0.59,0.341-1.294,0-1.884L63.631,12.6C63.291,12.01,62.681,11.658,62,11.658z"/>
	</g>
	<g id="XMLID_82_">
		<path id="XMLID_9_" style="fill:#FFFFFF;" d="M82.907,66.561H41.093c-1.569,0-2.975-0.811-3.759-2.17
			c-0.785-1.359-0.785-2.982,0-4.341l6.721-11.642c0.773-1.339,2.213-2.17,3.759-2.17h28.372c1.546,0,2.986,0.832,3.759,2.17
			l6.721,11.642c0.785,1.359,0.785,2.982,0,4.341C85.882,65.75,84.477,66.561,82.907,66.561z M47.814,48.186
			c-0.852,0-1.646,0.458-2.072,1.196L39.02,61.024c-0.432,0.749-0.432,1.643,0,2.393c0.433,0.749,1.207,1.196,2.072,1.196h41.815
			c0.865,0,1.639-0.447,2.072-1.196c0.432-0.749,0.432-1.643,0-2.393l-6.721-11.642c-0.426-0.738-1.22-1.196-2.072-1.196
			C76.186,48.186,47.814,48.186,47.814,48.186z"/>
	</g>
	<g id="XMLID_84_">
		<path id="XMLID_6_" style="fill:#FFFFFF;" d="M89.635,93.601h-55.27c-1.707,0-3.236-0.883-4.09-2.361
			c-0.854-1.479-0.854-3.244,0-4.722l8.752-15.16c0.841-1.456,2.408-2.361,4.09-2.361h37.765c1.682,0,3.249,0.905,4.09,2.361
			l8.752,15.16c0.854,1.479,0.854,3.244,0,4.722C92.871,92.718,91.342,93.601,89.635,93.601z M40.715,72.332l-8.752,15.16
			c-0.502,0.868-0.502,1.906,0,2.774c0.502,0.869,1.4,1.387,2.403,1.387h55.269c1.003,0,1.901-0.518,2.403-1.387
			c0.502-0.868,0.502-1.906,0-2.774l-8.752-15.16c-0.494-0.856-1.415-1.387-2.403-1.387H43.118
			C42.129,70.944,41.209,71.476,40.715,72.332L40.715,72.332z"/>
	</g>
	<g id="XMLID_14_">
		<path id="XMLID_3_" style="fill:#FFFFFF;" d="M65.54,114.29h-7.08c-2.345,0-4.252-1.907-4.252-4.252v-9.841
			c0-2.345,1.907-4.252,4.252-4.252h7.081c2.345,0,4.252,1.908,4.252,4.252v9.841C69.792,112.383,67.885,114.29,65.54,114.29z
			 M58.46,97.893c-1.271,0-2.304,1.034-2.304,2.304v9.841c0,1.27,1.034,2.304,2.304,2.304h7.081c1.271,0,2.304-1.034,2.304-2.304
			v-9.841c0-1.271-1.034-2.304-2.304-2.304C65.541,97.893,58.46,97.893,58.46,97.893z"/>
	</g>
</g>
</svg>
