<?xml version="1.0" encoding="iso-8859-1"?>
<!-- Generator: Adobe Illustrator 19.0.0, SVG Export Plug-In . SVG Version: 6.00 Build 0)  -->
<svg version="1.1" id="Layer_1" xmlns="http://www.w3.org/2000/svg" xmlns:xlink="http://www.w3.org/1999/xlink" x="0px" y="0px"
	 viewBox="0 0 124 124" style="enable-background:new 0 0 124 124;" xml:space="preserve">
<circle id="XMLID_1_" style="fill:#FA7508;" cx="62" cy="62" r="61"/>
<g id="XMLID_3_">
	
		<circle id="XMLID_105_" style="fill:none;stroke:#231F20;stroke-width:4;stroke-miterlimit:10;" cx="272.299" cy="903.733" r="79.409"/>
	
		<circle id="XMLID_104_" style="fill:none;stroke:#231F20;stroke-width:4;stroke-miterlimit:10;" cx="272.299" cy="904.099" r="55.545"/>
	<g id="XMLID_90_">
		<path id="XMLID_103_" style="fill:#FFFFFF;stroke:#000000;stroke-width:4;stroke-miterlimit:10;" d="M329.591,852.949
			c-0.358-1.165-2.406-2.815-3.448-3.448c-1.801-1.094-4.243-1.619-5.862,0l-98.293,98.293c-1.619,1.619-1.619,4.243,0,5.862
			l3.448,3.448c1.619,1.619,4.243,1.619,5.862,0c2.598-3.556,40.089-48.421,67.516-59.64
			C313.533,891.443,331.727,859.894,329.591,852.949z"/>
		<path id="XMLID_106_" style="fill:#FFFFFF;stroke:#000000;stroke-width:4;stroke-miterlimit:10;" d="M322.562,951.253
			c-2.559-1.65-53.558-50.053-59.269-60.026c2.485-8.045-1.4-19.512-10.458-28.569c-11.4-11.4-26.637-14.645-34.034-7.249
			c-7.396,7.396-4.151,22.634,7.249,34.034c8.405,8.405,18.887,12.358,26.784,10.901c18.409,11.226,60.418,60.219,60.418,60.219
			c1.165,1.165,3.422,0.797,5.04-0.821l3.448-3.448C323.359,954.674,323.727,952.418,322.562,951.253z"/>
	</g>
</g>
<g id="XMLID_2_">
	<g id="XMLID_8_">
		<path id="XMLID_21_" style="fill:#FFFFFF;" d="M62,112.93c-28.083,0-50.93-22.847-50.93-50.93S33.917,11.07,62,11.07
			S112.93,33.917,112.93,62S90.083,112.93,62,112.93z M62,13.573c-26.703,0-48.427,21.724-48.427,48.427
			c0,26.703,21.725,48.427,48.427,48.427S110.427,88.703,110.427,62C110.427,35.297,88.703,13.573,62,13.573z"/>
	</g>
	<g id="XMLID_7_">
		<path id="XMLID_18_" style="fill:#FFFFFF;" d="M62,98.23c-19.851,0-36.001-16.15-36.001-36.001S42.149,26.228,62,26.228
			s36.001,16.15,36.001,36.001S81.851,98.23,62,98.23z M62,28.731c-18.471,0-33.498,15.027-33.498,33.498
			C28.502,80.7,43.529,95.727,62,95.727S95.498,80.7,95.498,62.229C95.498,43.758,80.471,28.731,62,28.731z"/>
	</g>
	<g id="XMLID_4_">
		<g id="XMLID_6_">
			<path id="XMLID_13_" style="fill:#FA7508;" d="M97.843,30.229c-0.224-0.729-1.505-1.761-2.157-2.157
				c-1.127-0.684-2.654-1.013-3.667,0L30.526,89.565c-1.013,1.013-1.013,2.654,0,3.667l2.157,2.157c1.013,1.013,2.654,1.013,3.667,0
				c1.625-2.224,25.08-30.292,42.239-37.311C87.797,54.311,99.179,34.574,97.843,30.229z"/>
			<path id="XMLID_14_" style="fill:#FFFFFF;" d="M34.517,97.4c-1.027,0-1.992-0.4-2.719-1.127l-2.157-2.157
				c-0.726-0.726-1.126-1.691-1.126-2.718s0.4-1.992,1.126-2.719l61.493-61.492c1.284-1.285,3.276-1.355,5.202-0.185
				c0.022,0.013,2.248,1.38,2.703,2.859l0,0c1.56,5.075-10.182,25.368-19.977,29.375c-16.45,6.729-39.595,34.008-41.703,36.891
				l-0.125,0.147C36.509,97,35.544,97.4,34.517,97.4z M93.631,28.683c-0.268,0-0.526,0.072-0.728,0.273L31.411,90.449
				c-0.254,0.254-0.393,0.59-0.393,0.949c0,0.359,0.139,0.695,0.393,0.948l2.157,2.158c0.494,0.494,1.348,0.509,1.858,0.037
				c1.606-1.997,24.896-30.344,42.689-37.622c8.848-3.62,19.6-22.741,18.534-26.313c-0.125-0.285-0.94-1.057-1.614-1.466
				C94.932,29.078,94.257,28.683,93.631,28.683z"/>
		</g>
		<g id="XMLID_5_">
			<path id="XMLID_9_" style="fill:#FA7508;" d="M93.445,91.729c-1.601-1.032-33.506-31.313-37.079-37.553
				c1.555-5.033-0.876-12.207-6.542-17.873c-7.132-7.132-16.664-9.162-21.292-4.535c-4.627,4.627-2.597,14.16,4.535,21.292
				c5.258,5.258,11.816,7.731,16.756,6.82c11.517,7.023,37.798,37.674,37.798,37.674c0.729,0.729,2.141,0.499,3.153-0.514
				l2.157-2.157C93.944,93.869,94.174,92.458,93.445,91.729z"/>
			<path id="XMLID_10_" style="fill:#FFFFFF;" d="M88.737,99.235c-0.756,0-1.465-0.261-2.001-0.796l-0.065-0.071
				c-0.258-0.301-25.696-29.897-37.112-37.178c-5.403,0.762-12.169-2.038-17.377-7.246c-3.618-3.618-6.11-7.954-7.016-12.209
				c-0.948-4.45-0.067-8.304,2.481-10.852c5.108-5.108,15.452-3.074,23.061,4.535c5.639,5.639,8.401,13.013,7.01,18.565
				c4.517,6.828,34.694,35.499,36.415,36.7l0.197,0.16c0.635,0.635,0.908,1.567,0.747,2.556c-0.139,0.852-0.587,1.693-1.26,2.367
				l-2.157,2.157C90.795,98.788,89.726,99.235,88.737,99.235z M88.522,96.682c0.164,0.113,0.798,0.042,1.367-0.528l2.158-2.157
				c0.301-0.301,0.505-0.665,0.56-1c0.028-0.17,0.009-0.294-0.026-0.357c-3.099-2.476-33.692-31.543-37.301-37.843l-0.27-0.472
				l0.16-0.519c1.466-4.747-1.037-11.425-6.231-16.619c-6.632-6.632-15.39-8.668-19.523-4.535c-1.928,1.928-2.568,4.969-1.803,8.561
				c0.807,3.788,3.058,7.681,6.338,10.961c4.801,4.801,10.944,7.342,15.644,6.474l0.47-0.087l0.408,0.249
				C61.889,65.772,86.888,94.779,88.522,96.682z"/>
		</g>
	</g>
</g>
</svg>
