<?xml version="1.0" encoding="iso-8859-1"?>
<!-- Generator: Adobe Illustrator 19.0.0, SVG Export Plug-In . SVG Version: 6.00 Build 0)  -->
<svg version="1.1" id="Layer_1" xmlns="http://www.w3.org/2000/svg" xmlns:xlink="http://www.w3.org/1999/xlink" x="0px" y="0px"
	 viewBox="0 0 124 124" style="enable-background:new 0 0 124 124;" xml:space="preserve">
<circle id="XMLID_1_" style="fill:#FA7508;" cx="62" cy="62" r="61"/>
<g id="XMLID_2_">
	<g id="XMLID_5_">
		<path id="XMLID_8_" style="fill:#FFFFFF;" d="M62,102.682c-8.998,0-17.471-0.715-23.858-2.015
			c-7.334-1.491-10.898-3.513-10.898-6.182c0-0.543,0.154-1.072,0.458-1.573c2.954-4.861,3.366-11.064,1.102-16.593
			c-2.737-6.683-4.125-13.911-4.125-21.483C24.679,28.942,41.421,7.875,62,7.875c20.579,0,37.321,21.067,37.321,46.961
			c0,7.509-1.442,14.976-4.17,21.595c-2.38,5.773-1.991,11.874,1.042,16.317l0,0c0.374,0.548,0.564,1.132,0.564,1.737
			c0,2.668-3.565,4.691-10.899,6.182C79.471,101.967,70.998,102.682,62,102.682z M62,10.705c-19.019,0-34.491,19.797-34.491,44.131
			c0,7.101,1.353,14.159,3.913,20.411c2.603,6.356,2.116,13.509-1.302,19.133c-0.043,0.072-0.047,0.105-0.047,0.105
			c0.076,1.092,8.608,5.366,31.927,5.366s31.851-4.274,31.927-5.366c-0.001-0.01-0.016-0.06-0.072-0.142
			c-3.571-5.233-4.065-12.332-1.32-18.99c2.588-6.28,3.956-13.374,3.956-20.517C96.491,30.502,81.019,10.705,62,10.705z"/>
	</g>
	<g id="XMLID_3_">
		<path id="XMLID_4_" style="fill:#FFFFFF;" d="M62,117.125c-4.567,0-7.947-1.237-10.048-3.679c-2.73-3.173-2.166-7.154-2.141-7.322
			l0.182-1.204h24.014l0.182,1.204c0.026,0.168,0.589,4.148-2.141,7.322C69.947,115.888,66.567,117.125,62,117.125z M52.598,107.75
			c0.076,1.045,0.399,2.585,1.52,3.874c1.542,1.772,4.194,2.67,7.882,2.67s6.34-0.899,7.881-2.67
			c1.121-1.289,1.445-2.829,1.521-3.874H52.598z"/>
	</g>
</g>
</svg>
