<?xml version="1.0" encoding="iso-8859-1"?>
<!-- Generator: Adobe Illustrator 19.0.0, SVG Export Plug-In . SVG Version: 6.00 Build 0)  -->
<svg version="1.1" id="Layer_1" xmlns="http://www.w3.org/2000/svg" xmlns:xlink="http://www.w3.org/1999/xlink" x="0px" y="0px"
	 viewBox="0 0 124 124" style="enable-background:new 0 0 124 124;" xml:space="preserve">
<circle id="XMLID_1_" style="fill:#FA7508;" cx="62" cy="62" r="61"/>
<g id="XMLID_39_">
	<path id="XMLID_3_" style="fill:#FFFFFF;" d="M41.195,93.248c-0.163,0-0.323-0.009-0.48-0.026H14.261
		c-2.244,0-4.07-2.004-4.07-4.468v-9.623c0-2.464,1.826-4.468,4.07-4.468h22.004l41.269-41.269c1.123-1.123,2.434-1.958,3.702-2.361
		c0.463-0.188,0.938-0.283,1.414-0.283h27.09c2.244,0,4.07,2.004,4.07,4.468v9.624c0,2.463-1.826,4.468-4.07,4.468H87.865
		L46.556,90.618C44.89,92.284,42.897,93.248,41.195,93.248z M14.336,89.222l26.836,0.026c0.25,0.031,1.349-0.253,2.556-1.459
		l42.48-42.48h23.455c0.052-0.058,0.146-0.21,0.146-0.468v-9.624c0-0.245-0.09-0.406-0.146-0.468H82.649l-0.157,0.082
		c-0.659,0.196-1.456,0.716-2.131,1.391l-42.439,42.44H14.336c-0.052,0.058-0.146,0.21-0.146,0.468v9.623
		C14.191,89.012,14.285,89.164,14.336,89.222z"/>
</g>
</svg>
