<?xml version="1.0" encoding="iso-8859-1"?>
<!-- Generator: Adobe Illustrator 19.0.0, SVG Export Plug-In . SVG Version: 6.00 Build 0)  -->
<svg version="1.1" id="Layer_1" xmlns="http://www.w3.org/2000/svg" xmlns:xlink="http://www.w3.org/1999/xlink" x="0px" y="0px"
	 viewBox="0 0 124 124" style="enable-background:new 0 0 124 124;" xml:space="preserve">
<circle id="XMLID_1_" style="fill:#FA7508;" cx="62" cy="62" r="61"/>
<g id="XMLID_2_">
	<g id="XMLID_24_">
		<path id="XMLID_14_" style="fill:#FFFFFF;" d="M49.312,88.643c-0.028,0-0.056-0.001-0.084-0.003
			c-0.661-0.046-1.159-0.618-1.113-1.279c0.002-0.033,0.203-3.67-2.074-6.094c-1.415-1.507-3.533-2.271-6.296-2.271
			c-2.768,0-4.905,0.767-6.35,2.28c-2.322,2.432-2.182,6.072-2.18,6.108c0.03,0.66-0.479,1.222-1.139,1.255
			c-0.66,0.04-1.221-0.473-1.256-1.133c-0.01-0.189-0.208-4.674,2.821-7.866c1.916-2.019,4.642-3.042,8.103-3.042
			c3.463,0,6.176,1.025,8.062,3.047c2.986,3.199,2.713,7.692,2.7,7.882C50.463,88.159,49.937,88.643,49.312,88.643z"/>
	</g>
	<g id="XMLID_48_">
		<path id="XMLID_13_" style="fill:#FFFFFF;" d="M71.405,88.643c-0.028,0-0.056-0.001-0.084-0.003
			c-0.66-0.046-1.159-0.618-1.113-1.279c0.002-0.033,0.203-3.67-2.074-6.094c-1.415-1.507-3.533-2.271-6.296-2.271
			c-2.768,0-4.905,0.767-6.35,2.28c-2.322,2.432-2.182,6.072-2.18,6.108c0.03,0.66-0.479,1.222-1.139,1.255
			c-0.665,0.04-1.221-0.473-1.256-1.133c-0.01-0.189-0.208-4.674,2.821-7.866c1.916-2.019,4.642-3.042,8.103-3.042
			c3.463,0,6.176,1.025,8.062,3.047c2.986,3.199,2.713,7.692,2.7,7.882C72.557,88.159,72.03,88.643,71.405,88.643z"/>
	</g>
	<g id="XMLID_49_">
		<path id="XMLID_12_" style="fill:#FFFFFF;" d="M93.43,88.643c-0.028,0-0.056-0.001-0.084-0.003
			c-0.66-0.046-1.159-0.618-1.113-1.279c0.002-0.033,0.203-3.67-2.074-6.095c-1.415-1.506-3.533-2.27-6.296-2.27
			c-2.777,0-4.919,0.772-6.364,2.295c-2.328,2.453-2.168,6.054-2.167,6.09c0.035,0.662-0.473,1.225-1.135,1.26
			c-0.663,0.032-1.225-0.474-1.26-1.135c-0.01-0.189-0.208-4.674,2.822-7.866c1.916-2.019,4.642-3.042,8.103-3.042
			c3.463,0,6.175,1.025,8.062,3.047c2.986,3.199,2.713,7.692,2.7,7.882C94.581,88.159,94.054,88.643,93.43,88.643z"/>
	</g>
	<g id="XMLID_52_">
		<path id="XMLID_11_" style="fill:#FFFFFF;" d="M38.934,99.917c-0.028,0-0.056-0.001-0.084-0.003
			c-0.661-0.046-1.159-0.618-1.113-1.279c0.002-0.033,0.203-3.67-2.074-6.094c-1.415-1.507-3.533-2.271-6.296-2.271
			c-2.768,0-4.905,0.767-6.35,2.28c-2.322,2.432-2.182,6.072-2.18,6.108c0.03,0.66-0.479,1.222-1.139,1.255
			c-0.663,0.041-1.221-0.473-1.256-1.133c-0.01-0.189-0.208-4.674,2.821-7.866c1.916-2.019,4.642-3.042,8.103-3.042
			c3.463,0,6.176,1.025,8.062,3.047c2.986,3.199,2.713,7.692,2.7,7.882C40.085,99.433,39.558,99.917,38.934,99.917z"/>
	</g>
	<g id="XMLID_51_">
		<path id="XMLID_10_" style="fill:#FFFFFF;" d="M61.027,99.917c-0.028,0-0.056-0.001-0.084-0.003
			c-0.66-0.046-1.159-0.618-1.113-1.279c0.002-0.033,0.203-3.67-2.074-6.094c-1.415-1.507-3.533-2.271-6.296-2.271
			c-2.768,0-4.905,0.767-6.35,2.28c-2.322,2.432-2.182,6.072-2.18,6.108c0.03,0.66-0.479,1.222-1.139,1.255
			c-0.667,0.041-1.222-0.473-1.256-1.133c-0.01-0.189-0.208-4.674,2.821-7.866c1.916-2.019,4.642-3.042,8.103-3.042
			c3.463,0,6.175,1.025,8.062,3.047c2.987,3.199,2.713,7.692,2.7,7.882C62.178,99.433,61.652,99.917,61.027,99.917z"/>
	</g>
	<g id="XMLID_50_">
		<path id="XMLID_9_" style="fill:#FFFFFF;" d="M83.051,99.917c-0.028,0-0.056-0.001-0.084-0.003
			c-0.66-0.046-1.159-0.618-1.113-1.279c0.002-0.033,0.203-3.67-2.074-6.095c-1.415-1.506-3.533-2.27-6.296-2.27
			c-2.777,0-4.919,0.772-6.364,2.295c-2.328,2.453-2.168,6.054-2.167,6.09c0.035,0.662-0.473,1.225-1.135,1.26
			c-0.656,0.03-1.226-0.474-1.26-1.135c-0.01-0.189-0.208-4.674,2.822-7.866c1.916-2.019,4.642-3.042,8.103-3.042
			c3.463,0,6.175,1.025,8.062,3.047c2.986,3.199,2.713,7.692,2.7,7.882C84.203,99.433,83.676,99.917,83.051,99.917z"/>
	</g>
	<g id="XMLID_53_">
		<path id="XMLID_8_" style="fill:#FFFFFF;" d="M105.089,99.917c-0.028,0-0.056-0.001-0.084-0.003
			c-0.66-0.046-1.159-0.618-1.113-1.279c0.002-0.033,0.203-3.67-2.074-6.094c-1.415-1.507-3.533-2.271-6.296-2.271
			c-2.777,0-4.919,0.772-6.364,2.295c-2.328,2.453-2.168,6.054-2.167,6.09c0.035,0.662-0.473,1.225-1.135,1.26
			c-0.658,0.03-1.225-0.474-1.26-1.135c-0.01-0.189-0.208-4.674,2.822-7.866c1.916-2.019,4.642-3.042,8.103-3.042
			c3.463,0,6.176,1.025,8.062,3.047c2.986,3.199,2.713,7.692,2.7,7.882C106.24,99.433,105.714,99.917,105.089,99.917z"/>
	</g>
	<g id="XMLID_54_">
		<path id="XMLID_5_" style="fill:#FFFFFF;" d="M101.967,72.332H17.704V24.083h84.262V72.332z M20.102,69.934h79.467V26.481H20.102
			V69.934z"/>
	</g>
	<g id="XMLID_67_">
		<path id="XMLID_4_" style="fill:#FFFFFF;" d="M29.888,72.332c-0.113,0-0.227-0.016-0.341-0.05c-0.635-0.188-0.998-0.855-0.81-1.49
			c1.589-5.37-6.245-15.712-9.398-19.243l-1.57-1.758l2.345-0.234c12.808-1.275,15.444-18.277,15.933-23.077H19.503
			c-0.662,0-1.199-0.537-1.199-1.199s0.537-1.199,1.199-1.199h19.101l-0.056,1.252c-0.011,0.251-0.3,6.226-2.61,12.496
			c-2.814,7.638-7.429,12.35-13.427,13.756c3.147,3.868,10.372,13.65,8.527,19.886C30.883,71.995,30.405,72.332,29.888,72.332z"/>
	</g>
	<g id="XMLID_68_">
		<path id="XMLID_3_" style="fill:#FFFFFF;" d="M89.31,72.332c-0.518,0-0.995-0.338-1.149-0.859
			c-1.846-6.236,5.379-16.018,8.527-19.886c-5.998-1.406-10.614-6.117-13.427-13.756c-2.31-6.27-2.599-12.245-2.61-12.496
			l-0.056-1.252h19.101c0.662,0,1.199,0.537,1.199,1.199s-0.537,1.199-1.199,1.199H83.15c0.494,4.801,3.143,21.803,15.932,23.077
			l2.345,0.234l-1.57,1.758c-3.153,3.532-10.987,13.873-9.398,19.243c0.188,0.635-0.174,1.302-0.81,1.49
			C89.537,72.316,89.423,72.332,89.31,72.332z"/>
	</g>
</g>
</svg>
